<?xml version="1.0" encoding="UTF-8"?><!DOCTYPE svg PUBLIC "-//W3C//DTD SVG 1.1//EN" "http://www.w3.org/Graphics/SVG/1.1/DTD/svg11.dtd"><svg xmlns="http://www.w3.org/2000/svg" version="1.1" width="300px" height="120px" style="shape-rendering:geometricPrecision; text-rendering:geometricPrecision; image-rendering:optimizeQuality; fill-rule:evenodd; clip-rule:evenodd" xmlns:xlink="http://www.w3.org/1999/xlink"><g><path style="opacity:1" fill="#fffdfd" d="M -0.5,-0.5 C 99.5,-0.5 199.5,-0.5 299.5,-0.5C 299.5,39.5 299.5,79.5 299.5,119.5C 199.5,119.5 99.5,119.5 -0.5,119.5C -0.5,79.5 -0.5,39.5 -0.5,-0.5 Z"/></g><g><path style="opacity:1" fill="#ee362a" d="M 100.5,19.5 C 104.549,19.8705 106.549,22.2038 106.5,26.5C 103.027,35.2529 100.36,44.2529 98.5,53.5C 102.28,52.5974 106.114,51.9308 110,51.5C 114.433,50.5987 116.1,52.2654 115,56.5C 112.11,61.1136 109.61,65.9469 107.5,71C 107.833,71.5 108.167,72 108.5,72.5C 115.111,66.1219 120.111,58.6219 123.5,50C 125.473,49.5045 127.473,49.3379 129.5,49.5C 129.351,50.552 129.517,51.552 130,52.5C 132.99,47.7709 136.156,47.4376 139.5,51.5C 139.333,52.1667 139.167,52.8333 139,53.5C 127.433,57.2782 121.099,65.2782 120,77.5C 115.146,80.8724 112.813,79.5391 113,73.5C 110.826,77.6794 107.493,80.3461 103,81.5C 102.167,81.1667 101.333,80.8333 100.5,80.5C 99.8159,72.5358 101.816,65.2025 106.5,58.5C 103.525,57.8837 100.525,58.217 97.5,59.5C 95.5994,67.0341 94.4327,74.7008 94,82.5C 92.5341,84.3249 90.7008,84.8249 88.5,84C 87.1478,81.7057 86.4811,79.2057 86.5,76.5C 87.1686,71.8234 87.8352,67.1567 88.5,62.5C 84.6732,62.3871 81.1732,63.3871 78,65.5C 71.9746,75.9052 67.308,86.9052 64,98.5C 61.3676,101.192 59.0342,100.859 57,97.5C 56.3333,95.8333 56.3333,94.1667 57,92.5C 60.3986,84.389 63.732,76.389 67,68.5C 63.9123,70.2941 60.7456,71.9608 57.5,73.5C 54.7429,71.9124 53.9096,69.579 55,66.5C 60.9534,63.3486 67.1201,60.6819 73.5,58.5C 81.2766,44.5997 90.2766,31.5997 100.5,19.5 Z"/></g><g><path style="opacity:1" fill="#ee352a" d="M 178.5,50.5 C 177.596,51.209 177.263,52.209 177.5,53.5C 179.5,53.5 181.5,53.5 183.5,53.5C 184.573,54.2506 184.74,55.2506 184,56.5C 181.667,57.877 179.167,58.877 176.5,59.5C 174.599,67.0341 173.433,74.7008 173,82.5C 169.555,85.5563 167.222,84.8896 166,80.5C 165.21,74.2816 166.043,68.2816 168.5,62.5C 163.769,61.7303 159.602,63.0636 156,66.5C 150.686,76.7768 146.353,87.4435 143,98.5C 140.368,101.192 138.034,100.859 136,97.5C 135.333,95.8333 135.333,94.1667 136,92.5C 139.399,84.389 142.732,76.389 146,68.5C 142.6,71.2936 138.767,72.4603 134.5,72C 133.233,70.2041 133.233,68.3707 134.5,66.5C 140.641,63.4003 146.808,60.4003 153,57.5C 160.481,44.035 169.315,31.535 179.5,20C 183.58,19.8778 185.58,22.0445 185.5,26.5C 182.568,34.3526 180.235,42.3526 178.5,50.5 Z"/></g><g><path style="opacity:1" fill="#ef3c2f" d="M 213.5,34.5 C 219.704,34.3137 221.037,36.8137 217.5,42C 209.89,43.0233 208.557,40.5233 213.5,34.5 Z"/></g><g><path style="opacity:1" fill="#feeeed" d="M 96.5,33.5 C 97.0431,33.56 97.3764,33.8933 97.5,34.5C 94.6335,40.933 92.4668,47.5997 91,54.5C 88.2541,55.6498 85.4208,56.1498 82.5,56C 87.3914,48.6153 92.058,41.1153 96.5,33.5 Z"/></g><g><path style="opacity:1" fill="#feedec" d="M 175.5,33.5 C 176.043,33.56 176.376,33.8933 176.5,34.5C 173.718,40.959 171.551,47.6257 170,54.5C 167.254,55.6498 164.421,56.1498 161.5,56C 166.391,48.6153 171.058,41.1153 175.5,33.5 Z"/></g><g><path style="opacity:1" fill="#ef3c30" d="M 116.5,37.5 C 121.068,37.0826 122.568,39.0826 121,43.5C 117.785,47.6436 114.951,47.477 112.5,43C 113.65,41.019 114.984,39.1857 116.5,37.5 Z"/></g><g><path style="opacity:1" fill="#ee352a" d="M 229.5,43.5 C 230.873,43.3433 232.207,43.51 233.5,44C 235.198,46.6899 237.198,49.0232 239.5,51C 237.636,55.2275 235.636,59.3942 233.5,63.5C 234.365,64.5827 235.365,64.7494 236.5,64C 238.712,61.9575 240.712,59.7908 242.5,57.5C 242.833,58 243.167,58.5 243.5,59C 240.936,65.5646 236.436,70.0646 230,72.5C 227.837,72.5053 226.337,71.5053 225.5,69.5C 223.309,72.0427 220.642,73.7094 217.5,74.5C 213.796,74.2939 211.963,72.2939 212,68.5C 209.501,73.0059 205.834,76.0059 201,77.5C 200.167,77.1667 199.333,76.8333 198.5,76.5C 197.456,74.2324 197.289,71.8991 198,69.5C 201,62.8333 204,56.1667 207,49.5C 209.853,46.6816 212.353,46.8482 214.5,50C 211.891,56.0526 208.891,61.8859 205.5,67.5C 205.833,67.8333 206.167,68.1667 206.5,68.5C 210.87,64.2944 214.703,59.6277 218,54.5C 221.729,50.6019 225.562,46.9352 229.5,43.5 Z"/></g><g><path style="opacity:1" fill="#ee372c" d="M 191.5,50.5 C 194.518,50.3354 197.518,50.502 200.5,51C 202.172,54.1429 201.506,56.6429 198.5,58.5C 196.401,55.0155 193.901,54.6822 191,57.5C 191.151,61.1604 192.485,64.4937 195,67.5C 194.99,77.8317 189.823,81.9983 179.5,80C 176.694,78.6949 175.86,76.5282 177,73.5C 177.368,72.09 178.201,71.09 179.5,70.5C 180.981,71.4803 182.315,72.647 183.5,74C 184.784,74.6838 185.951,74.5171 187,73.5C 187.507,71.1654 186.84,69.1654 185,67.5C 183.809,60.5486 185.976,54.8819 191.5,50.5 Z"/></g><g><path style="opacity:1" fill="#feebea" d="M 230.5,49.5 C 231.497,49.4701 232.164,49.9701 232.5,51C 230.239,58.0826 226.239,63.9159 220.5,68.5C 220.167,68 219.833,67.5 219.5,67C 221.796,60.2274 225.463,54.3941 230.5,49.5 Z"/></g><g><path style="opacity:1" fill="#f7a29e" d="M 178.5,50.5 C 179.802,52.0276 181.469,53.0276 183.5,53.5C 181.5,53.5 179.5,53.5 177.5,53.5C 177.263,52.209 177.596,51.209 178.5,50.5 Z"/></g></svg>
