<?xml version="1.0" encoding="UTF-8"?><!DOCTYPE svg PUBLIC "-//W3C//DTD SVG 1.1//EN" "http://www.w3.org/Graphics/SVG/1.1/DTD/svg11.dtd"><svg xmlns="http://www.w3.org/2000/svg" version="1.1" width="900px" height="500px" style="shape-rendering:geometricPrecision; text-rendering:geometricPrecision; image-rendering:optimizeQuality; fill-rule:evenodd; clip-rule:evenodd" xmlns:xlink="http://www.w3.org/1999/xlink"><g><path style="opacity:1" fill="#fefefe" d="M -0.5,-0.5 C 299.5,-0.5 599.5,-0.5 899.5,-0.5C 899.5,166.167 899.5,332.833 899.5,499.5C 599.5,499.5 299.5,499.5 -0.5,499.5C -0.5,332.833 -0.5,166.167 -0.5,-0.5 Z"/></g><g><path style="opacity:1" fill="#2a2728" d="M 372.5,76.5 C 371.957,76.56 371.624,76.8933 371.5,77.5C 381.144,78.4984 390.81,78.8318 400.5,78.5C 400.5,80.1667 400.5,81.8333 400.5,83.5C 389.495,83.3335 378.495,83.5002 367.5,84C 365.533,87.4335 363.199,90.6002 360.5,93.5C 358.833,92.5 357.5,91.1667 356.5,89.5C 361.416,83.9932 365.583,77.9932 369,71.5C 372.6,71.8822 373.767,73.5488 372.5,76.5 Z"/></g><g><path style="opacity:1" fill="#221e1f" d="M 468.5,78.5 C 467.957,78.56 467.624,78.8933 467.5,79.5C 471.107,80.4892 474.774,80.8226 478.5,80.5C 478.5,81.8333 478.5,83.1667 478.5,84.5C 472.31,84.1771 466.31,84.5104 460.5,85.5C 459.566,86.5676 459.232,87.901 459.5,89.5C 464.5,89.5 469.5,89.5 474.5,89.5C 474.5,99.8333 474.5,110.167 474.5,120.5C 464.151,117.891 453.817,117.891 443.5,120.5C 443.5,110.5 443.5,100.5 443.5,90.5C 447.042,90.8128 450.375,90.4794 453.5,89.5C 454.434,88.4324 454.768,87.099 454.5,85.5C 449.167,85.5 443.833,85.5 438.5,85.5C 438.5,83.8333 438.5,82.1667 438.5,80.5C 441.85,80.665 445.183,80.4983 448.5,80C 447.956,79.2828 447.289,78.7828 446.5,78.5C 443.668,75.8016 444.168,73.8016 448,72.5C 450.382,73.7436 452.215,75.5769 453.5,78C 453.272,78.3988 452.938,78.5654 452.5,78.5C 451.711,78.7828 451.044,79.2828 450.5,80C 454.358,80.8099 458.024,80.6433 461.5,79.5C 463.142,76.8975 464.808,74.2308 466.5,71.5C 468.167,72.6667 469.833,73.8333 471.5,75C 470.364,76.1451 469.364,77.3117 468.5,78.5 Z"/></g><g><path style="opacity:1" fill="#272425" d="M 283.5,73.5 C 285.5,73.5 287.5,73.5 289.5,73.5C 289.5,92.1667 289.5,110.833 289.5,129.5C 287.5,129.5 285.5,129.5 283.5,129.5C 283.823,125.774 283.489,122.107 282.5,118.5C 278.032,120.45 273.366,121.45 268.5,121.5C 268.167,119.5 267.833,117.5 267.5,115.5C 272.804,114.616 278.137,113.949 283.5,113.5C 283.5,106.833 283.5,100.167 283.5,93.5C 278.167,93.5 272.833,93.5 267.5,93.5C 267.5,91.8333 267.5,90.1667 267.5,88.5C 272.833,88.5 278.167,88.5 283.5,88.5C 283.5,83.5 283.5,78.5 283.5,73.5 Z"/></g><g><path style="opacity:1" fill="#292627" d="M 300.5,73.5 C 302.5,73.5 304.5,73.5 306.5,73.5C 306.334,79.1764 306.501,84.8431 307,90.5C 311.212,88.6443 315.379,86.6443 319.5,84.5C 321.361,85.5283 322.695,87.0283 323.5,89C 318.255,92.6264 312.588,95.1264 306.5,96.5C 306.334,105.173 306.5,113.84 307,122.5C 313.808,125.345 318.308,123.345 320.5,116.5C 321.736,117.246 323.07,117.579 324.5,117.5C 324.634,121.964 322.968,125.464 319.5,128C 314.167,128.667 308.833,128.667 303.5,128C 302.692,127.692 302.025,127.192 301.5,126.5C 300.514,108.88 300.18,91.2137 300.5,73.5 Z"/></g><g><path style="opacity:1" fill="#252122" d="M 425.5,73.5 C 429.37,74.3533 432.536,76.3533 435,79.5C 435.265,81.1626 434.765,82.6626 433.5,84C 432.833,84.6667 432.167,84.6667 431.5,84C 429.612,81.8104 427.445,79.9771 425,78.5C 424.616,76.8034 424.782,75.1368 425.5,73.5 Z"/></g><g><path style="opacity:1" fill="#1d191a" d="M 596.5,90.5 C 595.5,90.5 594.5,90.5 593.5,90.5C 592.115,89.0527 592.448,88.0527 594.5,87.5C 595.479,84.3752 595.813,81.0419 595.5,77.5C 588.5,77.5 581.5,77.5 574.5,77.5C 574.5,76.5 574.5,75.5 574.5,74.5C 583.167,74.5 591.833,74.5 600.5,74.5C 600.666,79.1785 600.499,83.8452 600,88.5C 598.887,89.305 597.721,89.9717 596.5,90.5 Z"/></g><g><path style="opacity:1" fill="#1d1a1b" d="M 620.5,88.5 C 621.209,87.596 622.209,87.2627 623.5,87.5C 623.5,84.1667 623.5,80.8333 623.5,77.5C 616.833,77.5 610.167,77.5 603.5,77.5C 603.5,76.5 603.5,75.5 603.5,74.5C 611.833,74.5 620.167,74.5 628.5,74.5C 628.666,79.1785 628.499,83.8452 628,88.5C 625.293,91.0589 622.793,91.0589 620.5,88.5 Z"/></g><g><path style="opacity:1" fill="#252223" d="M 349.5,74.5 C 352.401,75.5361 354.901,77.2028 357,79.5C 356.973,81.4174 356.139,83.084 354.5,84.5C 352.476,82.6419 350.309,80.9752 348,79.5C 347.387,77.5048 347.887,75.8381 349.5,74.5 Z"/></g><g><path style="opacity:1" fill="#cacaca" d="M 372.5,76.5 C 381.833,77.1667 391.167,77.8333 400.5,78.5C 390.81,78.8318 381.144,78.4984 371.5,77.5C 371.624,76.8933 371.957,76.56 372.5,76.5 Z"/></g><g><path style="opacity:1" fill="#acabab" d="M 574.5,77.5 C 581.5,77.5 588.5,77.5 595.5,77.5C 595.813,81.0419 595.479,84.3752 594.5,87.5C 594.5,84.5 594.5,81.5 594.5,78.5C 589.968,78.1818 585.634,78.5151 581.5,79.5C 580.5,79.5 579.5,79.5 578.5,79.5C 577.167,78.8333 575.833,78.1667 574.5,77.5 Z"/></g><g><path style="opacity:1" fill="#f7f7f7" d="M 609.5,79.5 C 613.634,78.5151 617.968,78.1818 622.5,78.5C 622.5,79.5 622.5,80.5 622.5,81.5C 620.901,81.2322 619.568,81.5655 618.5,82.5C 616.5,82.8333 614.5,83.1667 612.5,83.5C 612.532,81.3812 611.532,80.0478 609.5,79.5 Z"/></g><g><path style="opacity:1" fill="#9e9d9e" d="M 446.5,78.5 C 447.289,78.7828 447.956,79.2828 448.5,80C 445.183,80.4983 441.85,80.665 438.5,80.5C 441.167,79.8333 443.833,79.1667 446.5,78.5 Z"/></g><g><path style="opacity:1" fill="#9e9d9d" d="M 452.5,78.5 C 455.287,79.4767 458.287,79.81 461.5,79.5C 458.024,80.6433 454.358,80.8099 450.5,80C 451.044,79.2828 451.711,78.7828 452.5,78.5 Z"/></g><g><path style="opacity:1" fill="#989797" d="M 468.5,78.5 C 471.833,79.1667 475.167,79.8333 478.5,80.5C 474.774,80.8226 471.107,80.4892 467.5,79.5C 467.624,78.8933 467.957,78.56 468.5,78.5 Z"/></g><g><path style="opacity:1" fill="#272324" d="M 521.5,78.5 C 530.513,77.3371 538.846,79.1704 546.5,84C 553.177,90.8458 555.343,99.0125 553,108.5C 551.3,114.4 547.8,118.9 542.5,122C 538.499,124.222 534.333,126.055 530,127.5C 528.033,126.507 526.866,124.84 526.5,122.5C 542.377,119.734 549.211,110.401 547,94.5C 543.513,86.845 537.68,83.5116 529.5,84.5C 527.052,97.0198 522.552,108.686 516,119.5C 511.615,123.756 507.615,123.423 504,118.5C 495.387,98.7326 501.221,85.3992 521.5,78.5 Z"/></g><g><path style="opacity:1" fill="#2e2b2c" d="M 578.5,79.5 C 579.5,79.5 580.5,79.5 581.5,79.5C 585.171,80.625 585.338,81.9583 582,83.5C 580.365,83.1223 578.865,82.4556 577.5,81.5C 577.863,80.8165 578.196,80.1499 578.5,79.5 Z"/></g><g><path style="opacity:1" fill="#c1c0c0" d="M 603.5,77.5 C 610.167,77.5 616.833,77.5 623.5,77.5C 623.5,80.8333 623.5,84.1667 623.5,87.5C 622.209,87.2627 621.209,87.596 620.5,88.5C 619.833,87.8333 619.167,87.1667 618.5,86.5C 619.209,85.596 620.209,85.2627 621.5,85.5C 621.5,84.5 621.5,83.5 621.5,82.5C 620.5,82.5 619.5,82.5 618.5,82.5C 619.568,81.5655 620.901,81.2322 622.5,81.5C 622.5,80.5 622.5,79.5 622.5,78.5C 617.968,78.1818 613.634,78.5151 609.5,79.5C 608.5,79.5 607.5,79.5 606.5,79.5C 605.5,78.8333 604.5,78.1667 603.5,77.5 Z"/></g><g><path style="opacity:1" fill="#828080" d="M 478.5,80.5 C 479.451,81.9187 479.784,83.5853 479.5,85.5C 473.167,85.5 466.833,85.5 460.5,85.5C 466.31,84.5104 472.31,84.1771 478.5,84.5C 478.5,83.1667 478.5,81.8333 478.5,80.5 Z"/></g><g><path style="opacity:1" fill="#2e2a2b" d="M 587.5,82.5 C 589.5,82.5 591.5,82.5 593.5,82.5C 593.67,83.8221 593.337,84.9887 592.5,86C 586.656,88.1276 580.656,89.6276 574.5,90.5C 574.238,89.0222 574.571,87.6888 575.5,86.5C 579.657,85.2828 583.657,83.9495 587.5,82.5 Z"/></g><g><path style="opacity:1" fill="#f8f8f8" d="M 518.5,84.5 C 520.167,84.5 521.833,84.5 523.5,84.5C 522.042,94.7066 518.876,104.373 514,113.5C 509.952,116.647 507.285,115.647 506,110.5C 504.019,98.7966 508.186,90.13 518.5,84.5 Z"/></g><g><path style="opacity:1" fill="#2d292a" d="M 606.5,79.5 C 607.5,79.5 608.5,79.5 609.5,79.5C 611.532,80.0478 612.532,81.3812 612.5,83.5C 614.5,83.1667 616.5,82.8333 618.5,82.5C 619.5,82.5 620.5,82.5 621.5,82.5C 621.5,83.5 621.5,84.5 621.5,85.5C 620.209,85.2627 619.209,85.596 618.5,86.5C 614.654,87.3328 610.821,88.3328 607,89.5C 604.435,89.1566 603.601,87.99 604.5,86C 606.5,85.3333 608.5,84.6667 610.5,84C 608.579,83.6397 606.912,82.8064 605.5,81.5C 605.863,80.8165 606.196,80.1499 606.5,79.5 Z"/></g><g><path style="opacity:1" fill="#a6a4a4" d="M 365.5,89.5 C 375.987,88.5056 386.654,88.1722 397.5,88.5C 397.5,92.8333 397.5,97.1667 397.5,101.5C 399.099,101.232 400.432,101.566 401.5,102.5C 399.833,102.5 398.167,102.5 396.5,102.5C 396.5,98.1667 396.5,93.8333 396.5,89.5C 386.167,89.5 375.833,89.5 365.5,89.5 Z"/></g><g><path style="opacity:1" fill="#252223" d="M 365.5,89.5 C 375.833,89.5 386.167,89.5 396.5,89.5C 396.5,93.8333 396.5,98.1667 396.5,102.5C 398.167,102.5 399.833,102.5 401.5,102.5C 401.5,104.167 401.5,105.833 401.5,107.5C 399.833,107.5 398.167,107.5 396.5,107.5C 396.5,110.5 396.5,113.5 396.5,116.5C 397.833,116.5 399.167,116.5 400.5,116.5C 400.5,118.167 400.5,119.833 400.5,121.5C 398.833,121.5 397.167,121.5 395.5,121.5C 394.896,128.818 390.896,131.818 383.5,130.5C 383.714,128.856 383.38,127.356 382.5,126C 384.5,125.667 386.5,125.333 388.5,125C 389.337,123.989 389.67,122.822 389.5,121.5C 382.5,121.5 375.5,121.5 368.5,121.5C 368.241,125.068 366.241,126.401 362.5,125.5C 362.669,120.819 363.002,116.152 363.5,111.5C 364.451,110.081 364.784,108.415 364.5,106.5C 362.5,106.5 360.5,106.5 358.5,106.5C 358.5,105.167 358.5,103.833 358.5,102.5C 360.735,102.795 362.735,102.461 364.5,101.5C 365.021,97.5191 365.354,93.5191 365.5,89.5 Z"/></g><g><path style="opacity:1" fill="#2b2728" d="M 345.5,90.5 C 348.852,91.0084 351.852,92.3418 354.5,94.5C 353.5,95.8333 352.5,97.1667 351.5,98.5C 348.497,97.3338 345.83,95.6672 343.5,93.5C 344.193,92.4822 344.859,91.4822 345.5,90.5 Z"/></g><g><path style="opacity:1" fill="#444142" d="M 453.5,89.5 C 450.375,90.4794 447.042,90.8128 443.5,90.5C 443.5,100.5 443.5,110.5 443.5,120.5C 443.167,120.5 442.833,120.5 442.5,120.5C 442.5,110.167 442.5,99.8333 442.5,89.5C 446.167,89.5 449.833,89.5 453.5,89.5 Z"/></g><g><path style="opacity:1" fill="#b8b7b7" d="M 593.5,90.5 C 594.5,90.5 595.5,90.5 596.5,90.5C 606.167,91.1667 615.833,91.8333 625.5,92.5C 610.167,92.5 594.833,92.5 579.5,92.5C 584.167,91.8333 588.833,91.1667 593.5,90.5 Z"/></g><g><path style="opacity:1" fill="#fefefe" d="M 370.5,94.5 C 372.5,94.5 374.5,94.5 376.5,94.5C 376.5,96.8333 376.5,99.1667 376.5,101.5C 374.5,101.5 372.5,101.5 370.5,101.5C 370.5,99.1667 370.5,96.8333 370.5,94.5 Z"/></g><g><path style="opacity:1" fill="#b1b0b0" d="M 370.5,94.5 C 372.607,93.5318 374.941,93.1984 377.5,93.5C 377.5,96.5 377.5,99.5 377.5,102.5C 374.941,102.802 372.607,102.468 370.5,101.5C 372.5,101.5 374.5,101.5 376.5,101.5C 376.5,99.1667 376.5,96.8333 376.5,94.5C 374.5,94.5 372.5,94.5 370.5,94.5 Z"/></g><g><path style="opacity:1" fill="#262223" d="M 421.5,96.5 C 425.833,96.5 430.167,96.5 434.5,96.5C 434.186,104.087 434.519,111.587 435.5,119C 438.376,121.437 441.71,122.77 445.5,123C 456.833,123.333 468.167,123.667 479.5,124C 478.594,125.699 478.261,127.533 478.5,129.5C 466.829,129.667 455.162,129.5 443.5,129C 439.806,127.802 436.472,125.968 433.5,123.5C 430.167,125.833 426.833,128.167 423.5,130.5C 420.896,128.793 420.23,126.626 421.5,124C 423.746,122.961 425.913,121.794 428,120.5C 428.5,114.175 428.666,107.842 428.5,101.5C 426.167,101.5 423.833,101.5 421.5,101.5C 421.5,99.8333 421.5,98.1667 421.5,96.5 Z"/></g><g><path style="opacity:1" fill="#737272" d="M 448.5,97.5 C 447.566,96.4324 447.232,95.099 447.5,93.5C 454.833,93.5 462.167,93.5 469.5,93.5C 469.5,95.1667 469.5,96.8333 469.5,98.5C 462.313,98.8245 455.313,98.4912 448.5,97.5 Z"/></g><g><path style="opacity:1" fill="#fefffe" d="M 448.5,97.5 C 448.5,96.5 448.5,95.5 448.5,94.5C 455.167,94.5 461.833,94.5 468.5,94.5C 468.5,95.5 468.5,96.5 468.5,97.5C 461.833,97.5 455.167,97.5 448.5,97.5 Z"/></g><g><path style="opacity:1" fill="#b3b2b3" d="M 382.5,93.5 C 385.5,93.5 388.5,93.5 391.5,93.5C 391.5,96.5 391.5,99.5 391.5,102.5C 388.5,102.5 385.5,102.5 382.5,102.5C 382.5,99.5 382.5,96.5 382.5,93.5 Z"/></g><g><path style="opacity:1" fill="#fefffe" d="M 383.5,94.5 C 385.833,94.5 388.167,94.5 390.5,94.5C 390.5,96.8333 390.5,99.1667 390.5,101.5C 388.167,101.5 385.833,101.5 383.5,101.5C 383.5,99.1667 383.5,96.8333 383.5,94.5 Z"/></g><g><path style="opacity:1" fill="#979696" d="M 448.5,101.5 C 448.5,102.833 448.5,104.167 448.5,105.5C 455.167,105.5 461.833,105.5 468.5,105.5C 468.5,104.167 468.5,102.833 468.5,101.5C 469.451,102.919 469.784,104.585 469.5,106.5C 462.167,106.5 454.833,106.5 447.5,106.5C 447.216,104.585 447.549,102.919 448.5,101.5 Z"/></g><g><path style="opacity:1" fill="#f4f4f4" d="M 448.5,101.5 C 455.167,101.5 461.833,101.5 468.5,101.5C 468.5,102.833 468.5,104.167 468.5,105.5C 461.833,105.5 455.167,105.5 448.5,105.5C 448.5,104.167 448.5,102.833 448.5,101.5 Z"/></g><g><path style="opacity:1" fill="#252122" d="M 579.5,92.5 C 594.833,92.5 610.167,92.5 625.5,92.5C 625.5,97.5 625.5,102.5 625.5,107.5C 622.167,107.5 618.833,107.5 615.5,107.5C 615.5,108.5 615.5,109.5 615.5,110.5C 619.298,111.483 623.298,111.817 627.5,111.5C 627.5,112.5 627.5,113.5 627.5,114.5C 623.298,114.183 619.298,114.517 615.5,115.5C 615.5,116.5 615.5,117.5 615.5,118.5C 620.5,118.5 625.5,118.5 630.5,118.5C 630.5,119.833 630.5,121.167 630.5,122.5C 612.276,121.761 612.276,123.428 630.5,127.5C 629.605,129.307 628.272,130.64 626.5,131.5C 620.548,130.294 614.881,128.294 609.5,125.5C 608.289,124.726 608.289,123.893 609.5,123C 603.833,122.333 598.167,122.333 592.5,123C 592.957,123.414 593.291,123.914 593.5,124.5C 588.288,127.184 582.788,129.184 577,130.5C 574.283,130.046 573.45,128.712 574.5,126.5C 578.578,125.641 582.578,124.474 586.5,123C 581.845,122.501 577.179,122.334 572.5,122.5C 572.5,121.167 572.5,119.833 572.5,118.5C 578.167,118.5 583.833,118.5 589.5,118.5C 589.5,117.5 589.5,116.5 589.5,115.5C 584.833,115.5 580.167,115.5 575.5,115.5C 575.5,114.167 575.5,112.833 575.5,111.5C 580.167,111.5 584.833,111.5 589.5,111.5C 589.5,110.167 589.5,108.833 589.5,107.5C 586.167,107.5 582.833,107.5 579.5,107.5C 579.5,102.5 579.5,97.5 579.5,92.5 Z"/></g><g><path style="opacity:1" fill="#d6d6d6" d="M 604.5,101.5 C 609.5,101.5 614.5,101.5 619.5,101.5C 619.5,102.5 619.5,103.5 619.5,104.5C 614.5,104.5 609.5,104.5 604.5,104.5C 604.5,103.5 604.5,102.5 604.5,101.5 Z"/></g><g><path style="opacity:1" fill="#d0d0d0" d="M 585.5,101.5 C 590.167,101.5 594.833,101.5 599.5,101.5C 599.5,102.5 599.5,103.5 599.5,104.5C 594.833,104.5 590.167,104.5 585.5,104.5C 585.5,103.5 585.5,102.5 585.5,101.5 Z"/></g><g><path style="opacity:1" fill="#d9d8d8" d="M 585.5,95.5 C 590.167,95.5 594.833,95.5 599.5,95.5C 599.5,96.5 599.5,97.5 599.5,98.5C 594.833,98.5 590.167,98.5 585.5,98.5C 585.5,97.5 585.5,96.5 585.5,95.5 Z"/></g><g><path style="opacity:1" fill="#e7e6e7" d="M 604.5,95.5 C 609.5,95.5 614.5,95.5 619.5,95.5C 619.5,96.5 619.5,97.5 619.5,98.5C 614.5,98.5 609.5,98.5 604.5,98.5C 604.5,97.5 604.5,96.5 604.5,95.5 Z"/></g><g><path style="opacity:1" fill="#f5f5f5" d="M 369.5,107.5 C 371.833,107.5 374.167,107.5 376.5,107.5C 376.5,110.5 376.5,113.5 376.5,116.5C 374.167,116.5 371.833,116.5 369.5,116.5C 369.5,113.5 369.5,110.5 369.5,107.5 Z"/></g><g><path style="opacity:1" fill="#f3f3f3" d="M 381.5,107.5 C 384.5,107.5 387.5,107.5 390.5,107.5C 390.5,110.5 390.5,113.5 390.5,116.5C 387.5,116.5 384.5,116.5 381.5,116.5C 381.5,113.5 381.5,110.5 381.5,107.5 Z"/></g><g><path style="opacity:1" fill="#f3f2f2" d="M 609.5,107.5 C 609.5,108.5 609.5,109.5 609.5,110.5C 604.833,110.5 600.167,110.5 595.5,110.5C 595.5,109.5 595.5,108.5 595.5,107.5C 600.167,107.5 604.833,107.5 609.5,107.5 Z"/></g><g><path style="opacity:1" fill="#272425" d="M 352.5,107.5 C 354.645,107.738 356.312,108.738 357.5,110.5C 354.422,116.991 351.088,123.325 347.5,129.5C 345.435,129.047 343.768,128.047 342.5,126.5C 346.101,120.298 349.434,113.964 352.5,107.5 Z"/></g><g><path style="opacity:1" fill="#797778" d="M 364.5,101.5 C 362.735,102.461 360.735,102.795 358.5,102.5C 358.5,103.833 358.5,105.167 358.5,106.5C 360.5,106.5 362.5,106.5 364.5,106.5C 364.784,108.415 364.451,110.081 363.5,111.5C 363.5,110.167 363.5,108.833 363.5,107.5C 361.5,107.5 359.5,107.5 357.5,107.5C 357.5,105.5 357.5,103.5 357.5,101.5C 359.833,101.5 362.167,101.5 364.5,101.5 Z"/></g><g><path style="opacity:1" fill="#8e8c8d" d="M 609.5,107.5 C 610.434,108.568 610.768,109.901 610.5,111.5C 605.305,111.821 600.305,111.487 595.5,110.5C 600.167,110.5 604.833,110.5 609.5,110.5C 609.5,109.5 609.5,108.5 609.5,107.5 Z"/></g><g><path style="opacity:1" fill="#8f8e8e" d="M 448.5,110.5 C 455.313,109.509 462.313,109.175 469.5,109.5C 469.5,111.167 469.5,112.833 469.5,114.5C 462.167,114.5 454.833,114.5 447.5,114.5C 447.232,112.901 447.566,111.568 448.5,110.5 Z"/></g><g><path style="opacity:1" fill="#fefffe" d="M 448.5,110.5 C 455.167,110.5 461.833,110.5 468.5,110.5C 468.5,111.5 468.5,112.5 468.5,113.5C 461.833,113.5 455.167,113.5 448.5,113.5C 448.5,112.5 448.5,111.5 448.5,110.5 Z"/></g><g><path style="opacity:1" fill="#7a7878" d="M 615.5,110.5 C 619.833,110.5 624.167,110.5 628.5,110.5C 628.5,112.167 628.5,113.833 628.5,115.5C 624.167,115.5 619.833,115.5 615.5,115.5C 619.298,114.517 623.298,114.183 627.5,114.5C 627.5,113.5 627.5,112.5 627.5,111.5C 623.298,111.817 619.298,111.483 615.5,110.5 Z"/></g><g><path style="opacity:1" fill="#dad9da" d="M 595.5,115.5 C 600.5,115.5 605.5,115.5 610.5,115.5C 610.5,116.5 610.5,117.5 610.5,118.5C 605.5,118.5 600.5,118.5 595.5,118.5C 595.5,117.5 595.5,116.5 595.5,115.5 Z"/></g><g><path style="opacity:1" fill="#b1b1b1" d="M 474.5,120.5 C 463.833,119.167 453.167,119.167 442.5,120.5C 442.833,120.5 443.167,120.5 443.5,120.5C 453.817,117.891 464.151,117.891 474.5,120.5 Z"/></g><g><path style="opacity:1" fill="#232021" d="M 793.5,385.5 C 784.528,386.347 775.528,386.68 766.5,386.5C 735.949,380.787 715.782,363.121 706,333.5C 699.004,308.065 700.338,283.065 710,258.5C 720.359,231.143 737.192,208.643 760.5,191C 776.824,179.947 794.824,173.781 814.5,172.5C 846.19,173.346 868.356,188.346 881,217.5C 889.891,242.44 890.891,267.774 884,293.5C 874.812,325.682 856.645,351.515 829.5,371C 818.274,377.781 806.274,382.614 793.5,385.5 Z"/></g><g><path style="opacity:1" fill="#696767" d="M 596.5,204.5 C 592.684,205.482 588.684,206.149 584.5,206.5C 588.183,204.75 592.183,204.083 596.5,204.5 Z"/></g><g><path style="opacity:1" fill="#232021" d="M 596.5,204.5 C 635.064,200.245 658.897,216.912 668,254.5C 673.098,290.445 665.431,323.445 645,353.5C 625.863,375.656 601.696,388.823 572.5,393C 554.44,393.684 536.44,394.851 518.5,396.5C 514.5,396.5 510.5,396.5 506.5,396.5C 506.5,395.5 506.5,394.5 506.5,393.5C 513.048,348.21 519.381,302.877 525.5,257.5C 527.561,251.804 528.561,245.804 528.5,239.5C 528.978,230.832 530.312,222.332 532.5,214C 549.686,210.807 567.019,208.307 584.5,206.5C 588.684,206.149 592.684,205.482 596.5,204.5 Z"/></g><g><path style="opacity:1" fill="#fdfdfd" d="M 796.5,211.5 C 821.555,207.773 839.055,217.439 849,240.5C 855.693,261.509 854.693,282.176 846,302.5C 837.51,323.989 822.677,339.155 801.5,348C 772.325,356.657 751.825,347.157 740,319.5C 733.14,287.472 740.14,258.805 761,233.5C 770.954,223.029 782.787,215.696 796.5,211.5 Z"/></g><g><path style="opacity:1" fill="#232021" d="M 308.5,410.5 C 300.178,411.055 291.844,411.388 283.5,411.5C 283.5,410.5 283.5,409.5 283.5,408.5C 292.193,354.392 301.527,300.392 311.5,246.5C 320.774,244.732 330.108,243.399 339.5,242.5C 343.79,242.802 347.79,242.136 351.5,240.5C 366.742,237.323 382.076,236.823 397.5,239C 416.2,244.866 425.2,257.699 424.5,277.5C 423.221,308.061 408.887,329.728 381.5,342.5C 394.833,362.5 408.167,382.5 421.5,402.5C 408.52,403.977 395.52,404.81 382.5,405C 365.958,378.749 349.292,352.582 332.5,326.5C 345.671,325.874 358.337,323.04 370.5,318C 390.257,307.847 396.257,292.514 388.5,272C 380.577,266.863 371.911,265.197 362.5,267C 354.184,267.426 346.017,268.593 338,270.5C 329.629,317.059 321.796,363.726 314.5,410.5C 312.5,410.5 310.5,410.5 308.5,410.5 Z"/></g><g><path style="opacity:1" fill="#fdfdfd" d="M 556.5,280.5 C 557.889,275.731 558.556,270.731 558.5,265.5C 559.255,257.796 560.255,250.13 561.5,242.5C 573.32,241.016 585.153,239.683 597,238.5C 615.216,237.091 627.549,244.758 634,261.5C 638.562,288.391 633.229,313.058 618,335.5C 605.414,349.877 589.581,358.043 570.5,360C 562.165,360.542 553.831,361.042 545.5,361.5C 548.444,334.267 552.111,307.267 556.5,280.5 Z"/></g><g><path style="opacity:1" fill="#6f6d6d" d="M 351.5,240.5 C 347.79,242.136 343.79,242.802 339.5,242.5C 343.295,241.383 347.295,240.717 351.5,240.5 Z"/></g><g><path style="opacity:1" fill="#686565" d="M 528.5,239.5 C 528.561,245.804 527.561,251.804 525.5,257.5C 525.957,251.28 526.957,245.28 528.5,239.5 Z"/></g><g><path style="opacity:1" fill="#242122" d="M 213.5,416.5 C 210.833,416.5 208.167,416.5 205.5,416.5C 205.5,414.833 205.5,413.167 205.5,411.5C 215.411,359.88 225.078,308.213 234.5,256.5C 244.857,255.72 255.19,254.72 265.5,253.5C 256.085,307.235 246.252,360.902 236,414.5C 228.587,415.596 221.087,416.263 213.5,416.5 Z"/></g><g><path style="opacity:1" fill="#232021" d="M 131.5,381.5 C 129.952,380.206 127.952,379.539 125.5,379.5C 120.624,379.69 115.957,380.357 111.5,381.5C 98.4032,381.829 85.4032,382.995 72.5,385C 63.0428,398.747 53.7095,412.58 44.5,426.5C 33.1802,427.652 21.8469,428.152 10.5,428C 43.918,376.496 77.5847,325.162 111.5,274C 119.172,273.197 126.839,272.363 134.5,271.5C 135.5,271.833 136.5,272.167 137.5,272.5C 150.303,321.378 162.636,370.378 174.5,419.5C 163.491,419.825 152.491,419.992 141.5,420C 138.103,407.183 134.77,394.35 131.5,381.5 Z"/></g><g><path style="opacity:1" fill="#aba9aa" d="M 558.5,265.5 C 558.556,270.731 557.889,275.731 556.5,280.5C 556.444,275.269 557.111,270.269 558.5,265.5 Z"/></g><g><path style="opacity:1" fill="#f7f7f7" d="M 116.5,311.5 C 120.218,325.519 122.884,339.852 124.5,354.5C 113.215,356.497 101.882,357.164 90.5,356.5C 99.431,341.636 108.098,326.636 116.5,311.5 Z"/></g><g><path style="opacity:1" fill="#b4b3b4" d="M 131.5,381.5 C 124.906,380.685 118.24,380.685 111.5,381.5C 115.957,380.357 120.624,379.69 125.5,379.5C 127.952,379.539 129.952,380.206 131.5,381.5 Z"/></g><g><path style="opacity:1" fill="#858283" d="M 793.5,385.5 C 788.599,387.052 783.432,387.719 778,387.5C 773.985,387.499 770.151,387.165 766.5,386.5C 775.528,386.68 784.528,386.347 793.5,385.5 Z"/></g><g><path style="opacity:1" fill="#acabab" d="M 506.5,393.5 C 506.5,394.5 506.5,395.5 506.5,396.5C 510.5,396.5 514.5,396.5 518.5,396.5C 514.366,397.485 510.032,397.818 505.5,397.5C 505.232,395.901 505.566,394.568 506.5,393.5 Z"/></g><g><path style="opacity:1" fill="#b4b2b3" d="M 283.5,408.5 C 283.5,409.5 283.5,410.5 283.5,411.5C 291.844,411.388 300.178,411.055 308.5,410.5C 300.067,412.246 291.4,412.912 282.5,412.5C 282.232,410.901 282.566,409.568 283.5,408.5 Z"/></g><g><path style="opacity:1" fill="#7c7a7a" d="M 205.5,411.5 C 205.5,413.167 205.5,414.833 205.5,416.5C 208.167,416.5 210.833,416.5 213.5,416.5C 210.713,417.477 207.713,417.81 204.5,417.5C 204.205,415.265 204.539,413.265 205.5,411.5 Z"/></g></svg>
