<svg version="1.0" xmlns="http://www.w3.org/2000/svg" width="223.000000pt" height="29.000000pt" viewBox="0 0 223.000000 29.000000" preserveAspectRatio="xMidYMid meet"><g transform="translate(0.000000,29.000000) scale(0.100000,-0.100000)" fill="#000000" stroke="none"><path d="M719 259 c-23 -19 -23 -20 -2 -10 60 29 46 -15 -16 -51 -28 -16 -44 -36 -59 -71 -28 -65 -17 -97 32 -97 l35 0 -19 55 -19 55 50 50 c47 47 64 90 35 90 -8 0 -24 -9 -37 -21z"/><path d="M119 203 c-18 -27 -52 -76 -77 -110 l-44 -63 36 0 c28 0 38 6 53 30 14 24 24 30 50 30 30 0 33 -3 33 -30 0 -27 3 -30 30 -30 l30 0 0 110 0 110 -40 0 c-35 0 -42 -4 -71 -47z m51 -53 c0 -23 -4 -30 -20 -30 -24 0 -25 8 -4 38 20 29 24 28 24 -8z"/><path d="M307 243 c-3 -5 -12 -33 -21 -63 -9 -30 -22 -76 -30 -102 l-15 -48 29 0 c27 0 31 5 47 58 l18 57 3 -57 c3 -53 5 -58 26 -58 17 0 30 12 50 50 34 63 50 73 31 19 -21 -57 -19 -69 9 -69 22 0 28 10 57 98 17 53 34 103 37 110 3 8 -9 12 -39 12 -43 0 -45 -1 -79 -61 l-35 -61 -3 61 -3 61 -39 0 c-21 0 -41 -3 -43 -7z"/><path d="M570 241 c0 -5 7 -28 15 -52 l16 -43 -34 -31 c-45 -42 -71 -81 -63 -100 8 -21 21 -19 53 11 l28 26 -28 -17 c-16 -9 -31 -14 -34 -12 -7 8 26 54 52 71 12 8 34 36 48 61 33 59 24 95 -23 95 -16 0 -30 -4 -30 -9z"/><path d="M792 98 c-22 -52 -22 -72 0 -50 15 15 55 16 63 2 3 -5 15 -10 26 -10 15 0 19 7 20 38 l1 37 12 -34 c17 -47 32 -49 50 -9 l14 33 1 -32 c1 -18 6 -33 12 -33 14 0 7 102 -8 107 -7 3 -17 -13 -24 -36 -7 -23 -15 -41 -19 -41 -4 0 -12 18 -19 40 -18 60 -41 53 -42 -12 l0 -53 -24 53 c-13 28 -28 52 -32 52 -5 0 -19 -23 -31 -52z m48 -10 c0 -5 -7 -8 -15 -8 -15 0 -20 21 -8 33 7 7 23 -11 23 -25z"/><path d="M1030 108 c-23 -50 -27 -79 -8 -60 16 16 65 15 71 0 2 -7 7 -11 10 -8 8 8 -33 110 -44 110 -6 0 -19 -19 -29 -42z m40 -14 c0 -8 -7 -14 -15 -14 -17 0 -18 2 -9 24 7 18 24 12 24 -10z"/><path d="M1123 95 c0 -33 2 -50 4 -37 5 27 15 28 38 2 10 -11 24 -20 32 -20 8 0 2 10 -14 24 l-28 24 24 26 c14 14 21 29 17 33 -4 5 -18 -4 -30 -19 -12 -16 -25 -28 -28 -28 -4 0 -9 12 -11 28 -2 15 -4 0 -4 -33z"/><path d="M1224 100 l1 -55 40 0 40 0 3 53 c2 36 0 52 -7 47 -6 -3 -11 -26 -11 -51 0 -44 -1 -45 -27 -42 -25 3 -29 8 -34 53 l-6 50 1 -55z"/><path d="M1331 136 c-16 -19 -3 -46 24 -46 24 0 49 -22 38 -33 -11 -12 -51 -8 -56 6 -2 6 -8 9 -12 4 -15 -14 12 -29 46 -25 29 2 34 7 34 28 0 21 -5 26 -32 28 -21 2 -33 9 -33 18 0 17 47 19 53 2 2 -7 8 -10 12 -6 12 12 -15 38 -40 38 -12 0 -28 -6 -34 -14z"/><path d="M1442 98 c-11 -29 -18 -55 -15 -58 3 -3 8 1 10 8 3 6 17 12 33 12 16 0 30 -6 33 -12 2 -7 7 -10 11 -7 9 9 -26 101 -41 106 -6 2 -20 -19 -31 -49z m48 -10 c0 -5 -9 -8 -20 -8 -18 0 -19 3 -9 21 9 17 13 19 20 8 5 -8 9 -17 9 -21z"/><path d="M1597 117 c-25 -58 -29 -77 -18 -77 6 0 11 5 11 10 0 15 58 12 63 -2 2 -7 7 -10 11 -7 9 8 -28 102 -42 107 -6 2 -18 -12 -25 -31z m36 -17 c4 -15 0 -20 -14 -20 -17 0 -18 3 -9 20 6 11 12 20 14 20 2 0 6 -9 9 -20z"/><path d="M1680 95 c0 -30 5 -55 10 -55 6 0 10 25 10 55 0 30 -4 55 -10 55 -5 0 -10 -25 -10 -55z"/><path d="M1721 93 c0 -45 2 -53 9 -35 6 15 18 22 35 22 19 0 25 -5 26 -22 1 -13 5 -5 8 17 9 56 -2 75 -44 75 l-35 0 1 -57z m69 21 c0 -11 -8 -14 -27 -12 -39 4 -42 28 -4 28 21 0 31 -5 31 -16z"/><path d="M1820 97 l0 -57 50 0 50 0 0 55 c0 30 -4 55 -10 55 -5 0 -10 -23 -10 -51 l0 -50 -32 3 c-31 3 -33 5 -34 45 -1 65 -14 64 -14 0z"/><path d="M1942 93 l1 -58 6 45 6 45 24 -42 c35 -61 51 -56 49 15 l-1 57 -6 -50 -6 -50 -28 48 c-15 26 -32 47 -37 47 -6 0 -9 -26 -8 -57z"/><path d="M2047 143 c-4 -3 -7 -28 -7 -55 l0 -48 88 2 c85 3 87 3 87 28 0 21 -5 26 -32 28 -21 2 -33 9 -33 18 0 17 47 19 53 2 2 -7 8 -10 12 -6 12 12 -15 38 -40 38 -26 0 -49 -24 -42 -43 3 -8 19 -17 36 -20 38 -8 43 -37 7 -37 -13 0 -27 6 -30 13 -5 10 -7 9 -12 0 -3 -7 -21 -13 -41 -13 -27 0 -34 4 -31 17 2 10 16 21 33 24 l30 7 -32 1 c-48 2 -45 31 2 31 19 0 35 5 35 10 0 11 -73 14 -83 3z"/></g></svg>
