<svg xmlns="http://www.w3.org/2000/svg" version="1.1" width="1024px" height="259px" style="shape-rendering:geometricPrecision; text-rendering:geometricPrecision; image-rendering:optimizeQuality; fill-rule:evenodd; clip-rule:evenodd" xmlns:xlink="http://www.w3.org/1999/xlink"><g><path style="opacity:1" fill="#fefefe" d="M -0.5,-0.5 C 340.833,-0.5 682.167,-0.5 1023.5,-0.5C 1023.5,85.8333 1023.5,172.167 1023.5,258.5C 682.167,258.5 340.833,258.5 -0.5,258.5C -0.5,172.167 -0.5,85.8333 -0.5,-0.5 Z"/></g><g><path style="opacity:1" fill="#efb9bf" d="M 151.5,60.5 C 146.331,61.3809 140.998,62.0475 135.5,62.5C 135.918,61.7784 136.584,61.2784 137.5,61C 142.155,60.5008 146.821,60.3342 151.5,60.5 Z"/></g><g><path style="opacity:1" fill="#e67783" d="M 151.5,60.5 C 157.937,61.0489 164.27,62.2155 170.5,64C 174.762,66.681 177.429,70.5143 178.5,75.5C 178.657,76.8734 178.49,78.2068 178,79.5C 177.098,72.9363 173.598,68.4363 167.5,66C 165.741,65.2025 164.074,65.3691 162.5,66.5C 164.667,70.1667 166.833,73.8333 169,77.5C 169.465,81.696 168.798,85.696 167,89.5C 165.59,90.7875 164.09,91.9542 162.5,93C 163.262,95.6546 162.262,97.6546 159.5,99C 149.66,102.113 140.66,100.613 132.5,94.5C 129.548,86.4915 129.881,78.6582 133.5,71C 131.19,70.5034 128.857,70.3367 126.5,70.5C 122.7,70.7939 120.2,72.7939 119,76.5C 118.517,75.552 118.351,74.552 118.5,73.5C 120.599,68.2693 124.599,65.7693 130.5,66C 132.346,64.9702 134.013,63.8036 135.5,62.5C 140.998,62.0475 146.331,61.3809 151.5,60.5 Z"/></g><g><path style="opacity:1" fill="#e36777" d="M 147.5,68.5 C 151.852,68.3574 155.852,69.3574 159.5,71.5C 160.958,74.3123 161.958,77.3123 162.5,80.5C 162.289,84.1279 161.289,87.4613 159.5,90.5C 156.053,91.8791 152.386,92.5458 148.5,92.5C 140.698,91.529 136.365,87.029 135.5,79C 136.676,76.3145 138.343,73.9812 140.5,72C 140.167,71.6667 139.833,71.3333 139.5,71C 142.508,71.6832 145.174,70.8498 147.5,68.5 Z"/></g><g><path style="opacity:1" fill="#ec9ba3" d="M 126.5,70.5 C 122.438,80.6644 124.105,89.6644 131.5,97.5C 135.744,101.118 140.41,103.951 145.5,106C 144.663,107.011 144.33,108.178 144.5,109.5C 140.316,110.296 137.15,108.963 135,105.5C 134.51,106.793 134.343,108.127 134.5,109.5C 132.5,109.5 130.5,109.5 128.5,109.5C 128.5,109.167 128.5,108.833 128.5,108.5C 129.833,108.5 131.167,108.5 132.5,108.5C 132.261,106.533 132.594,104.699 133.5,103C 124.972,96.9477 120.639,88.6144 120.5,78C 120.167,77.8333 119.833,77.6667 119.5,77.5C 118.867,80.5129 117.867,83.3462 116.5,86C 119.11,89.2943 118.943,92.4609 116,95.5C 115.667,94.5 115.333,93.5 115,92.5C 114.764,94.1193 113.931,95.1193 112.5,95.5C 112.801,87.6052 114.801,80.2718 118.5,73.5C 118.351,74.552 118.517,75.552 119,76.5C 120.2,72.7939 122.7,70.7939 126.5,70.5 Z"/></g><g><path style="opacity:1" fill="#e98f97" d="M 178.5,75.5 C 179.19,80.233 179.856,85.0664 180.5,90C 188.666,89.1821 196.666,89.6821 204.5,91.5C 200.61,91.7275 196.776,91.3942 193,90.5C 192.5,90.8333 192,91.1667 191.5,91.5C 195.192,92.2525 198.858,93.0858 202.5,94C 201.552,94.4828 200.552,94.6495 199.5,94.5C 200.063,101.361 201.563,108.028 204,114.5C 206.622,118.69 209.955,122.357 214,125.5C 214.908,129.489 214.241,133.155 212,136.5C 211.184,137.823 210.017,138.489 208.5,138.5C 209.974,136.073 209.807,133.74 208,131.5C 197.904,120.961 192.404,108.295 191.5,93.5C 189.473,93.6621 187.473,93.4955 185.5,93C 188.937,92.3507 189.104,91.8507 186,91.5C 181.948,93.0716 178.281,92.4049 175,89.5C 172.451,92.765 170.284,96.265 168.5,100C 168.836,101.03 169.503,101.53 170.5,101.5C 168.468,102.907 166.301,104.24 164,105.5C 164.343,109.809 164.843,114.142 165.5,118.5C 165.5,119.167 165.167,119.5 164.5,119.5C 164.5,118.5 164.5,117.5 164.5,116.5C 163.5,116.5 162.5,116.5 161.5,116.5C 161.5,114.833 161.5,113.167 161.5,111.5C 162.434,110.432 162.768,109.099 162.5,107.5C 160.119,108.42 157.786,108.42 155.5,107.5C 154.708,109.465 154.041,111.465 153.5,113.5C 153.043,114.298 152.376,114.631 151.5,114.5C 153.293,111.741 153.793,108.741 153,105.5C 146.252,104.778 144.086,107.778 146.5,114.5C 144.744,113.448 144.077,111.781 144.5,109.5C 144.33,108.178 144.663,107.011 145.5,106C 140.41,103.951 135.744,101.118 131.5,97.5C 124.105,89.6644 122.438,80.6644 126.5,70.5C 128.857,70.3367 131.19,70.5034 133.5,71C 129.881,78.6582 129.548,86.4915 132.5,94.5C 140.66,100.613 149.66,102.113 159.5,99C 162.262,97.6546 163.262,95.6546 162.5,93C 164.09,91.9542 165.59,90.7875 167,89.5C 168.798,85.696 169.465,81.696 169,77.5C 166.833,73.8333 164.667,70.1667 162.5,66.5C 164.074,65.3691 165.741,65.2025 167.5,66C 173.598,68.4363 177.098,72.9363 178,79.5C 178.49,78.2068 178.657,76.8734 178.5,75.5 Z"/></g><g><path style="opacity:1" fill="#f3bbc1" d="M 183.5,123.5 C 182.116,121.002 180.116,119.002 177.5,117.5C 176.482,118.193 175.482,118.859 174.5,119.5C 174.5,118.833 174.5,118.167 174.5,117.5C 175.156,116.378 175.489,115.045 175.5,113.5C 174.017,108.975 173.351,104.309 173.5,99.5C 173.616,95.725 175.616,94.0583 179.5,94.5C 179.999,98.4899 180.499,102.49 181,106.5C 182.813,111.091 184.313,115.758 185.5,120.5C 187.346,120.222 188.68,120.889 189.5,122.5C 187.604,123.466 185.604,123.799 183.5,123.5 Z"/></g><g><path style="opacity:1" fill="#e16072" d="M 207.5,92.5 C 210.179,93.2261 212.846,94.0594 215.5,95C 219.7,98.1689 223.533,101.669 227,105.5C 227.425,112.805 226.092,119.805 223,126.5C 222.292,127.381 221.458,128.047 220.5,128.5C 219.5,128.5 218.5,128.5 217.5,128.5C 218.509,125.473 218.509,122.473 217.5,119.5C 211.352,113.87 207.852,106.87 207,98.5C 205.708,96.7513 204.542,94.918 203.5,93C 204.793,92.51 206.127,92.3433 207.5,92.5 Z"/></g><g><path style="opacity:1" fill="#efa5ab" d="M 208.5,138.5 C 203.974,138.335 199.641,138.168 195.5,138C 192.759,134.659 190.426,131.159 188.5,127.5C 188.38,126.414 187.713,125.747 186.5,125.5C 183.752,126.64 181.085,127.974 178.5,129.5C 174.687,130.167 171.021,130.834 167.5,131.5C 165.821,131.715 164.821,131.048 164.5,129.5C 166.288,129.785 167.955,129.452 169.5,128.5C 170.791,127.473 170.791,126.473 169.5,125.5C 170.833,125.5 171.5,124.833 171.5,123.5C 172.158,124.398 172.824,125.398 173.5,126.5C 176.039,122.7 179.372,121.7 183.5,123.5C 185.604,123.799 187.604,123.466 189.5,122.5C 188.68,120.889 187.346,120.222 185.5,120.5C 184.313,115.758 182.813,111.091 181,106.5C 180.499,102.49 179.999,98.4899 179.5,94.5C 175.616,94.0583 173.616,95.725 173.5,99.5C 173.631,98.6236 173.298,97.9569 172.5,97.5C 171.638,98.7658 170.971,100.099 170.5,101.5C 169.503,101.53 168.836,101.03 168.5,100C 170.284,96.265 172.451,92.765 175,89.5C 178.281,92.4049 181.948,93.0716 186,91.5C 189.104,91.8507 188.937,92.3507 185.5,93C 187.473,93.4955 189.473,93.6621 191.5,93.5C 192.404,108.295 197.904,120.961 208,131.5C 209.807,133.74 209.974,136.073 208.5,138.5 Z"/></g><g><path style="opacity:1" fill="#e26374" d="M 79.5,141.5 C 72.3567,133.884 69.1901,124.884 70,114.5C 72.4349,111.066 74.4349,107.4 76,103.5C 77.9719,101.768 80.1386,100.435 82.5,99.5C 86.819,98.2904 91.1524,98.2904 95.5,99.5C 90.3183,100.776 90.3183,101.443 95.5,101.5C 95.6495,102.552 95.4828,103.552 95,104.5C 83.2177,115.598 79.551,128.598 84,143.5C 82.6703,142.418 81.1703,141.751 79.5,141.5 Z"/></g><g><path style="opacity:1" fill="#e67b87" d="M 173.5,99.5 C 173.351,104.309 174.017,108.975 175.5,113.5C 175.489,115.045 175.156,116.378 174.5,117.5C 174.5,115.5 174.5,113.5 174.5,111.5C 172.08,111.292 169.747,111.626 167.5,112.5C 166.831,114.631 166.165,116.631 165.5,118.5C 164.843,114.142 164.343,109.809 164,105.5C 166.301,104.24 168.468,102.907 170.5,101.5C 170.971,100.099 171.638,98.7658 172.5,97.5C 173.298,97.9569 173.631,98.6236 173.5,99.5 Z"/></g><g><path style="opacity:1" fill="#b41737" d="M 151.5,114.5 C 149.833,114.5 148.167,114.5 146.5,114.5C 144.086,107.778 146.252,104.778 153,105.5C 153.793,108.741 153.293,111.741 151.5,114.5 Z"/></g><g><path style="opacity:1" fill="#b21937" d="M 128.5,109.5 C 130.5,109.5 132.5,109.5 134.5,109.5C 137.267,112.786 136.934,115.786 133.5,118.5C 128.582,118.828 126.582,116.495 127.5,111.5C 127.328,110.508 127.662,109.842 128.5,109.5 Z"/></g><g><path style="opacity:1" fill="#eeb4bb" d="M 144.5,109.5 C 144.077,111.781 144.744,113.448 146.5,114.5C 148.167,114.5 149.833,114.5 151.5,114.5C 152.376,114.631 153.043,114.298 153.5,113.5C 154.041,111.465 154.708,109.465 155.5,107.5C 157.786,108.42 160.119,108.42 162.5,107.5C 162.768,109.099 162.434,110.432 161.5,111.5C 160.833,108.833 160.167,108.833 159.5,111.5C 158.396,116.215 155.396,118.215 150.5,117.5C 150.829,120.228 150.163,122.562 148.5,124.5C 148.5,123.833 148.167,123.5 147.5,123.5C 147.936,121.254 148.603,119.087 149.5,117C 146.549,116.904 143.882,116.071 141.5,114.5C 138.206,115.577 137.206,117.577 138.5,120.5C 137.504,120.586 136.671,120.252 136,119.5C 135.833,120 135.667,120.5 135.5,121C 136.429,122.077 137.096,123.244 137.5,124.5C 132.821,124.334 128.155,124.501 123.5,125C 124.056,125.383 124.389,125.883 124.5,126.5C 123.508,126.672 122.842,126.338 122.5,125.5C 122.414,124.504 122.748,123.671 123.5,123C 126.942,121.521 130.275,120.021 133.5,118.5C 136.934,115.786 137.267,112.786 134.5,109.5C 134.343,108.127 134.51,106.793 135,105.5C 137.15,108.963 140.316,110.296 144.5,109.5 Z"/></g><g><path style="opacity:1" fill="#e67c87" d="M 204.5,91.5 C 205.791,91.2627 206.791,91.596 207.5,92.5C 206.127,92.3433 204.793,92.51 203.5,93C 204.542,94.918 205.708,96.7513 207,98.5C 207.852,106.87 211.352,113.87 217.5,119.5C 218.509,122.473 218.509,125.473 217.5,128.5C 218.5,128.5 219.5,128.5 220.5,128.5C 216.407,133.769 212.074,138.935 207.5,144C 204.81,144.771 202.144,145.604 199.5,146.5C 201.621,148.018 203.954,149.018 206.5,149.5C 204.5,149.5 202.5,149.5 200.5,149.5C 199.748,153.871 198.581,158.204 197,162.5C 189.791,172.053 180.625,178.886 169.5,183C 172.063,183.763 172.063,184.263 169.5,184.5C 168.261,184.058 167.261,183.391 166.5,182.5C 165.738,180.738 164.404,179.738 162.5,179.5C 162.5,178.167 162.5,176.833 162.5,175.5C 163.814,179.448 165.314,179.448 167,175.5C 167.249,176.624 167.749,177.624 168.5,178.5C 172.283,177.442 175.617,175.609 178.5,173C 180.134,172.506 181.801,172.34 183.5,172.5C 183.351,171.448 183.517,170.448 184,169.5C 186.043,167.792 187.71,165.792 189,163.5C 190.11,161.963 191.61,161.297 193.5,161.5C 195.639,157.519 196.973,153.185 197.5,148.5C 197.588,144.264 195.921,140.93 192.5,138.5C 188.833,137.833 185.167,137.167 181.5,136.5C 187.342,136.55 189.675,133.55 188.5,127.5C 190.426,131.159 192.759,134.659 195.5,138C 199.641,138.168 203.974,138.335 208.5,138.5C 210.017,138.489 211.184,137.823 212,136.5C 214.241,133.155 214.908,129.489 214,125.5C 209.955,122.357 206.622,118.69 204,114.5C 201.563,108.028 200.063,101.361 199.5,94.5C 200.552,94.6495 201.552,94.4828 202.5,94C 198.858,93.0858 195.192,92.2525 191.5,91.5C 192,91.1667 192.5,90.8333 193,90.5C 196.776,91.3942 200.61,91.7275 204.5,91.5 Z"/></g><g><path style="opacity:1" fill="#f5c4cc" d="M 128.5,108.5 C 128.5,108.833 128.5,109.167 128.5,109.5C 127.662,109.842 127.328,110.508 127.5,111.5C 126.238,114.071 124.905,114.071 123.5,111.5C 122.667,112.5 121.833,113.5 121,114.5C 121.443,117.992 121.276,121.325 120.5,124.5C 113.018,119.163 110.018,121.163 111.5,130.5C 110.527,128.052 110.194,125.385 110.5,122.5C 109.178,122.33 108.011,122.663 107,123.5C 106.667,125.5 106.333,127.5 106,129.5C 105.77,125.787 104.603,125.12 102.5,127.5C 101.336,133.807 101.169,140.141 102,146.5C 103.565,151.907 107.065,154.907 112.5,155.5C 110.817,156.853 109.484,158.52 108.5,160.5C 105.633,160.631 103.967,159.297 103.5,156.5C 103.063,154.926 102.063,153.759 100.5,153C 101.167,152.667 101.833,152.333 102.5,152C 102.272,151.601 101.938,151.435 101.5,151.5C 97.5545,143.824 96.7212,135.824 99,127.5C 101.892,125.606 103.559,122.939 104,119.5C 107.639,115.004 111.806,112.004 116.5,110.5C 118.053,105.984 118.887,101.318 119,96.5C 120.118,98.7654 120.951,101.099 121.5,103.5C 123.91,103.921 125.743,105.254 127,107.5C 128.087,105.068 128.587,105.402 128.5,108.5 Z"/></g><g><path style="opacity:1" fill="#f8edee" d="M 147.5,123.5 C 147.649,124.552 147.483,125.552 147,126.5C 145.827,122.663 143.827,119.329 141,116.5C 141.904,119.641 143.404,122.641 145.5,125.5C 145.376,126.107 145.043,126.44 144.5,126.5C 141.5,125.5 139.5,123.5 138.5,120.5C 137.206,117.577 138.206,115.577 141.5,114.5C 143.882,116.071 146.549,116.904 149.5,117C 148.603,119.087 147.936,121.254 147.5,123.5 Z"/></g><g><path style="opacity:1" fill="#f1b2b8" d="M 128.5,108.5 C 128.587,105.402 128.087,105.068 127,107.5C 125.743,105.254 123.91,103.921 121.5,103.5C 120.951,101.099 120.118,98.7654 119,96.5C 118.887,101.318 118.053,105.984 116.5,110.5C 111.806,112.004 107.639,115.004 104,119.5C 103.559,122.939 101.892,125.606 99,127.5C 96.7212,135.824 97.5545,143.824 101.5,151.5C 98.851,149.813 96.5177,147.646 94.5,145C 95.3104,139.249 95.8104,133.416 96,127.5C 98.1056,124.392 99.7723,121.059 101,117.5C 104.717,114.115 108.717,111.115 113,108.5C 112.923,104.195 112.756,99.8618 112.5,95.5C 113.931,95.1193 114.764,94.1193 115,92.5C 115.333,93.5 115.667,94.5 116,95.5C 118.943,92.4609 119.11,89.2943 116.5,86C 117.867,83.3462 118.867,80.5129 119.5,77.5C 119.833,77.6667 120.167,77.8333 120.5,78C 120.639,88.6144 124.972,96.9477 133.5,103C 132.594,104.699 132.261,106.533 132.5,108.5C 131.167,108.5 129.833,108.5 128.5,108.5 Z"/></g><g><path style="opacity:1" fill="#f8f1f2" d="M 159.5,111.5 C 160.898,114.007 160.564,116.34 158.5,118.5C 156.14,120.865 154.14,123.532 152.5,126.5C 151.311,127.429 149.978,127.762 148.5,127.5C 148.5,126.5 148.5,125.5 148.5,124.5C 150.163,122.562 150.829,120.228 150.5,117.5C 155.396,118.215 158.396,116.215 159.5,111.5 Z"/></g><g><path style="opacity:1" fill="#b61f3d" d="M 174.5,117.5 C 174.5,118.167 174.5,118.833 174.5,119.5C 170.611,120.926 166.611,122.26 162.5,123.5C 161.605,121.655 162.272,120.322 164.5,119.5C 165.167,119.5 165.5,119.167 165.5,118.5C 166.165,116.631 166.831,114.631 167.5,112.5C 169.747,111.626 172.08,111.292 174.5,111.5C 174.5,113.5 174.5,115.5 174.5,117.5 Z"/></g><g><path style="opacity:1" fill="#e7838c" d="M 106.5,100.5 C 106.918,101.222 107.584,101.722 108.5,102C 106.331,102.429 104.331,101.929 102.5,100.5C 101.396,101.631 101.729,102.465 103.5,103C 102.833,103.333 102.167,103.667 101.5,104C 102.451,104.718 102.617,105.551 102,106.5C 97.6664,109.561 93.9998,113.228 91,117.5C 89.4951,123.698 87.9951,129.864 86.5,136C 87.1667,139 87.8333,142 88.5,145C 87.552,145.483 86.552,145.649 85.5,145.5C 83.1184,144.649 81.1184,143.316 79.5,141.5C 81.1703,141.751 82.6703,142.418 84,143.5C 79.551,128.598 83.2177,115.598 95,104.5C 95.4828,103.552 95.6495,102.552 95.5,101.5C 90.3183,101.443 90.3183,100.776 95.5,99.5C 91.1524,98.2904 86.819,98.2904 82.5,99.5C 82.6107,98.8826 82.944,98.3826 83.5,98C 91.639,95.3967 99.3057,96.2301 106.5,100.5 Z"/></g><g><path style="opacity:1" fill="#e7828d" d="M 127.5,111.5 C 126.582,116.495 128.582,118.828 133.5,118.5C 130.275,120.021 126.942,121.521 123.5,123C 122.748,123.671 122.414,124.504 122.5,125.5C 121.508,125.672 120.842,125.338 120.5,124.5C 121.276,121.325 121.443,117.992 121,114.5C 121.833,113.5 122.667,112.5 123.5,111.5C 124.905,114.071 126.238,114.071 127.5,111.5 Z"/></g><g><path style="opacity:1" fill="#f5cdd4" d="M 161.5,111.5 C 161.5,113.167 161.5,114.833 161.5,116.5C 162.5,116.5 163.5,116.5 164.5,116.5C 164.5,117.5 164.5,118.5 164.5,119.5C 162.272,120.322 161.605,121.655 162.5,123.5C 166.611,122.26 170.611,120.926 174.5,119.5C 175.482,118.859 176.482,118.193 177.5,117.5C 180.116,119.002 182.116,121.002 183.5,123.5C 179.372,121.7 176.039,122.7 173.5,126.5C 172.824,125.398 172.158,124.398 171.5,123.5C 169.712,123.215 168.045,123.548 166.5,124.5C 167.325,125.386 168.325,125.719 169.5,125.5C 170.791,126.473 170.791,127.473 169.5,128.5C 167.955,129.452 166.288,129.785 164.5,129.5C 164.5,128.5 164.5,127.5 164.5,126.5C 162.801,126.66 161.134,126.494 159.5,126C 158.922,124.583 157.922,123.75 156.5,123.5C 157.625,121.871 158.959,120.371 160.5,119C 159.906,118.536 159.239,118.369 158.5,118.5C 160.564,116.34 160.898,114.007 159.5,111.5C 160.167,108.833 160.833,108.833 161.5,111.5 Z"/></g><g><path style="opacity:1" fill="#c0425d" d="M 138.5,120.5 C 139.5,123.5 141.5,125.5 144.5,126.5C 144.5,127.167 144.5,127.833 144.5,128.5C 143.755,130.671 143.588,133.005 144,135.5C 141.317,138.016 138.817,140.683 136.5,143.5C 135.417,142.635 135.251,141.635 136,140.5C 137.5,139 139,137.5 140.5,136C 136.622,135.051 136.622,133.885 140.5,132.5C 137.914,131.52 135.247,131.187 132.5,131.5C 132.389,130.883 132.056,130.383 131.5,130C 134.695,129.819 137.695,129.319 140.5,128.5C 140.628,126.871 139.628,125.538 137.5,124.5C 137.096,123.244 136.429,122.077 135.5,121C 135.667,120.5 135.833,120 136,119.5C 136.671,120.252 137.504,120.586 138.5,120.5 Z"/></g><g><path style="opacity:1" fill="#48507d" d="M 945.5,124.5 C 939.464,124.36 933.464,124.693 927.5,125.5C 930.695,123.97 934.195,123.304 938,123.5C 940.69,123.503 943.19,123.836 945.5,124.5 Z"/></g><g><path style="opacity:1" fill="#ce5671" d="M 171.5,123.5 C 171.5,124.833 170.833,125.5 169.5,125.5C 168.325,125.719 167.325,125.386 166.5,124.5C 168.045,123.548 169.712,123.215 171.5,123.5 Z"/></g><g><path style="opacity:1" fill="#8a93ad" d="M 412.5,125.5 C 407.056,124.892 402.056,125.558 397.5,127.5C 396.596,126.791 396.263,125.791 396.5,124.5C 402.026,124.179 407.36,124.512 412.5,125.5 Z"/></g><g><path style="opacity:1" fill="#8a93b1" d="M 805.5,125.5 C 800.056,124.892 795.056,125.558 790.5,127.5C 789.596,126.791 789.263,125.791 789.5,124.5C 795.026,124.179 800.36,124.512 805.5,125.5 Z"/></g><g><path style="opacity:1" fill="#faf8f7" d="M 137.5,124.5 C 139.628,125.538 140.628,126.871 140.5,128.5C 134.692,128.266 129.026,128.933 123.5,130.5C 122.494,130.062 122.494,129.396 123.5,128.5C 125.698,128.591 126.031,127.925 124.5,126.5C 124.389,125.883 124.056,125.383 123.5,125C 128.155,124.501 132.821,124.334 137.5,124.5 Z"/></g><g><path style="opacity:1" fill="#c95d79" d="M 147.5,123.5 C 148.167,123.5 148.5,123.833 148.5,124.5C 148.5,125.5 148.5,126.5 148.5,127.5C 149.978,127.762 151.311,127.429 152.5,126.5C 154.14,123.532 156.14,120.865 158.5,118.5C 159.239,118.369 159.906,118.536 160.5,119C 158.959,120.371 157.625,121.871 156.5,123.5C 155.645,124.531 154.978,125.697 154.5,127C 155.547,128.578 155.547,130.078 154.5,131.5C 151.553,129.296 148.22,128.296 144.5,128.5C 144.5,127.833 144.5,127.167 144.5,126.5C 145.043,126.44 145.376,126.107 145.5,125.5C 143.404,122.641 141.904,119.641 141,116.5C 143.827,119.329 145.827,122.663 147,126.5C 147.483,125.552 147.649,124.552 147.5,123.5 Z"/></g><g><path style="opacity:1" fill="#09185c" d="M 385.5,125.5 C 385.5,145.167 385.5,164.833 385.5,184.5C 381.958,184.187 378.625,184.521 375.5,185.5C 374.503,165.674 374.17,145.674 374.5,125.5C 378.167,125.5 381.833,125.5 385.5,125.5 Z"/></g><g><path style="opacity:1" fill="#0f1b5d" d="M 412.5,125.5 C 423.527,137.194 434.86,148.527 446.5,159.5C 447.499,148.915 447.832,137.582 447.5,125.5C 450.833,125.5 454.167,125.5 457.5,125.5C 457.5,145.833 457.5,166.167 457.5,186.5C 442.418,173.082 428.084,159.082 414.5,144.5C 414.44,143.957 414.107,143.624 413.5,143.5C 412.175,155.994 412.175,168.327 413.5,180.5C 413.5,182.167 413.5,183.833 413.5,185.5C 409.833,185.5 406.167,185.5 402.5,185.5C 402.667,167.497 402.5,149.497 402,131.5C 400.629,129.959 399.129,128.625 397.5,127.5C 402.056,125.558 407.056,124.892 412.5,125.5 Z"/></g><g><path style="opacity:1" fill="#0d1a5c" d="M 714.5,183.5 C 709.944,185.442 704.944,186.108 699.5,185.5C 691.393,175.606 683.06,165.94 674.5,156.5C 674.44,155.957 674.107,155.624 673.5,155.5C 672.501,165.478 672.168,175.478 672.5,185.5C 668.5,185.5 664.5,185.5 660.5,185.5C 660.5,165.5 660.5,145.5 660.5,125.5C 670.839,125.334 681.172,125.5 691.5,126C 702.687,128.498 707.521,135.332 706,146.5C 703.036,152.736 698.202,156.736 691.5,158.5C 698.849,167.18 706.515,175.513 714.5,183.5 Z"/></g><g><path style="opacity:1" fill="#0a185d" d="M 907.5,127.5 C 907.167,128.833 906.833,130.167 906.5,131.5C 905.849,132.091 905.182,132.757 904.5,133.5C 895.039,132.182 885.705,132.182 876.5,133.5C 874.712,133.785 873.045,133.452 871.5,132.5C 873.287,131.684 874.954,130.684 876.5,129.5C 875.224,128.355 873.891,128.355 872.5,129.5C 871.808,128.975 871.308,128.308 871,127.5C 870.333,146.167 870.333,164.833 871,183.5C 871.333,182.833 871.667,182.167 872,181.5C 873.438,182.718 875.105,183.385 877,183.5C 883.143,182.772 889.309,182.272 895.5,182C 889.5,181.667 883.5,181.333 877.5,181C 873.027,179.98 872.694,178.813 876.5,177.5C 887.264,177.941 897.931,177.274 908.5,175.5C 908.041,178.877 907.374,182.211 906.5,185.5C 892.5,185.5 878.5,185.5 864.5,185.5C 864.5,165.5 864.5,145.5 864.5,125.5C 879.206,124.85 893.539,125.517 907.5,127.5 Z"/></g><g><path style="opacity:1" fill="#b31b39" d="M 120.5,124.5 C 120.842,125.338 121.508,125.672 122.5,125.5C 122.842,126.338 123.508,126.672 124.5,126.5C 126.031,127.925 125.698,128.591 123.5,128.5C 120.937,128.731 119.27,130.065 118.5,132.5C 116.598,133.511 114.598,133.678 112.5,133C 111.748,132.329 111.414,131.496 111.5,130.5C 110.018,121.163 113.018,119.163 120.5,124.5 Z"/></g><g><path style="opacity:1" fill="#eea1a8" d="M 112.5,95.5 C 112.756,99.8618 112.923,104.195 113,108.5C 108.717,111.115 104.717,114.115 101,117.5C 99.7723,121.059 98.1056,124.392 96,127.5C 95.8104,133.416 95.3104,139.249 94.5,145C 96.5177,147.646 98.851,149.813 101.5,151.5C 101.938,151.435 102.272,151.601 102.5,152C 101.833,152.333 101.167,152.667 100.5,153C 102.063,153.759 103.063,154.926 103.5,156.5C 101.087,154.949 98.4206,154.283 95.5,154.5C 93.4073,150.072 90.074,147.072 85.5,145.5C 86.552,145.649 87.552,145.483 88.5,145C 87.8333,142 87.1667,139 86.5,136C 87.9951,129.864 89.4951,123.698 91,117.5C 93.9998,113.228 97.6664,109.561 102,106.5C 102.617,105.551 102.451,104.718 101.5,104C 102.167,103.667 102.833,103.333 103.5,103C 101.729,102.465 101.396,101.631 102.5,100.5C 104.331,101.929 106.331,102.429 108.5,102C 107.584,101.722 106.918,101.222 106.5,100.5C 109.425,99.906 111.425,98.2393 112.5,95.5 Z"/></g><g><path style="opacity:1" fill="#b61e3c" d="M 188.5,127.5 C 189.675,133.55 187.342,136.55 181.5,136.5C 178.451,132.645 174.451,130.978 169.5,131.5C 168.833,131.5 168.167,131.5 167.5,131.5C 171.021,130.834 174.687,130.167 178.5,129.5C 181.085,127.974 183.752,126.64 186.5,125.5C 187.713,125.747 188.38,126.414 188.5,127.5 Z"/></g><g><path style="opacity:1" fill="#eb97a0" d="M 123.5,128.5 C 122.494,129.396 122.494,130.062 123.5,130.5C 125.019,131.41 126.685,132.243 128.5,133C 127.199,134.616 127.199,136.116 128.5,137.5C 128.389,138.117 128.056,138.617 127.5,139C 124.456,139.363 121.456,139.863 118.5,140.5C 118.684,137.523 118.684,134.856 118.5,132.5C 119.27,130.065 120.937,128.731 123.5,128.5 Z"/></g><g><path style="opacity:1" fill="#19295e" d="M 779.5,127.5 C 779.5,146.833 779.5,166.167 779.5,185.5C 775.5,185.5 771.5,185.5 767.5,185.5C 767.5,185.167 767.5,184.833 767.5,184.5C 771.167,184.5 774.833,184.5 778.5,184.5C 778.17,165.326 778.503,146.326 779.5,127.5 Z"/></g><g><path style="opacity:1" fill="#373f76" d="M 906.5,131.5 C 906.5,132.5 906.5,133.5 906.5,134.5C 896.516,133.787 886.516,133.453 876.5,133.5C 885.705,132.182 895.039,132.182 904.5,133.5C 905.182,132.757 905.849,132.091 906.5,131.5 Z"/></g><g><path style="opacity:1" fill="#24326a" d="M 385.5,125.5 C 385.833,125.5 386.167,125.5 386.5,125.5C 386.5,145.5 386.5,165.5 386.5,185.5C 382.833,185.5 379.167,185.5 375.5,185.5C 378.625,184.521 381.958,184.187 385.5,184.5C 385.5,164.833 385.5,145.167 385.5,125.5 Z"/></g><g><path style="opacity:1" fill="#f7f8f9" d="M 684.5,133.5 C 692.487,135.137 694.987,139.803 692,147.5C 690.048,149.894 687.548,151.394 684.5,152C 680.848,152.499 677.182,152.665 673.5,152.5C 673.5,146.167 673.5,139.833 673.5,133.5C 677.167,133.5 680.833,133.5 684.5,133.5 Z"/></g><g><path style="opacity:1" fill="#f0bcc3" d="M 140.5,128.5 C 137.695,129.319 134.695,129.819 131.5,130C 132.056,130.383 132.389,130.883 132.5,131.5C 131.45,131.905 131.45,132.571 132.5,133.5C 131.092,134.243 129.759,135.077 128.5,136C 129.938,136.219 131.271,136.719 132.5,137.5C 132.376,138.107 132.043,138.44 131.5,138.5C 130.791,137.596 129.791,137.263 128.5,137.5C 127.199,136.116 127.199,134.616 128.5,133C 126.685,132.243 125.019,131.41 123.5,130.5C 129.026,128.933 134.692,128.266 140.5,128.5 Z"/></g><g><path style="opacity:1" fill="#111c5e" d="M 805.5,125.5 C 816.419,137.086 827.752,148.419 839.5,159.5C 840.499,148.915 840.832,137.582 840.5,125.5C 843.833,125.5 847.167,125.5 850.5,125.5C 850.5,145.833 850.5,166.167 850.5,186.5C 849.761,186.631 849.094,186.464 848.5,186C 834.577,172.245 820.91,158.411 807.5,144.5C 807.44,143.957 807.107,143.624 806.5,143.5C 805.175,155.66 805.175,167.66 806.5,179.5C 806.5,181.833 806.5,184.167 806.5,186.5C 802.833,186.5 799.167,186.5 795.5,186.5C 795.667,168.164 795.5,149.83 795,131.5C 793.629,129.959 792.129,128.625 790.5,127.5C 795.056,125.558 800.056,124.892 805.5,125.5 Z"/></g><g><path style="opacity:1" fill="#56608a" d="M 314.5,149.5 C 313.508,141.684 313.174,133.684 313.5,125.5C 309.833,125.5 306.167,125.5 302.5,125.5C 302.5,145.5 302.5,165.5 302.5,185.5C 306.167,185.5 309.833,185.5 313.5,185.5C 313.174,176.651 313.507,167.984 314.5,159.5C 314.5,168.5 314.5,177.5 314.5,186.5C 310.167,186.5 305.833,186.5 301.5,186.5C 301.5,165.833 301.5,145.167 301.5,124.5C 305.833,124.5 310.167,124.5 314.5,124.5C 314.5,132.833 314.5,141.167 314.5,149.5 Z"/></g><g><path style="opacity:1" fill="#848cab" d="M 386.5,125.5 C 386.167,125.5 385.833,125.5 385.5,125.5C 381.833,125.5 378.167,125.5 374.5,125.5C 374.17,145.674 374.503,165.674 375.5,185.5C 379.167,185.5 382.833,185.5 386.5,185.5C 382.366,186.485 378.032,186.818 373.5,186.5C 373.5,165.833 373.5,145.167 373.5,124.5C 378.032,124.182 382.366,124.515 386.5,125.5 Z"/></g><g><path style="opacity:1" fill="#8087b0" d="M 644.5,125.5 C 640.5,125.5 636.5,125.5 632.5,125.5C 632.5,145.5 632.5,165.5 632.5,185.5C 636.5,185.5 640.5,185.5 644.5,185.5C 640.366,186.485 636.032,186.818 631.5,186.5C 631.5,165.833 631.5,145.167 631.5,124.5C 636.032,124.182 640.366,124.515 644.5,125.5 Z"/></g><g><path style="opacity:1" fill="#0e1b5c" d="M 644.5,125.5 C 644.5,145.5 644.5,165.5 644.5,185.5C 640.5,185.5 636.5,185.5 632.5,185.5C 632.5,165.5 632.5,145.5 632.5,125.5C 636.5,125.5 640.5,125.5 644.5,125.5 Z"/></g><g><path style="opacity:1" fill="#9097b9" d="M 684.5,133.5 C 680.833,133.5 677.167,133.5 673.5,133.5C 673.5,139.833 673.5,146.167 673.5,152.5C 672.509,146.021 672.176,139.354 672.5,132.5C 676.702,132.183 680.702,132.517 684.5,133.5 Z"/></g><g><path style="opacity:1" fill="#9099b6" d="M 732.5,125.5 C 728.5,125.5 724.5,125.5 720.5,125.5C 720.5,145.5 720.5,165.5 720.5,185.5C 732.833,185.5 745.167,185.5 757.5,185.5C 745.011,186.495 732.344,186.829 719.5,186.5C 719.5,165.833 719.5,145.167 719.5,124.5C 724.032,124.182 728.366,124.515 732.5,125.5 Z"/></g><g><path style="opacity:1" fill="#c3cbd7" d="M 732.5,125.5 C 733.18,142.735 733.846,160.069 734.5,177.5C 732.514,160.532 731.847,143.199 732.5,125.5 Z"/></g><g><path style="opacity:1" fill="#9aa0ba" d="M 779.5,125.5 C 780.497,145.66 780.83,165.993 780.5,186.5C 775.968,186.818 771.634,186.485 767.5,185.5C 771.5,185.5 775.5,185.5 779.5,185.5C 779.5,166.167 779.5,146.833 779.5,127.5C 779.5,126.833 779.5,126.167 779.5,125.5 Z"/></g><g><path style="opacity:1" fill="#929bbb" d="M 850.5,186.5 C 850.5,166.167 850.5,145.833 850.5,125.5C 847.167,125.5 843.833,125.5 840.5,125.5C 840.832,137.582 840.499,148.915 839.5,159.5C 839.5,147.833 839.5,136.167 839.5,124.5C 843.5,124.5 847.5,124.5 851.5,124.5C 851.831,145.34 851.497,166.007 850.5,186.5 Z"/></g><g><path style="opacity:1" fill="#8089aa" d="M 907.5,127.5 C 893.539,125.517 879.206,124.85 864.5,125.5C 864.5,145.5 864.5,165.5 864.5,185.5C 878.5,185.5 892.5,185.5 906.5,185.5C 892.343,186.496 878.01,186.829 863.5,186.5C 863.5,165.833 863.5,145.167 863.5,124.5C 878.5,124.5 893.5,124.5 908.5,124.5C 908.737,125.791 908.404,126.791 907.5,127.5 Z"/></g><g><path style="opacity:1" fill="#f8f1f2" d="M 156.5,123.5 C 157.922,123.75 158.922,124.583 159.5,126C 161.134,126.494 162.801,126.66 164.5,126.5C 164.5,127.5 164.5,128.5 164.5,129.5C 164.821,131.048 165.821,131.715 167.5,131.5C 168.167,131.5 168.833,131.5 169.5,131.5C 169.5,131.833 169.5,132.167 169.5,132.5C 170.263,133.268 171.263,133.768 172.5,134C 168.167,134.333 163.833,134.667 159.5,135C 160.551,136.385 161.884,137.385 163.5,138C 161.846,138.608 160.179,139.108 158.5,139.5C 157.038,138.542 155.705,137.376 154.5,136C 152.833,135.333 151.167,135.333 149.5,136C 144.492,139.188 141.992,143.688 142,149.5C 142.949,147.907 144.115,146.574 145.5,145.5C 146.043,145.56 146.376,145.893 146.5,146.5C 144.837,149.367 143.17,152.033 141.5,154.5C 141.5,153.5 141.5,152.5 141.5,151.5C 139.126,150.786 137.126,149.452 135.5,147.5C 132.885,148.269 130.219,148.603 127.5,148.5C 127.287,145.549 127.954,142.882 129.5,140.5C 130.167,139.833 130.833,139.167 131.5,138.5C 132.043,138.44 132.376,138.107 132.5,137.5C 131.271,136.719 129.938,136.219 128.5,136C 129.759,135.077 131.092,134.243 132.5,133.5C 131.45,132.571 131.45,131.905 132.5,131.5C 135.247,131.187 137.914,131.52 140.5,132.5C 136.622,133.885 136.622,135.051 140.5,136C 139,137.5 137.5,139 136,140.5C 135.251,141.635 135.417,142.635 136.5,143.5C 138.817,140.683 141.317,138.016 144,135.5C 143.588,133.005 143.755,130.671 144.5,128.5C 148.22,128.296 151.553,129.296 154.5,131.5C 155.547,130.078 155.547,128.578 154.5,127C 154.978,125.697 155.645,124.531 156.5,123.5 Z"/></g><g><path style="opacity:1" fill="#bb3751" d="M 158.5,139.5 C 159.833,142.167 159.167,142.833 156.5,141.5C 154.947,138.746 152.614,137.913 149.5,139C 148.281,141.278 146.948,143.445 145.5,145.5C 144.115,146.574 142.949,147.907 142,149.5C 141.992,143.688 144.492,139.188 149.5,136C 151.167,135.333 152.833,135.333 154.5,136C 155.705,137.376 157.038,138.542 158.5,139.5 Z"/></g><g><path style="opacity:1" fill="#c33d56" d="M 169.5,136.5 C 171.386,137.065 173.053,138.065 174.5,139.5C 172.833,140.666 171.166,140.666 169.5,139.5C 160.595,136.104 160.595,135.104 169.5,136.5 Z"/></g><g><path style="opacity:1" fill="#efacb3" d="M 169.5,132.5 C 169.5,132.167 169.5,131.833 169.5,131.5C 174.451,130.978 178.451,132.645 181.5,136.5C 185.167,137.167 188.833,137.833 192.5,138.5C 191.909,139.151 191.243,139.818 190.5,140.5C 191.485,142.098 191.651,143.765 191,145.5C 188.846,148.972 186.513,152.305 184,155.5C 183.159,152.372 182.325,149.372 181.5,146.5C 181.047,145.542 180.381,144.708 179.5,144C 175.883,143.647 172.383,142.814 169,141.5C 168.235,141.57 167.735,141.903 167.5,142.5C 166.957,142.44 166.624,142.107 166.5,141.5C 167.602,140.824 168.602,140.158 169.5,139.5C 171.166,140.666 172.833,140.666 174.5,139.5C 173.053,138.065 171.386,137.065 169.5,136.5C 172.5,136.833 173.833,135.5 173.5,132.5C 172.167,132.5 170.833,132.5 169.5,132.5 Z"/></g><g><path style="opacity:1" fill="#f4d3d9" d="M 169.5,132.5 C 170.833,132.5 172.167,132.5 173.5,132.5C 173.833,135.5 172.5,136.833 169.5,136.5C 160.595,135.104 160.595,136.104 169.5,139.5C 168.602,140.158 167.602,140.824 166.5,141.5C 166.624,142.107 166.957,142.44 167.5,142.5C 169.23,143.026 170.564,144.026 171.5,145.5C 171.384,148.86 171.051,152.193 170.5,155.5C 169.5,155.5 168.5,155.5 167.5,155.5C 167.318,160.794 166.818,160.794 166,155.5C 165.667,156.5 165.333,157.5 165,158.5C 164.802,156.618 164.302,154.952 163.5,153.5C 164.12,149.698 163.286,146.365 161,143.5C 160.517,144.448 160.351,145.448 160.5,146.5C 159.5,146.5 158.5,146.5 157.5,146.5C 156.351,146.209 155.684,145.376 155.5,144C 155.528,142.93 155.861,142.097 156.5,141.5C 159.167,142.833 159.833,142.167 158.5,139.5C 160.179,139.108 161.846,138.608 163.5,138C 161.884,137.385 160.551,136.385 159.5,135C 163.833,134.667 168.167,134.333 172.5,134C 171.263,133.768 170.263,133.268 169.5,132.5 Z"/></g><g><path style="opacity:1" fill="#f9dce2" d="M 111.5,130.5 C 111.414,131.496 111.748,132.329 112.5,133C 114.598,133.678 116.598,133.511 118.5,132.5C 118.684,134.856 118.684,137.523 118.5,140.5C 116.652,142.516 114.985,144.683 113.5,147C 114.604,148.715 115.938,150.215 117.5,151.5C 116.421,153.543 114.754,154.876 112.5,155.5C 107.065,154.907 103.565,151.907 102,146.5C 101.169,140.141 101.336,133.807 102.5,127.5C 104.603,125.12 105.77,125.787 106,129.5C 106.333,127.5 106.667,125.5 107,123.5C 108.011,122.663 109.178,122.33 110.5,122.5C 110.194,125.385 110.527,128.052 111.5,130.5 Z"/></g><g><path style="opacity:1" fill="#131e5f" d="M 251.5,146.5 C 250.027,149.017 249.36,151.85 249.5,155C 249.506,157.033 249.839,158.866 250.5,160.5C 252.165,168.999 257.165,174.499 265.5,177C 275.318,178.919 284.318,177.085 292.5,171.5C 293.959,181.38 289.626,186.546 279.5,187C 249.588,189.751 235.421,176.251 237,146.5C 240.935,135.564 248.435,128.397 259.5,125C 270.026,122.637 280.36,123.304 290.5,127C 291.266,130.418 291.266,133.918 290.5,137.5C 282.555,133.882 274.222,132.715 265.5,134C 258.751,135.92 254.084,140.086 251.5,146.5 Z"/></g><g><path style="opacity:1" fill="#606792" d="M 345.5,186.5 C 345.5,177.5 345.5,168.5 345.5,159.5C 346.493,167.984 346.826,176.651 346.5,185.5C 350.167,185.5 353.833,185.5 357.5,185.5C 357.5,165.5 357.5,145.5 357.5,125.5C 353.833,125.5 350.167,125.5 346.5,125.5C 346.826,133.684 346.492,141.684 345.5,149.5C 345.5,141.167 345.5,132.833 345.5,124.5C 349.833,124.5 354.167,124.5 358.5,124.5C 358.5,145.167 358.5,165.833 358.5,186.5C 354.167,186.5 349.833,186.5 345.5,186.5 Z"/></g><g><path style="opacity:1" fill="#a9aec3" d="M 457.5,186.5 C 457.5,166.167 457.5,145.833 457.5,125.5C 454.167,125.5 450.833,125.5 447.5,125.5C 447.832,137.582 447.499,148.915 446.5,159.5C 446.5,147.833 446.5,136.167 446.5,124.5C 450.5,124.5 454.5,124.5 458.5,124.5C 458.831,145.34 458.497,166.007 457.5,186.5 Z"/></g><g><path style="opacity:1" fill="#b21b39" d="M 128.5,137.5 C 129.791,137.263 130.791,137.596 131.5,138.5C 130.833,139.167 130.167,139.833 129.5,140.5C 125.693,143.109 123.693,146.776 123.5,151.5C 122.833,151.833 122.167,152.167 121.5,152.5C 120.167,152.167 118.833,151.833 117.5,151.5C 115.938,150.215 114.604,148.715 113.5,147C 114.985,144.683 116.652,142.516 118.5,140.5C 121.456,139.863 124.456,139.363 127.5,139C 128.056,138.617 128.389,138.117 128.5,137.5 Z"/></g><g><path style="opacity:1" fill="#58618d" d="M 876.5,149.5 C 886.19,149.168 895.856,149.502 905.5,150.5C 905.376,151.107 905.043,151.44 904.5,151.5C 895.167,150.833 885.833,150.167 876.5,149.5 Z"/></g><g><path style="opacity:1" fill="#0b1a5d" d="M 314.5,149.5 C 324.833,150.833 335.167,150.833 345.5,149.5C 346.492,141.684 346.826,133.684 346.5,125.5C 350.167,125.5 353.833,125.5 357.5,125.5C 357.5,145.5 357.5,165.5 357.5,185.5C 353.833,185.5 350.167,185.5 346.5,185.5C 346.826,176.651 346.493,167.984 345.5,159.5C 335.167,159.5 324.833,159.5 314.5,159.5C 313.507,167.984 313.174,176.651 313.5,185.5C 309.833,185.5 306.167,185.5 302.5,185.5C 302.5,165.5 302.5,145.5 302.5,125.5C 306.167,125.5 309.833,125.5 313.5,125.5C 313.174,133.684 313.508,141.684 314.5,149.5 Z"/></g><g><path style="opacity:1" fill="#616995" d="M 414.5,144.5 C 413.505,156.322 413.172,168.322 413.5,180.5C 412.175,168.327 412.175,155.994 413.5,143.5C 414.107,143.624 414.44,143.957 414.5,144.5 Z"/></g><g><path style="opacity:1" fill="#59608e" d="M 807.5,144.5 C 806.505,155.988 806.172,167.655 806.5,179.5C 805.175,167.66 805.175,155.66 806.5,143.5C 807.107,143.624 807.44,143.957 807.5,144.5 Z"/></g><g><path style="opacity:1" fill="#b11436" d="M 163.5,153.5 C 164.5,158.5 162.5,160.5 157.5,159.5C 156.432,158.566 155.099,158.232 153.5,158.5C 152.656,153.862 153.989,150.195 157.5,147.5C 157.5,147.167 157.5,146.833 157.5,146.5C 158.5,146.5 159.5,146.5 160.5,146.5C 160.351,145.448 160.517,144.448 161,143.5C 163.286,146.365 164.12,149.698 163.5,153.5 Z"/></g><g><path style="opacity:1" fill="#b41939" d="M 167.5,142.5 C 167.735,141.903 168.235,141.57 169,141.5C 172.383,142.814 175.883,143.647 179.5,144C 180.381,144.708 181.047,145.542 181.5,146.5C 181.747,149.939 181.414,153.272 180.5,156.5C 177.794,156.425 175.127,156.092 172.5,155.5C 172.813,151.958 172.479,148.625 171.5,145.5C 170.564,144.026 169.23,143.026 167.5,142.5 Z"/></g><g><path style="opacity:1" fill="#b0b7d0" d="M 251.5,146.5 C 250.873,151.141 250.54,155.807 250.5,160.5C 249.839,158.866 249.506,157.033 249.5,155C 249.36,151.85 250.027,149.017 251.5,146.5 Z"/></g><g><path style="opacity:1" fill="#e77c8d" d="M 117.5,151.5 C 118.833,151.833 120.167,152.167 121.5,152.5C 118.55,154.115 115.884,156.115 113.5,158.5C 112.508,158.328 111.842,158.662 111.5,159.5C 110.272,160.306 109.272,161.306 108.5,162.5C 108.5,161.833 108.5,161.167 108.5,160.5C 109.484,158.52 110.817,156.853 112.5,155.5C 114.754,154.876 116.421,153.543 117.5,151.5 Z"/></g><g><path style="opacity:1" fill="#b21335" d="M 95.5,154.5 C 98.4206,154.283 101.087,154.949 103.5,156.5C 103.967,159.297 105.633,160.631 108.5,160.5C 108.5,161.167 108.5,161.833 108.5,162.5C 108.5,163.167 108.167,163.5 107.5,163.5C 106.532,165.607 106.198,167.941 106.5,170.5C 106.5,171.5 106.5,172.5 106.5,173.5C 103.721,173.721 101.054,173.388 98.5,172.5C 98.1667,171.833 97.8333,171.167 97.5,170.5C 96.8166,168.824 95.4832,168.157 93.5,168.5C 93.0328,163.6 93.6994,158.933 95.5,154.5 Z"/></g><g><path style="opacity:1" fill="#f9dfe5" d="M 113.5,158.5 C 115.884,156.115 118.55,154.115 121.5,152.5C 122.167,152.167 122.833,151.833 123.5,151.5C 127.862,151.244 132.195,151.077 136.5,151C 135.747,152.487 134.914,152.654 134,151.5C 132.81,155.381 132.143,159.381 132,163.5C 130.387,162.378 129.22,162.878 128.5,165C 123.29,165.972 118.623,164.805 114.5,161.5C 113.614,160.675 113.281,159.675 113.5,158.5 Z"/></g><g><path style="opacity:1" fill="#d6d8e2" d="M 314.5,159.5 C 324.833,159.5 335.167,159.5 345.5,159.5C 345.5,168.5 345.5,177.5 345.5,186.5C 344.507,178.016 344.174,169.349 344.5,160.5C 334.833,160.5 325.167,160.5 315.5,160.5C 315.826,169.349 315.493,178.016 314.5,186.5C 314.5,177.5 314.5,168.5 314.5,159.5 Z"/></g><g><path style="opacity:1" fill="#df9dab" d="M 74.5,154.5 C 76.641,156.122 78.3076,158.122 79.5,160.5C 77.8041,158.871 76.8041,159.204 76.5,161.5C 74.8333,161.5 73.1667,161.5 71.5,161.5C 71.9175,160.778 72.5842,160.278 73.5,160C 72.4829,158.951 72.3162,157.784 73,156.5C 73.3333,157.167 73.6667,157.833 74,158.5C 74.49,157.207 74.6567,155.873 74.5,154.5 Z"/></g><g><path style="opacity:1" fill="#b41d3b" d="M 141.5,154.5 C 144.973,160.417 143.306,163.75 136.5,164.5C 133.445,162.184 132.779,159.184 134.5,155.5C 136.332,154.752 137.999,153.752 139.5,152.5C 140.182,153.243 140.849,153.909 141.5,154.5 Z"/></g><g><path style="opacity:1" fill="#f0acb2" d="M 156.5,141.5 C 155.861,142.097 155.528,142.93 155.5,144C 155.684,145.376 156.351,146.209 157.5,146.5C 157.5,146.833 157.5,147.167 157.5,147.5C 155.856,147.714 154.356,147.38 153,146.5C 152.667,149.167 152.333,151.833 152,154.5C 149.883,157.85 148.549,161.516 148,165.5C 146.951,167.107 145.451,167.773 143.5,167.5C 143.126,170.888 141.126,172.722 137.5,173C 131.167,173.667 124.833,173.667 118.5,173C 115.287,172.394 112.287,171.227 109.5,169.5C 108.232,167.696 107.565,165.696 107.5,163.5C 108.167,163.5 108.5,163.167 108.5,162.5C 109.272,161.306 110.272,160.306 111.5,159.5C 111.461,160.583 111.127,161.583 110.5,162.5C 118.484,167.121 127.15,168.788 136.5,167.5C 136.5,166.5 136.5,165.5 136.5,164.5C 143.306,163.75 144.973,160.417 141.5,154.5C 143.17,152.033 144.837,149.367 146.5,146.5C 146.376,145.893 146.043,145.56 145.5,145.5C 146.948,143.445 148.281,141.278 149.5,139C 152.614,137.913 154.947,138.746 156.5,141.5 Z"/></g><g><path style="opacity:1" fill="#d67f91" d="M 71.5,161.5 C 73.1667,161.5 74.8333,161.5 76.5,161.5C 76.5774,162.75 77.244,163.583 78.5,164C 77.8333,164.333 77.1667,164.667 76.5,165C 77.5707,165.852 78.5707,166.685 79.5,167.5C 77.5165,167.617 75.8498,166.95 74.5,165.5C 73.3961,166.631 73.7295,167.465 75.5,168C 72.8333,168.667 70.1667,168.667 67.5,168C 68.5,167.667 69.5,167.333 70.5,167C 68.8876,166.28 67.3876,166.446 66,167.5C 64.1438,165.263 64.6438,163.429 67.5,162C 68.9594,162.355 70.2928,162.189 71.5,161.5 Z"/></g><g><path style="opacity:1" fill="#111c5e" d="M 945.5,124.5 C 950.73,124.728 955.73,125.728 960.5,127.5C 960.518,131.446 959.518,135.112 957.5,138.5C 949.238,132.686 940.238,131.186 930.5,134C 926.99,137.048 926.657,140.381 929.5,144C 936.544,147.853 943.878,151.187 951.5,154C 953.833,155.667 956.167,157.333 958.5,159C 964.547,165.017 965.047,171.517 960,178.5C 955.468,183.206 949.968,185.873 943.5,186.5C 936.55,185.534 929.55,184.867 922.5,184.5C 915.804,183.215 913.637,179.215 916,172.5C 916.249,171.376 916.749,170.376 917.5,169.5C 926.487,178.329 936.82,180.329 948.5,175.5C 952.434,172.29 952.434,169.123 948.5,166C 939.125,161.313 929.792,156.646 920.5,152C 915.755,146.731 914.255,140.564 916,133.5C 918.434,128.709 922.267,126.042 927.5,125.5C 933.464,124.693 939.464,124.36 945.5,124.5 Z"/></g><g><path style="opacity:1" fill="#bb3551" d="M 74.5,154.5 C 74.6567,155.873 74.49,157.207 74,158.5C 73.6667,157.833 73.3333,157.167 73,156.5C 72.3162,157.784 72.4829,158.951 73.5,160C 72.5842,160.278 71.9175,160.778 71.5,161.5C 70.2928,162.189 68.9594,162.355 67.5,162C 64.6438,163.429 64.1438,165.263 66,167.5C 67.3876,166.446 68.8876,166.28 70.5,167C 69.5,167.333 68.5,167.667 67.5,168C 70.1667,168.667 72.8333,168.667 75.5,168C 73.7295,167.465 73.3961,166.631 74.5,165.5C 75.8498,166.95 77.5165,167.617 79.5,167.5C 78.5508,170.748 76.8842,173.415 74.5,175.5C 75.2341,174.292 75.5674,172.959 75.5,171.5C 74.448,171.649 73.448,171.483 72.5,171C 74.1667,170.667 75.8333,170.333 77.5,170C 73.6425,169.19 69.9758,169.357 66.5,170.5C 64.2227,170.137 63.5561,169.137 64.5,167.5C 63.9017,166.205 63.4017,164.872 63,163.5C 62.0572,166.251 61.2239,168.917 60.5,171.5C 59.8485,166.46 61.1818,162.127 64.5,158.5C 66.3194,160.911 68.3194,161.078 70.5,159C 69.3333,158.5 68.5,157.667 68,156.5C 67.237,159.063 66.737,159.063 66.5,156.5C 66.8178,155.353 67.4844,154.519 68.5,154C 70.7116,153.211 72.7116,153.378 74.5,154.5 Z"/></g><g><path style="opacity:1" fill="#f7cbd3" d="M 129.5,140.5 C 127.954,142.882 127.287,145.549 127.5,148.5C 130.219,148.603 132.885,148.269 135.5,147.5C 137.126,149.452 139.126,150.786 141.5,151.5C 141.5,152.5 141.5,153.5 141.5,154.5C 140.849,153.909 140.182,153.243 139.5,152.5C 137.999,153.752 136.332,154.752 134.5,155.5C 132.779,159.184 133.445,162.184 136.5,164.5C 136.5,165.5 136.5,166.5 136.5,167.5C 127.15,168.788 118.484,167.121 110.5,162.5C 111.127,161.583 111.461,160.583 111.5,159.5C 111.842,158.662 112.508,158.328 113.5,158.5C 113.281,159.675 113.614,160.675 114.5,161.5C 118.623,164.805 123.29,165.972 128.5,165C 129.22,162.878 130.387,162.378 132,163.5C 132.143,159.381 132.81,155.381 134,151.5C 134.914,152.654 135.747,152.487 136.5,151C 132.195,151.077 127.862,151.244 123.5,151.5C 123.693,146.776 125.693,143.109 129.5,140.5 Z"/></g><g><path style="opacity:1" fill="#b21435" d="M 200.5,149.5 C 202.5,149.5 204.5,149.5 206.5,149.5C 209.259,150.642 211.926,151.976 214.5,153.5C 215.724,155.828 215.724,158.161 214.5,160.5C 211.744,162.091 209.911,164.424 209,167.5C 207.887,168.305 206.721,168.972 205.5,169.5C 204.504,169.586 203.671,169.252 203,168.5C 202.424,166.623 202.591,164.789 203.5,163C 202.167,161.667 200.833,160.333 199.5,159C 200.367,155.895 200.701,152.728 200.5,149.5 Z"/></g><g><path style="opacity:1" fill="#131d5f" d="M 625.5,183.5 C 623.777,184.8 621.61,185.467 619,185.5C 616.413,185.445 613.913,185.111 611.5,184.5C 609.476,179.792 607.476,175.126 605.5,170.5C 595.167,170.5 584.833,170.5 574.5,170.5C 574.657,171.873 574.49,173.207 574,174.5C 571.628,177.91 569.795,181.577 568.5,185.5C 563.968,185.818 559.634,185.485 555.5,184.5C 566.192,164.789 576.692,144.789 587,124.5C 588.258,121.945 590.091,121.278 592.5,122.5C 603.256,143.015 614.256,163.349 625.5,183.5 Z"/></g><g><path style="opacity:1" fill="#f1f3f5" d="M 589.5,141.5 C 593.898,147.628 597.231,154.295 599.5,161.5C 593.132,161.83 586.798,161.496 580.5,160.5C 582.711,153.746 585.711,147.413 589.5,141.5 Z"/></g><g><path style="opacity:1" fill="#111c5e" d="M 533.5,184.5 C 529.03,185.486 524.363,185.819 519.5,185.5C 517.563,180.459 515.229,175.626 512.5,171C 502.483,170.168 492.483,170.334 482.5,171.5C 479.398,175.704 477.398,180.37 476.5,185.5C 471.706,186.097 467.373,185.43 463.5,183.5C 470.453,169.598 477.953,155.932 486,142.5C 489.262,135.551 492.428,128.551 495.5,121.5C 497.144,121.286 498.644,121.62 500,122.5C 511.396,143.058 522.563,163.724 533.5,184.5 Z"/></g><g><path style="opacity:1" fill="#f2f3f6" d="M 496.5,141.5 C 497.496,141.414 498.329,141.748 499,142.5C 501.539,148.58 504.372,154.58 507.5,160.5C 500.833,161.833 494.167,161.833 487.5,160.5C 491.048,154.328 494.048,147.994 496.5,141.5 Z"/></g><g><path style="opacity:1" fill="#c05668" d="M 95.5,154.5 C 93.6994,158.933 93.0328,163.6 93.5,168.5C 95.4832,168.157 96.8166,168.824 97.5,170.5C 95.6208,169.659 93.6208,169.325 91.5,169.5C 92.0355,165.181 92.5355,160.848 93,156.5C 93.4169,155.244 94.2502,154.577 95.5,154.5 Z"/></g><g><path style="opacity:1" fill="#efa6ad" d="M 171.5,145.5 C 172.479,148.625 172.813,151.958 172.5,155.5C 175.127,156.092 177.794,156.425 180.5,156.5C 181.756,156.461 182.756,156.961 183.5,158C 177.204,159.03 177.204,159.697 183.5,160C 178.161,165.249 171.994,169.082 165,171.5C 162.808,171.137 160.974,170.137 159.5,168.5C 158.011,166.355 157.011,164.022 156.5,161.5C 156.328,160.508 156.662,159.842 157.5,159.5C 162.5,160.5 164.5,158.5 163.5,153.5C 164.302,154.952 164.802,156.618 165,158.5C 165.333,157.5 165.667,156.5 166,155.5C 166.818,160.794 167.318,160.794 167.5,155.5C 168.5,155.5 169.5,155.5 170.5,155.5C 171.051,152.193 171.384,148.86 171.5,145.5 Z"/></g><g><path style="opacity:1" fill="#b21537" d="M 79.5,160.5 C 82.9426,169.928 83.4426,179.595 81,189.5C 80.4169,191.002 79.5836,192.335 78.5,193.5C 77.8933,193.376 77.56,193.043 77.5,192.5C 77.8174,189.428 77.4841,186.428 76.5,183.5C 72.56,181.764 70.8933,183.097 71.5,187.5C 70.5489,186.081 70.2155,184.415 70.5,182.5C 73.2386,181.689 75.9052,181.356 78.5,181.5C 75.7715,180.938 74.2715,179.272 74,176.5C 72.8126,180.763 70.3126,181.596 66.5,179C 69.1821,176.67 68.8488,176.17 65.5,177.5C 64.8331,182.317 64.1665,186.983 63.5,191.5C 60.9662,185.202 59.9662,178.536 60.5,171.5C 61.2239,168.917 62.0572,166.251 63,163.5C 63.4017,164.872 63.9017,166.205 64.5,167.5C 63.5561,169.137 64.2227,170.137 66.5,170.5C 75.4419,172.577 75.4419,174.077 66.5,175C 69.146,175.497 71.8127,175.664 74.5,175.5C 76.8842,173.415 78.5508,170.748 79.5,167.5C 78.5707,166.685 77.5707,165.852 76.5,165C 77.1667,164.667 77.8333,164.333 78.5,164C 77.244,163.583 76.5774,162.75 76.5,161.5C 76.8041,159.204 77.8041,158.871 79.5,160.5 Z"/></g><g><path style="opacity:1" fill="#e4a8b1" d="M 66.5,170.5 C 69.9758,169.357 73.6425,169.19 77.5,170C 75.8333,170.333 74.1667,170.667 72.5,171C 73.448,171.483 74.448,171.649 75.5,171.5C 75.5674,172.959 75.2341,174.292 74.5,175.5C 71.8127,175.664 69.146,175.497 66.5,175C 75.4419,174.077 75.4419,172.577 66.5,170.5 Z"/></g><g><path style="opacity:1" fill="#ea9199" d="M 192.5,138.5 C 195.921,140.93 197.588,144.264 197.5,148.5C 196.973,153.185 195.639,157.519 193.5,161.5C 191.61,161.297 190.11,161.963 189,163.5C 187.71,165.792 186.043,167.792 184,169.5C 183.517,170.448 183.351,171.448 183.5,172.5C 181.801,172.34 180.134,172.506 178.5,173C 175.617,175.609 172.283,177.442 168.5,178.5C 167.749,177.624 167.249,176.624 167,175.5C 165.314,179.448 163.814,179.448 162.5,175.5C 161.957,172.962 160.957,170.628 159.5,168.5C 160.974,170.137 162.808,171.137 165,171.5C 171.994,169.082 178.161,165.249 183.5,160C 177.204,159.697 177.204,159.03 183.5,158C 182.756,156.961 181.756,156.461 180.5,156.5C 181.414,153.272 181.747,149.939 181.5,146.5C 182.325,149.372 183.159,152.372 184,155.5C 186.513,152.305 188.846,148.972 191,145.5C 191.651,143.765 191.485,142.098 190.5,140.5C 191.243,139.818 191.909,139.151 192.5,138.5 Z"/></g><g><path style="opacity:1" fill="#e36d7b" d="M 200.5,149.5 C 200.701,152.728 200.367,155.895 199.5,159C 200.833,160.333 202.167,161.667 203.5,163C 202.591,164.789 202.424,166.623 203,168.5C 203.671,169.252 204.504,169.586 205.5,169.5C 203.405,172.514 201.905,175.847 201,179.5C 195.097,183.7 188.597,186.7 181.5,188.5C 176.634,186.879 171.634,185.879 166.5,185.5C 166.5,184.5 166.5,183.5 166.5,182.5C 167.261,183.391 168.261,184.058 169.5,184.5C 172.063,184.263 172.063,183.763 169.5,183C 180.625,178.886 189.791,172.053 197,162.5C 198.581,158.204 199.748,153.871 200.5,149.5 Z"/></g><g><path style="opacity:1" fill="#0a195d" d="M 732.5,125.5 C 731.847,143.199 732.514,160.532 734.5,177.5C 742.936,177.847 751.269,177.181 759.5,175.5C 758.626,178.789 757.959,182.123 757.5,185.5C 745.167,185.5 732.833,185.5 720.5,185.5C 720.5,165.5 720.5,145.5 720.5,125.5C 724.5,125.5 728.5,125.5 732.5,125.5 Z"/></g><g><path style="opacity:1" fill="#071c51" d="M 722.5,127.5 C 723.748,128.334 724.415,129.667 724.5,131.5C 723.57,148.868 723.236,166.202 723.5,183.5C 722.5,164.845 722.167,146.179 722.5,127.5 Z"/></g><g><path style="opacity:1" fill="#ea9099" d="M 157.5,147.5 C 153.989,150.195 152.656,153.862 153.5,158.5C 155.099,158.232 156.432,158.566 157.5,159.5C 156.662,159.842 156.328,160.508 156.5,161.5C 153.061,165.115 149.727,168.949 146.5,173C 136.822,178.158 126.489,179.824 115.5,178C 110.971,176.188 107.971,173.688 106.5,170.5C 106.198,167.941 106.532,165.607 107.5,163.5C 107.565,165.696 108.232,167.696 109.5,169.5C 112.287,171.227 115.287,172.394 118.5,173C 124.833,173.667 131.167,173.667 137.5,173C 141.126,172.722 143.126,170.888 143.5,167.5C 145.451,167.773 146.951,167.107 148,165.5C 148.549,161.516 149.883,157.85 152,154.5C 152.333,151.833 152.667,149.167 153,146.5C 154.356,147.38 155.856,147.714 157.5,147.5 Z"/></g><g><path style="opacity:1" fill="#0c1a5c" d="M 779.5,125.5 C 779.5,126.167 779.5,126.833 779.5,127.5C 778.503,146.326 778.17,165.326 778.5,184.5C 774.833,184.5 771.167,184.5 767.5,184.5C 767.5,164.833 767.5,145.167 767.5,125.5C 771.5,125.5 775.5,125.5 779.5,125.5 Z"/></g><g><path style="opacity:1" fill="#131f5d" d="M 876.5,133.5 C 876.5,138.833 876.5,144.167 876.5,149.5C 885.833,150.167 895.167,150.833 904.5,151.5C 904.007,153.806 903.674,156.139 903.5,158.5C 894.5,158.5 885.5,158.5 876.5,158.5C 876.5,164.833 876.5,171.167 876.5,177.5C 872.694,178.813 873.027,179.98 877.5,181C 883.5,181.333 889.5,181.667 895.5,182C 889.309,182.272 883.143,182.772 877,183.5C 875.105,183.385 873.438,182.718 872,181.5C 871.667,182.167 871.333,182.833 871,183.5C 870.333,164.833 870.333,146.167 871,127.5C 871.308,128.308 871.808,128.975 872.5,129.5C 873.891,128.355 875.224,128.355 876.5,129.5C 874.954,130.684 873.287,131.684 871.5,132.5C 873.045,133.452 874.712,133.785 876.5,133.5 Z"/></g><g><path style="opacity:1" fill="#db95a1" d="M 70.5,182.5 C 69.6805,185.305 69.1805,188.305 69,191.5C 68.2904,190.027 67.1238,189.36 65.5,189.5C 65.5,191.167 65.5,192.833 65.5,194.5C 64.5987,193.71 63.9321,192.71 63.5,191.5C 64.1665,186.983 64.8331,182.317 65.5,177.5C 68.8488,176.17 69.1821,176.67 66.5,179C 70.3126,181.596 72.8126,180.763 74,176.5C 74.2715,179.272 75.7715,180.938 78.5,181.5C 75.9052,181.356 73.2386,181.689 70.5,182.5 Z"/></g><g><path style="opacity:1" fill="#e57581" d="M 156.5,161.5 C 157.011,164.022 158.011,166.355 159.5,168.5C 160.957,170.628 161.957,172.962 162.5,175.5C 160.488,176.014 158.488,176.18 156.5,176C 158.659,166.172 157.326,165.338 152.5,173.5C 151.571,174.689 151.238,176.022 151.5,177.5C 150.127,177.343 148.793,177.51 147.5,178C 141.229,182.978 134.062,185.145 126,184.5C 120.133,184.384 114.3,183.884 108.5,183C 106.287,180.677 103.787,178.844 101,177.5C 100.536,178.094 100.369,178.761 100.5,179.5C 98.8372,177.562 98.1706,175.228 98.5,172.5C 101.054,173.388 103.721,173.721 106.5,173.5C 106.5,172.5 106.5,171.5 106.5,170.5C 107.971,173.688 110.971,176.188 115.5,178C 126.489,179.824 136.822,178.158 146.5,173C 149.727,168.949 153.061,165.115 156.5,161.5 Z"/></g><g><path style="opacity:1" fill="#b01034" d="M 162.5,179.5 C 164.404,179.738 165.738,180.738 166.5,182.5C 166.5,183.5 166.5,184.5 166.5,185.5C 164.778,188.92 164.111,192.586 164.5,196.5C 163.5,196.5 162.5,196.5 161.5,196.5C 159.898,194.926 157.898,194.259 155.5,194.5C 152.872,192.512 150.205,190.512 147.5,188.5C 148.18,183.813 150.513,180.146 154.5,177.5C 157.13,178.378 159.797,179.045 162.5,179.5 Z"/></g><g><path style="opacity:1" fill="#e15f72" d="M 162.5,175.5 C 162.5,176.833 162.5,178.167 162.5,179.5C 159.797,179.045 157.13,178.378 154.5,177.5C 150.513,180.146 148.18,183.813 147.5,188.5C 137.635,193.015 127.302,194.515 116.5,193C 111.423,190.42 106.756,187.253 102.5,183.5C 101.295,182.423 100.628,181.09 100.5,179.5C 100.369,178.761 100.536,178.094 101,177.5C 103.787,178.844 106.287,180.677 108.5,183C 114.3,183.884 120.133,184.384 126,184.5C 134.062,185.145 141.229,182.978 147.5,178C 148.793,177.51 150.127,177.343 151.5,177.5C 151.238,176.022 151.571,174.689 152.5,173.5C 157.326,165.338 158.659,166.172 156.5,176C 158.488,176.18 160.488,176.014 162.5,175.5 Z"/></g><g><path style="opacity:1" fill="#777f9e" d="M 463.5,183.5 C 467.373,185.43 471.706,186.097 476.5,185.5C 472.03,186.486 467.363,186.819 462.5,186.5C 462.263,185.209 462.596,184.209 463.5,183.5 Z"/></g><g><path style="opacity:1" fill="#767da3" d="M 533.5,184.5 C 534.043,184.56 534.376,184.893 534.5,185.5C 529.348,186.814 524.348,186.814 519.5,185.5C 524.363,185.819 529.03,185.486 533.5,184.5 Z"/></g><g><path style="opacity:1" fill="#7a82a1" d="M 555.5,184.5 C 559.634,185.485 563.968,185.818 568.5,185.5C 563.985,186.812 559.318,186.812 554.5,185.5C 554.624,184.893 554.957,184.56 555.5,184.5 Z"/></g><g><path style="opacity:1" fill="#777f9e" d="M 625.5,183.5 C 626.478,183.811 627.145,184.478 627.5,185.5C 624.833,185.833 622.167,186.167 619.5,186.5C 616.41,186.478 613.743,185.812 611.5,184.5C 613.913,185.111 616.413,185.445 619,185.5C 621.61,185.467 623.777,184.8 625.5,183.5 Z"/></g><g><path style="opacity:1" fill="#767fa1" d="M 674.5,156.5 C 673.506,166.319 673.173,176.319 673.5,186.5C 668.968,186.818 664.634,186.485 660.5,185.5C 664.5,185.5 668.5,185.5 672.5,185.5C 672.168,175.478 672.501,165.478 673.5,155.5C 674.107,155.624 674.44,155.957 674.5,156.5 Z"/></g><g><path style="opacity:1" fill="#767e9e" d="M 714.5,183.5 C 715.404,184.209 715.737,185.209 715.5,186.5C 709.974,186.821 704.64,186.488 699.5,185.5C 704.944,186.108 709.944,185.442 714.5,183.5 Z"/></g><g><path style="opacity:1" fill="#3a4272" d="M 922.5,184.5 C 929.55,184.867 936.55,185.534 943.5,186.5C 939.019,187.648 934.352,187.815 929.5,187C 926.896,186.61 924.562,185.776 922.5,184.5 Z"/></g><g><path style="opacity:1" fill="#dc8c9e" d="M 77.5,192.5 C 77.0276,194.531 76.0276,196.198 74.5,197.5C 74.5,197.167 74.5,196.833 74.5,196.5C 75.4834,192.702 75.8168,188.702 75.5,184.5C 74.5,184.5 73.5,184.5 72.5,184.5C 72.5,187.833 72.5,191.167 72.5,194.5C 71.5318,192.393 71.1984,190.059 71.5,187.5C 70.8933,183.097 72.56,181.764 76.5,183.5C 77.4841,186.428 77.8174,189.428 77.5,192.5 Z"/></g><g><path style="opacity:1" fill="#b4173b" d="M 74.5,196.5 C 73.1667,196.5 72.5,195.833 72.5,194.5C 72.5,191.167 72.5,187.833 72.5,184.5C 73.5,184.5 74.5,184.5 75.5,184.5C 75.8168,188.702 75.4834,192.702 74.5,196.5 Z"/></g><g><path style="opacity:1" fill="#ce6d84" d="M 155.5,194.5 C 157.898,194.259 159.898,194.926 161.5,196.5C 159.102,196.741 157.102,196.074 155.5,194.5 Z"/></g><g><path style="opacity:1" fill="#c34b61" d="M 70.5,182.5 C 70.2155,184.415 70.5489,186.081 71.5,187.5C 71.1984,190.059 71.5318,192.393 72.5,194.5C 72.5,195.833 73.1667,196.5 74.5,196.5C 74.5,196.833 74.5,197.167 74.5,197.5C 70.6487,199.348 67.6487,198.348 65.5,194.5C 65.5,192.833 65.5,191.167 65.5,189.5C 67.1238,189.36 68.2904,190.027 69,191.5C 69.1805,188.305 69.6805,185.305 70.5,182.5 Z"/></g></svg>
