<svg xmlns="http://www.w3.org/2000/svg" version="1.1" width="1134px" height="639px" style="shape-rendering:geometricPrecision; text-rendering:geometricPrecision; image-rendering:optimizeQuality; fill-rule:evenodd; clip-rule:evenodd" xmlns:xlink="http://www.w3.org/1999/xlink"><g><path style="opacity:0.969" fill="#04963f" d="M 872.5,250.5 C 897.509,250.167 922.509,250.5 947.5,251.5C 931.568,296.796 915.735,342.129 900,387.5C 855.567,388.83 811.067,388.83 766.5,387.5C 801.881,341.796 837.215,296.129 872.5,250.5 Z"/></g><g><path style="opacity:1" fill="#e85c1e" d="M 812.5,333.5 C 813.539,335.901 814.873,338.235 816.5,340.5C 820.074,338.935 823.407,337.102 826.5,335C 825.314,329.73 824.314,324.563 823.5,319.5C 823.932,318.29 824.599,317.29 825.5,316.5C 825.5,316.833 825.5,317.167 825.5,317.5C 826.609,318.29 827.942,318.79 829.5,319C 828.207,319.49 826.873,319.657 825.5,319.5C 825.205,321.735 825.539,323.735 826.5,325.5C 826.408,329.059 827.241,332.392 829,335.5C 832.051,334.188 835.217,333.188 838.5,332.5C 839.324,329.215 839.824,325.882 840,322.5C 841.289,325.351 841.789,328.351 841.5,331.5C 838.194,334.354 834.194,336.021 829.5,336.5C 831.233,342.08 834.066,347.08 838,351.5C 840.539,350.294 842.372,348.461 843.5,346C 839.873,331.128 840.54,330.962 845.5,345.5C 848.167,345.833 850.833,346.167 853.5,346.5C 851.1,347.085 849.1,348.252 847.5,350C 849.25,354.08 851.417,357.913 854,361.5C 855,346.833 856,346.833 857,361.5C 859.583,357.913 861.75,354.08 863.5,350C 861.9,348.252 859.9,347.085 857.5,346.5C 860.063,346.551 862.729,346.217 865.5,345.5C 866.683,341.762 868.016,338.095 869.5,334.5C 869.833,335 870.167,335.5 870.5,336C 869.267,339.433 868.267,342.933 867.5,346.5C 868.832,348.663 870.666,350.33 873,351.5C 876.934,347.08 879.767,342.08 881.5,336.5C 878.11,335.977 874.777,335.143 871.5,334C 870.934,333.005 870.267,332.172 869.5,331.5C 869.211,328.351 869.711,325.351 871,322.5C 871.176,325.882 871.676,329.215 872.5,332.5C 875.548,333.346 878.548,334.346 881.5,335.5C 883.704,332.553 884.704,329.22 884.5,325.5C 885.461,323.735 885.795,321.735 885.5,319.5C 880.167,319.167 880.167,318.833 885.5,318.5C 885.795,316.265 885.461,314.265 884.5,312.5C 884.533,309.164 883.866,305.997 882.5,303C 878.967,303.964 875.301,304.798 871.5,305.5C 871.665,308.85 871.498,312.183 871,315.5C 870.304,312.522 869.804,309.522 869.5,306.5C 872.694,303.312 876.694,301.646 881.5,301.5C 879.767,295.92 876.934,290.92 873,286.5C 870.96,288.041 868.793,289.374 866.5,290.5C 869.002,294.632 870.002,298.966 869.5,303.5C 868.168,299.839 866.835,296.172 865.5,292.5C 862.788,291.933 860.121,291.599 857.5,291.5C 859.9,290.915 861.9,289.748 863.5,288C 861.255,283.93 859.255,279.764 857.5,275.5C 858.699,272.968 860.699,271.635 863.5,271.5C 888.129,277.295 901.463,292.795 903.5,318C 902.072,345.096 888.072,361.429 861.5,367C 837.416,368.238 820.416,357.904 810.5,336C 810.639,334.699 811.305,333.866 812.5,333.5 Z"/></g><g><path style="opacity:1" fill="#fff1e9" d="M 862.5,275.5 C 862.56,274.957 862.893,274.624 863.5,274.5C 868.359,275.267 872.692,277.101 876.5,280C 876.046,281.622 875.046,282.788 873.5,283.5C 869.815,280.809 866.148,278.142 862.5,275.5 Z"/></g><g><path style="opacity:1" fill="#fef2eb" d="M 858.5,276.5 C 863.407,277.67 867.741,280.503 871.5,285C 869.751,286.292 867.918,287.458 866,288.5C 864.226,283.93 861.726,279.93 858.5,276.5 Z"/></g><g><path style="opacity:1" fill="#e85516" d="M 856.5,277.5 C 856.82,280.898 856.487,284.232 855.5,287.5C 854.526,285.257 854.192,282.924 854.5,280.5C 854.427,278.973 855.094,277.973 856.5,277.5 Z"/></g><g><path style="opacity:1" fill="#fff7f2" d="M 878.5,280.5 C 884.965,283.798 889.965,288.631 893.5,295C 890.329,297.582 886.662,299.082 882.5,299.5C 880.888,294.281 878.221,289.614 874.5,285.5C 875.857,283.814 877.19,282.148 878.5,280.5 Z"/></g><g><path style="opacity:1" fill="#e76626" d="M 847.5,289.5 C 849.589,289.857 851.589,290.523 853.5,291.5C 853.333,291.833 853.167,292.167 853,292.5C 850.619,291.565 848.119,291.232 845.5,291.5C 845.5,290.167 846.167,289.5 847.5,289.5 Z"/></g><g><path style="opacity:1" fill="#fbf7f2" d="M 857.5,275.5 C 859.255,279.764 861.255,283.93 863.5,288C 861.9,289.748 859.9,290.915 857.5,291.5C 860.121,291.599 862.788,291.933 865.5,292.5C 866.835,296.172 868.168,299.839 869.5,303.5C 870.002,298.966 869.002,294.632 866.5,290.5C 868.793,289.374 870.96,288.041 873,286.5C 876.934,290.92 879.767,295.92 881.5,301.5C 876.694,301.646 872.694,303.312 869.5,306.5C 869.631,305.761 869.464,305.094 869,304.5C 868.329,305.252 867.496,305.586 866.5,305.5C 864.565,304.291 862.565,304.458 860.5,306C 861.793,306.49 863.127,306.657 864.5,306.5C 863.152,307.601 861.652,308.601 860,309.5C 858.181,302.922 856.681,296.255 855.5,289.5C 854.261,295.316 852.928,300.982 851.5,306.5C 850.848,305.275 849.681,304.608 848,304.5C 846.615,304.514 845.449,304.848 844.5,305.5C 843.504,305.586 842.671,305.252 842,304.5C 841.536,305.094 841.369,305.761 841.5,306.5C 840.358,304.028 838.358,303.028 835.5,303.5C 837.833,300.833 840.167,298.167 842.5,295.5C 841.844,297.484 841.178,299.484 840.5,301.5C 840.833,302.167 841.167,302.833 841.5,303.5C 843.037,299.556 844.37,295.556 845.5,291.5C 848.119,291.232 850.619,291.565 853,292.5C 853.167,292.167 853.333,291.833 853.5,291.5C 851.589,290.523 849.589,289.857 847.5,289.5C 849.482,286.19 851.815,283.19 854.5,280.5C 854.192,282.924 854.526,285.257 855.5,287.5C 856.487,284.232 856.82,280.898 856.5,277.5C 856.328,276.508 856.662,275.842 857.5,275.5 Z"/></g><g><path style="opacity:1" fill="#149946" d="M 864.5,306.5 C 864.842,305.662 865.508,305.328 866.5,305.5C 867.496,305.586 868.329,305.252 869,304.5C 869.464,305.094 869.631,305.761 869.5,306.5C 867.375,309.088 866.042,312.088 865.5,315.5C 870.232,316.35 874.899,317.516 879.5,319C 875.2,320.325 870.866,321.492 866.5,322.5C 866.005,325.878 867.005,328.878 869.5,331.5C 868.065,332.096 866.398,332.096 864.5,331.5C 863.152,330.399 861.652,329.399 860,328.5C 858.453,334.509 856.953,340.509 855.5,346.5C 854.107,340.482 852.607,334.482 851,328.5C 848.227,329.926 845.393,331.26 842.5,332.5C 841.893,332.376 841.56,332.043 841.5,331.5C 843.33,329.174 844.663,326.507 845.5,323.5C 840.833,322 836.167,320.5 831.5,319C 836.012,317.205 840.679,316.039 845.5,315.5C 844.958,312.088 843.625,309.088 841.5,306.5C 841.369,305.761 841.536,305.094 842,304.5C 842.671,305.252 843.504,305.586 844.5,305.5C 844.842,306.338 845.508,306.672 846.5,306.5C 847.848,307.601 849.348,308.601 851,309.5C 851.483,308.552 851.649,307.552 851.5,306.5C 852.928,300.982 854.261,295.316 855.5,289.5C 856.681,296.255 858.181,302.922 860,309.5C 861.652,308.601 863.152,307.601 864.5,306.5 Z"/></g><g><path style="opacity:1" fill="#e96426" d="M 845.5,291.5 C 844.37,295.556 843.037,299.556 841.5,303.5C 841.167,302.833 840.833,302.167 840.5,301.5C 841.178,299.484 841.844,297.484 842.5,295.5C 842.738,293.596 843.738,292.262 845.5,291.5 Z"/></g><g><path style="opacity:1" fill="#fff6f1" d="M 893.5,297.5 C 895.686,298.823 897.186,300.823 898,303.5C 899.895,308.325 900.728,313.325 900.5,318.5C 895.901,318.8 891.401,318.467 887,317.5C 886.854,312.534 886.021,307.7 884.5,303C 887.266,300.699 890.266,298.866 893.5,297.5 Z"/></g><g><path style="opacity:1" fill="#f59261" d="M 851.5,306.5 C 849.833,306.5 848.167,306.5 846.5,306.5C 845.508,306.672 844.842,306.338 844.5,305.5C 845.449,304.848 846.615,304.514 848,304.5C 849.681,304.608 850.848,305.275 851.5,306.5 Z"/></g><g><path style="opacity:1" fill="#ee7137" d="M 866.5,305.5 C 865.508,305.328 864.842,305.662 864.5,306.5C 863.127,306.657 861.793,306.49 860.5,306C 862.565,304.458 864.565,304.291 866.5,305.5 Z"/></g><g><path style="opacity:1" fill="#f0eee1" d="M 846.5,306.5 C 848.167,306.5 849.833,306.5 851.5,306.5C 851.649,307.552 851.483,308.552 851,309.5C 849.348,308.601 847.848,307.601 846.5,306.5 Z"/></g><g><path style="opacity:1" fill="#ec652a" d="M 835.5,304.5 C 835.5,304.167 835.5,303.833 835.5,303.5C 838.358,303.028 840.358,304.028 841.5,306.5C 840.383,318.185 839.383,317.852 838.5,305.5C 837.583,304.873 836.583,304.539 835.5,304.5 Z"/></g><g><path style="opacity:0.964" fill="#00963f" d="M 185.5,318.5 C 214.167,318.5 242.833,318.5 271.5,318.5C 271.5,324.833 271.5,331.167 271.5,337.5C 253.5,337.5 235.5,337.5 217.5,337.5C 217.5,339.833 217.5,342.167 217.5,344.5C 235.5,344.5 253.5,344.5 271.5,344.5C 271.5,350.5 271.5,356.5 271.5,362.5C 253.5,362.5 235.5,362.5 217.5,362.5C 217.5,364.5 217.5,366.5 217.5,368.5C 235.5,368.5 253.5,368.5 271.5,368.5C 271.5,374.833 271.5,381.167 271.5,387.5C 242.833,387.5 214.167,387.5 185.5,387.5C 185.5,364.5 185.5,341.5 185.5,318.5 Z"/></g><g><path style="opacity:0.967" fill="#00963f" d="M 279.5,319.5 C 290.659,318.341 301.992,318.174 313.5,319C 319.462,332.427 325.296,345.927 331,359.5C 336.224,346.052 341.724,332.719 347.5,319.5C 358.833,318.167 370.167,318.167 381.5,319.5C 371.44,341.953 361.107,364.287 350.5,386.5C 337.271,387.822 324.104,387.822 311,386.5C 300.452,364.076 289.952,341.743 279.5,319.5 Z"/></g><g><path style="opacity:0.967" fill="#00963f" d="M 402.5,318.5 C 415.504,318.333 428.504,318.5 441.5,319C 453.294,341.421 464.961,363.921 476.5,386.5C 465.167,387.833 453.833,387.833 442.5,386.5C 441.695,384.085 440.695,381.751 439.5,379.5C 428.167,378.167 416.833,378.167 405.5,379.5C 404.294,382.079 402.961,384.579 401.5,387C 390.167,387.667 378.833,387.667 367.5,387C 379.576,364.348 391.243,341.514 402.5,318.5 Z M 421.5,346.5 C 422.376,346.369 423.043,346.702 423.5,347.5C 425.372,351.412 427.372,355.245 429.5,359C 424.833,359.667 420.167,359.667 415.5,359C 417.912,355.01 419.912,350.843 421.5,346.5 Z"/></g><g><path style="opacity:0.968" fill="#00963f" d="M 523.5,318.5 C 536.504,318.333 549.504,318.5 562.5,319C 574.294,341.421 585.961,363.921 597.5,386.5C 586.167,387.833 574.833,387.833 563.5,386.5C 562.294,383.921 560.961,381.421 559.5,379C 548.485,378.168 537.485,378.334 526.5,379.5C 525.294,382.079 523.961,384.579 522.5,387C 511.167,387.667 499.833,387.667 488.5,387C 500.576,364.348 512.243,341.514 523.5,318.5 Z M 542.5,345.5 C 545.518,349.689 548.185,354.189 550.5,359C 545.798,359.828 541.131,359.662 536.5,358.5C 538.785,354.265 540.785,349.931 542.5,345.5 Z"/></g><g><path style="opacity:0.966" fill="#00963f" d="M 607.5,318.5 C 618.5,318.5 629.5,318.5 640.5,318.5C 640.5,341.5 640.5,364.5 640.5,387.5C 629.5,387.5 618.5,387.5 607.5,387.5C 607.5,364.5 607.5,341.5 607.5,318.5 Z"/></g><g><path style="opacity:0.972" fill="#00963f" d="M 654.5,318.5 C 680.169,318.333 705.835,318.5 731.5,319C 737.925,320.427 742.092,324.26 744,330.5C 744.667,337.5 744.667,344.5 744,351.5C 742.878,353.624 741.378,355.457 739.5,357C 741.777,358.613 743.277,360.78 744,363.5C 744.5,371.493 744.666,379.493 744.5,387.5C 733.5,387.5 722.5,387.5 711.5,387.5C 711.814,379.913 711.481,372.413 710.5,365C 702.841,364.5 695.174,364.334 687.5,364.5C 687.5,372.167 687.5,379.833 687.5,387.5C 676.5,387.5 665.5,387.5 654.5,387.5C 654.5,364.5 654.5,341.5 654.5,318.5 Z M 686.5,336.5 C 694.174,336.334 701.841,336.5 709.5,337C 714.107,339.235 714.441,341.902 710.5,345C 702.507,345.5 694.507,345.666 686.5,345.5C 686.5,342.5 686.5,339.5 686.5,336.5 Z"/></g><g><path style="opacity:1" fill="#fac5a4" d="M 825.5,317.5 C 827.167,317.5 828.833,317.5 830.5,317.5C 830.5,318.5 830.5,319.5 830.5,320.5C 829.167,320.5 827.833,320.5 826.5,320.5C 826.5,322.167 826.5,323.833 826.5,325.5C 825.539,323.735 825.205,321.735 825.5,319.5C 826.873,319.657 828.207,319.49 829.5,319C 827.942,318.79 826.609,318.29 825.5,317.5 Z"/></g><g><path style="opacity:1" fill="#fcf8f5" d="M 835.5,304.5 C 836.583,304.539 837.583,304.873 838.5,305.5C 839.383,317.852 840.383,318.185 841.5,306.5C 843.625,309.088 844.958,312.088 845.5,315.5C 840.679,316.039 836.012,317.205 831.5,319C 836.167,320.5 840.833,322 845.5,323.5C 844.663,326.507 843.33,329.174 841.5,331.5C 841.789,328.351 841.289,325.351 840,322.5C 839.824,325.882 839.324,329.215 838.5,332.5C 835.217,333.188 832.051,334.188 829,335.5C 827.241,332.392 826.408,329.059 826.5,325.5C 826.5,323.833 826.5,322.167 826.5,320.5C 827.833,320.5 829.167,320.5 830.5,320.5C 830.5,319.5 830.5,318.5 830.5,317.5C 828.833,317.5 827.167,317.5 825.5,317.5C 825.5,317.167 825.5,316.833 825.5,316.5C 828.833,312.5 832.167,308.5 835.5,304.5 Z"/></g><g><path style="opacity:1" fill="#fcf9f5" d="M 884.5,312.5 C 884.5,314.167 884.5,315.833 884.5,317.5C 883.167,317.5 881.833,317.5 880.5,317.5C 880.5,318.5 880.5,319.5 880.5,320.5C 881.833,320.5 883.167,320.5 884.5,320.5C 884.5,322.167 884.5,323.833 884.5,325.5C 884.704,329.22 883.704,332.553 881.5,335.5C 878.548,334.346 875.548,333.346 872.5,332.5C 871.676,329.215 871.176,325.882 871,322.5C 869.711,325.351 869.211,328.351 869.5,331.5C 867.005,328.878 866.005,325.878 866.5,322.5C 870.866,321.492 875.2,320.325 879.5,319C 874.899,317.516 870.232,316.35 865.5,315.5C 866.042,312.088 867.375,309.088 869.5,306.5C 869.804,309.522 870.304,312.522 871,315.5C 871.498,312.183 871.665,308.85 871.5,305.5C 875.301,304.798 878.967,303.964 882.5,303C 883.866,305.997 884.533,309.164 884.5,312.5 Z"/></g><g><path style="opacity:1" fill="#fcf7f2" d="M 823.5,319.5 C 824.314,324.563 825.314,329.73 826.5,335C 823.407,337.102 820.074,338.935 816.5,340.5C 814.873,338.235 813.539,335.901 812.5,333.5C 816.197,328.809 819.864,324.142 823.5,319.5 Z"/></g><g><path style="opacity:1" fill="#fac5a4" d="M 884.5,312.5 C 885.461,314.265 885.795,316.265 885.5,318.5C 880.167,318.833 880.167,319.167 885.5,319.5C 885.795,321.735 885.461,323.735 884.5,325.5C 884.5,323.833 884.5,322.167 884.5,320.5C 883.167,320.5 881.833,320.5 880.5,320.5C 880.5,319.5 880.5,318.5 880.5,317.5C 881.833,317.5 883.167,317.5 884.5,317.5C 884.5,315.833 884.5,314.167 884.5,312.5 Z"/></g><g><path style="opacity:1" fill="#fff8f3" d="M 886.5,319.5 C 891.167,319.5 895.833,319.5 900.5,319.5C 900.766,327.183 898.766,334.183 894.5,340.5C 890.926,338.935 887.593,337.102 884.5,335C 886.006,329.943 886.673,324.776 886.5,319.5 Z"/></g><g><path style="opacity:1" fill="#fcf7f2" d="M 864.5,331.5 C 866.398,332.096 868.065,332.096 869.5,331.5C 870.267,332.172 870.934,333.005 871.5,334C 874.777,335.143 878.11,335.977 881.5,336.5C 879.767,342.08 876.934,347.08 873,351.5C 870.666,350.33 868.832,348.663 867.5,346.5C 868.267,342.933 869.267,339.433 870.5,336C 870.167,335.5 869.833,335 869.5,334.5C 868.016,338.095 866.683,341.762 865.5,345.5C 862.729,346.217 860.063,346.551 857.5,346.5C 859.9,347.085 861.9,348.252 863.5,350C 861.75,354.08 859.583,357.913 857,361.5C 856,346.833 855,346.833 854,361.5C 851.417,357.913 849.25,354.08 847.5,350C 849.1,348.252 851.1,347.085 853.5,346.5C 850.833,346.167 848.167,345.833 845.5,345.5C 840.54,330.962 839.873,331.128 843.5,346C 842.372,348.461 840.539,350.294 838,351.5C 834.066,347.08 831.233,342.08 829.5,336.5C 834.194,336.021 838.194,334.354 841.5,331.5C 841.56,332.043 841.893,332.376 842.5,332.5C 845.393,331.26 848.227,329.926 851,328.5C 852.607,334.482 854.107,340.482 855.5,346.5C 856.953,340.509 858.453,334.509 860,328.5C 861.652,329.399 863.152,330.399 864.5,331.5 Z"/></g><g><path style="opacity:1" fill="#f1844d" d="M 846.5,331.5 C 847.978,331.238 849.311,331.571 850.5,332.5C 848.579,333.641 846.579,333.808 844.5,333C 845.416,332.722 846.082,332.222 846.5,331.5 Z"/></g><g><path style="opacity:1" fill="#eb6226" d="M 864.5,331.5 C 864.918,332.222 865.584,332.722 866.5,333C 864.447,333.325 862.447,332.991 860.5,332C 861.793,331.51 863.127,331.343 864.5,331.5 Z"/></g><g><path style="opacity:1" fill="#fff7f3" d="M 826.5,337.5 C 829.066,342.95 832.399,347.95 836.5,352.5C 835.185,354.316 833.685,355.983 832,357.5C 825.821,353.987 820.987,349.154 817.5,343C 820.455,341.073 823.455,339.24 826.5,337.5 Z"/></g><g><path style="opacity:1" fill="#fff7f3" d="M 883.5,337.5 C 887.043,339.06 890.377,340.893 893.5,343C 890.013,349.154 885.179,353.987 879,357.5C 877.315,355.983 875.815,354.316 874.5,352.5C 878.748,348.252 881.748,343.252 883.5,337.5 Z"/></g><g><path style="opacity:1" fill="#fef3ed" d="M 843.5,349.5 C 844.376,349.369 845.043,349.702 845.5,350.5C 853.58,364.175 851.58,365.008 839.5,353C 841.093,352.051 842.426,350.885 843.5,349.5 Z"/></g><g><path style="opacity:1" fill="#fef3ed" d="M 865.5,349.5 C 867.609,350.391 869.609,351.558 871.5,353C 868.338,357.226 864.338,359.893 859.5,361C 862.163,357.507 864.163,353.673 865.5,349.5 Z"/></g><g><path style="opacity:1" fill="#ffefe6" d="M 836.5,354.5 C 840.776,357.313 845.11,360.146 849.5,363C 843.812,363.319 838.812,361.652 834.5,358C 834.978,356.697 835.645,355.531 836.5,354.5 Z"/></g><g><path style="opacity:1" fill="#fff1e8" d="M 872.5,354.5 C 876.51,355.331 877.177,357.164 874.5,360C 870.292,361.854 865.959,362.854 861.5,363C 865.638,360.685 869.305,357.852 872.5,354.5 Z"/></g></svg>
