<svg xmlns="http://www.w3.org/2000/svg" version="1.1" width="1200px" height="630px" style="shape-rendering:geometricPrecision; text-rendering:geometricPrecision; image-rendering:optimizeQuality; fill-rule:evenodd; clip-rule:evenodd" xmlns:xlink="http://www.w3.org/1999/xlink"><g><path style="opacity:1" fill="#fefefe" d="M -0.5,-0.5 C 399.5,-0.5 799.5,-0.5 1199.5,-0.5C 1199.5,209.5 1199.5,419.5 1199.5,629.5C 799.5,629.5 399.5,629.5 -0.5,629.5C -0.5,419.5 -0.5,209.5 -0.5,-0.5 Z"/></g><g><path style="opacity:1" fill="#cc0703" d="M 684.5,259.5 C 690.467,252.57 694.634,244.57 697,235.5C 700.239,224.992 701.239,214.325 700,203.5C 704.159,210.816 707.492,218.483 710,226.5C 710.877,246.37 704.711,263.703 691.5,278.5C 691.667,278.833 691.833,279.167 692,279.5C 702.719,270.071 709.886,258.404 713.5,244.5C 716.874,259.36 714.374,273.027 706,285.5C 702.869,289.633 699.369,293.466 695.5,297C 701.767,294.087 706.934,289.587 711,283.5C 702.707,320.52 681.207,347.02 646.5,363C 590.705,382.435 544.872,368.935 509,322.5C 500.862,310.233 495.528,296.899 493,282.5C 496.682,287.861 501.182,292.027 506.5,295C 499.696,287.898 494.53,279.732 491,270.5C 490.333,261.833 490.333,253.167 491,244.5C 494.42,256.68 500.42,267.346 509,276.5C 509.837,278.007 511.004,278.507 512.5,278C 500.412,263.738 494.245,247.238 494,228.5C 496.229,220.041 499.563,212.041 504,204.5C 502.87,221.942 506.537,238.275 515,253.5C 516.697,256.02 518.53,258.353 520.5,260.5C 509.006,238.546 506.173,215.546 512,191.5C 548.035,148.827 592.535,136.661 645.5,155C 662.93,162.77 677.763,173.936 690,188.5C 693.083,193.006 694.75,198.006 695,203.5C 696.955,223.224 693.455,241.89 684.5,259.5 Z"/></g><g><path style="opacity:1" fill="#fefcfc" d="M 554.5,192.5 C 550.727,192.263 547.06,192.763 543.5,194C 544.793,194.49 546.127,194.657 547.5,194.5C 567.503,195.565 587.503,196.732 607.5,198C 615.289,201.609 616.456,206.775 611,213.5C 590.14,227.026 576.14,245.693 569,269.5C 568.833,273.333 568.667,277.167 568.5,281C 568.233,287.756 569.067,294.256 571,300.5C 567.412,295.324 564.912,289.657 563.5,283.5C 529.837,257.667 521.67,225.334 539,186.5C 559.334,154.929 587.834,143.762 624.5,153C 659.147,166.665 675.647,192.165 674,229.5C 671.604,247.793 663.771,263.293 650.5,276C 637.438,285.894 623.771,286.894 609.5,279C 599.624,270.12 596.791,259.286 601,246.5C 607.439,233.139 616.605,221.973 628.5,213C 634.66,208.42 640.993,204.086 647.5,200C 642.167,194.333 636.833,188.667 631.5,183C 619.825,176.968 609.492,178.635 600.5,188C 585.176,189.679 569.842,191.179 554.5,192.5 Z"/></g><g><path style="opacity:1" fill="#e1635e" d="M 554.5,192.5 C 552.167,193.167 549.833,193.833 547.5,194.5C 546.127,194.657 544.793,194.49 543.5,194C 547.06,192.763 550.727,192.263 554.5,192.5 Z"/></g><g><path style="opacity:1" fill="#efacab" d="M 684.5,259.5 C 684.539,260.756 684.039,261.756 683,262.5C 682.415,261.002 682.915,260.002 684.5,259.5 Z"/></g><g><path style="opacity:1" fill="#ea8f8d" d="M 520.5,260.5 C 522.085,261.002 522.585,262.002 522,263.5C 520.961,262.756 520.461,261.756 520.5,260.5 Z"/></g><g><path style="opacity:1" fill="#fef8f8" d="M 575.5,309.5 C 580.511,309.334 585.511,309.501 590.5,310C 587.147,318.542 583.647,327.042 580,335.5C 576.748,339.366 572.581,341.533 567.5,342C 562.167,342.667 556.833,342.667 551.5,342C 550.405,339.731 550.739,337.564 552.5,335.5C 555.785,334.676 559.118,334.176 562.5,334C 564.286,333.215 565.786,332.049 567,330.5C 569.743,323.431 572.577,316.431 575.5,309.5 Z"/></g><g><path style="opacity:1" fill="#fef9f9" d="M 609.5,309.5 C 614.833,309.5 620.167,309.5 625.5,309.5C 626.662,320.132 627.329,330.799 627.5,341.5C 622.5,341.5 617.5,341.5 612.5,341.5C 612.5,339.5 612.5,337.5 612.5,335.5C 607.821,335.334 603.155,335.501 598.5,336C 596.787,337.378 595.453,339.045 594.5,341C 590.167,341.667 585.833,341.667 581.5,341C 590.727,330.28 600.061,319.78 609.5,309.5 Z"/></g><g><path style="opacity:1" fill="#fefcfc" d="M 650.5,334.5 C 656.5,335.167 662.5,335.833 668.5,336.5C 668.579,337.93 668.246,339.264 667.5,340.5C 655.833,341.833 644.167,341.833 632.5,340.5C 636.5,330.5 640.5,320.5 644.5,310.5C 649.5,309.167 654.5,309.167 659.5,310.5C 656.487,318.521 653.487,326.521 650.5,334.5 Z"/></g><g><path style="opacity:1" fill="#d2281d" d="M 610.5,319.5 C 612.402,322.337 613.069,325.671 612.5,329.5C 609.753,329.813 607.086,329.48 604.5,328.5C 606.769,325.615 608.769,322.615 610.5,319.5 Z"/></g><g><path style="opacity:1" fill="#f2bebe" d="M 650.5,334.5 C 656.868,334.17 663.202,334.504 669.5,335.5C 669.376,336.107 669.043,336.44 668.5,336.5C 662.5,335.833 656.5,335.167 650.5,334.5 Z"/></g><g><path style="opacity:1" fill="#afafaf" d="M 334.5,420.5 C 339.68,419.185 345.014,419.185 350.5,420.5C 350.376,421.107 350.043,421.44 349.5,421.5C 344.695,420.513 339.695,420.179 334.5,420.5 Z"/></g><g><path style="opacity:1" fill="#adadad" d="M 690.5,420.5 C 695.64,419.512 700.974,419.179 706.5,419.5C 706.737,420.791 706.404,421.791 705.5,422.5C 700.944,420.558 695.944,419.892 690.5,420.5 Z"/></g><g><path style="opacity:1" fill="#afafaf" d="M 806.5,420.5 C 819.006,419.175 831.673,419.175 844.5,420.5C 844.376,421.107 844.043,421.44 843.5,421.5C 831.345,420.505 819.011,420.171 806.5,420.5 Z"/></g><g><path style="opacity:1" fill="#0a0a0a" d="M 860.5,419.5 C 868.585,419.099 876.585,419.599 884.5,421C 888.488,422.484 890.154,425.317 889.5,429.5C 884.456,429.827 879.456,429.494 874.5,428.5C 874.291,427.914 873.957,427.414 873.5,427C 869.428,426.044 865.595,426.544 862,428.5C 861.342,430.108 861.842,431.275 863.5,432C 868.53,432.448 873.53,433.114 878.5,434C 886.738,436.844 887.738,441.511 881.5,448C 870.352,453.623 858.685,454.957 846.5,452C 842.199,450.215 840.199,447.048 840.5,442.5C 845.875,442.172 851.208,442.505 856.5,443.5C 856.709,444.086 857.043,444.586 857.5,445C 859.167,445.167 860.833,445.333 862.5,445.5C 865.011,445.712 867.178,445.045 869,443.5C 869.684,442.216 869.517,441.049 868.5,440C 863.185,439.187 857.852,438.521 852.5,438C 844.851,434.06 844.518,429.393 851.5,424C 854.592,422.454 857.592,420.954 860.5,419.5 Z"/></g><g><path style="opacity:1" fill="#070707" d="M 334.5,420.5 C 339.695,420.179 344.695,420.513 349.5,421.5C 346.909,428.104 344.409,434.771 342,441.5C 339.112,448.386 333.945,452.219 326.5,453C 321.167,453.667 315.833,453.667 310.5,453C 310.043,452.586 309.709,452.086 309.5,451.5C 310.747,449.677 311.414,447.677 311.5,445.5C 315.182,445.665 318.848,445.499 322.5,445C 323.931,444.535 325.097,443.701 326,442.5C 329.124,435.257 331.957,427.923 334.5,420.5 Z"/></g><g><path style="opacity:1" fill="#080808" d="M 369.5,420.5 C 375.167,420.5 380.833,420.5 386.5,420.5C 386.652,431.202 387.319,441.868 388.5,452.5C 383.5,452.5 378.5,452.5 373.5,452.5C 373.5,450.5 373.5,448.5 373.5,446.5C 368.489,446.334 363.489,446.501 358.5,447C 357.547,448.955 356.213,450.622 354.5,452C 350.459,452.827 346.459,452.66 342.5,451.5C 351.208,440.801 360.208,430.467 369.5,420.5 Z"/></g><g><path style="opacity:1" fill="#060606" d="M 404.5,420.5 C 415.838,420.333 427.172,420.5 438.5,421C 446.035,423.266 447.535,427.766 443,434.5C 439.372,437.49 435.205,439.323 430.5,440C 424.5,440.333 418.5,440.667 412.5,441C 410.47,444.589 409.137,448.422 408.5,452.5C 403.125,452.828 397.792,452.495 392.5,451.5C 396.899,441.3 400.899,430.967 404.5,420.5 Z"/></g><g><path style="opacity:1" fill="#070707" d="M 462.5,420.5 C 467.833,420.5 473.167,420.5 478.5,420.5C 479.62,431.154 480.62,441.821 481.5,452.5C 476.5,452.5 471.5,452.5 466.5,452.5C 466.5,450.5 466.5,448.5 466.5,446.5C 461.489,446.334 456.489,446.501 451.5,447C 450.167,448.667 448.833,450.333 447.5,452C 443.167,452.667 438.833,452.667 434.5,452C 443.727,441.28 453.061,430.78 462.5,420.5 Z"/></g><g><path style="opacity:1" fill="#050505" d="M 497.5,420.5 C 502.511,420.334 507.511,420.501 512.5,421C 515.206,426.247 518.04,431.414 521,436.5C 523.313,431.376 525.48,426.209 527.5,421C 531.541,420.173 535.541,420.34 539.5,421.5C 535.593,431.723 531.593,441.89 527.5,452C 523.5,452.667 519.5,452.667 515.5,452C 511.873,445.915 508.373,439.748 505,433.5C 502.629,439.738 500.129,445.905 497.5,452C 493.459,452.827 489.459,452.66 485.5,451.5C 489.508,441.138 493.508,430.805 497.5,420.5 Z"/></g><g><path style="opacity:1" fill="#090909" d="M 578.5,420.5 C 584.167,420.5 589.833,420.5 595.5,420.5C 596.17,431.202 597.17,441.869 598.5,452.5C 593.167,452.5 587.833,452.5 582.5,452.5C 582.5,450.5 582.5,448.5 582.5,446.5C 577.821,446.334 573.155,446.501 568.5,447C 566.787,448.378 565.453,450.045 564.5,452C 560.167,452.667 555.833,452.667 551.5,452C 560.71,441.628 569.71,431.128 578.5,420.5 Z"/></g><g><path style="opacity:1" fill="#050505" d="M 614.5,420.5 C 619.544,420.173 624.544,420.506 629.5,421.5C 625.5,431.5 621.5,441.5 617.5,451.5C 612.5,452.833 607.5,452.833 602.5,451.5C 606.508,441.138 610.508,430.805 614.5,420.5 Z"/></g><g><path style="opacity:1" fill="#050505" d="M 638.5,420.5 C 649.838,420.333 661.172,420.5 672.5,421C 682.03,424.131 683.03,429.131 675.5,436C 672.583,437.233 669.916,438.733 667.5,440.5C 668.539,444.452 669.873,448.285 671.5,452C 665.833,452.667 660.167,452.667 654.5,452C 651.3,436.894 647.3,436.728 642.5,451.5C 637.544,452.494 632.544,452.827 627.5,452.5C 631.167,441.833 634.833,431.167 638.5,420.5 Z"/></g><g><path style="opacity:1" fill="#050505" d="M 690.5,420.5 C 695.944,419.892 700.944,420.558 705.5,422.5C 702.405,429.948 699.405,437.448 696.5,445C 702.825,445.5 709.158,445.666 715.5,445.5C 715.414,447.677 714.747,449.677 713.5,451.5C 701.848,452.666 690.181,452.833 678.5,452C 682.797,441.61 686.797,431.11 690.5,420.5 Z"/></g><g><path style="opacity:1" fill="#050505" d="M 729.5,420.5 C 734.844,420.334 740.177,420.501 745.5,421C 741.407,431.11 737.407,441.277 733.5,451.5C 728.544,452.494 723.544,452.827 718.5,452.5C 722.167,441.833 725.833,431.167 729.5,420.5 Z"/></g><g><path style="opacity:1" fill="#050505" d="M 754.5,420.5 C 759.511,420.334 764.511,420.501 769.5,421C 772.626,426.085 775.626,431.251 778.5,436.5C 780.772,431.621 782.772,426.621 784.5,421.5C 788.795,420.339 793.129,420.172 797.5,421C 792.807,431.246 788.807,441.746 785.5,452.5C 781.116,452.826 776.783,452.492 772.5,451.5C 769.419,445.669 766.085,440.002 762.5,434.5C 759.611,440.279 757.278,446.279 755.5,452.5C 751.154,452.666 746.821,452.499 742.5,452C 746.797,441.61 750.797,431.11 754.5,420.5 Z"/></g><g><path style="opacity:1" fill="#070707" d="M 806.5,420.5 C 819.011,420.171 831.345,420.505 843.5,421.5C 842.933,423.03 842.267,424.53 841.5,426C 834.144,426.169 826.811,426.669 819.5,427.5C 818.826,429.195 818.159,430.862 817.5,432.5C 823.406,432.854 829.073,433.854 834.5,435.5C 833.766,436.708 833.433,438.041 833.5,439.5C 827.132,439.17 820.798,439.504 814.5,440.5C 813.926,442.059 813.26,443.559 812.5,445C 819.833,445.333 827.167,445.667 834.5,446C 833.331,448.007 832.665,450.173 832.5,452.5C 819.829,452.667 807.162,452.5 794.5,452C 798.797,441.61 802.797,431.11 806.5,420.5 Z"/></g><g><path style="opacity:1" fill="#f8f8f8" d="M 417.5,426.5 C 421.182,426.335 424.848,426.501 428.5,427C 430.223,430.408 429.223,432.741 425.5,434C 421.833,434.667 418.167,434.667 414.5,434C 415.642,431.55 416.642,429.05 417.5,426.5 Z"/></g><g><path style="opacity:1" fill="#f4f4f4" d="M 651.5,426.5 C 655.514,426.334 659.514,426.501 663.5,427C 665.223,430.408 664.223,432.741 660.5,434C 656.789,434.825 653.122,434.659 649.5,433.5C 650.577,431.271 651.244,428.937 651.5,426.5 Z"/></g><g><path style="opacity:1" fill="#f4f4f4" d="M 372.5,439.5 C 369.941,439.802 367.607,439.468 365.5,438.5C 367.833,435.997 369.999,433.331 372,430.5C 372.498,433.482 372.665,436.482 372.5,439.5 Z"/></g><g><path style="opacity:1" fill="#f6f6f6" d="M 465.5,439.5 C 462.941,439.802 460.607,439.468 458.5,438.5C 460.419,435.681 462.585,433.014 465,430.5C 465.498,433.482 465.665,436.482 465.5,439.5 Z"/></g><g><path style="opacity:1" fill="#eeeeee" d="M 580.5,430.5 C 582.388,432.988 583.055,435.988 582.5,439.5C 579.813,439.664 577.146,439.497 574.5,439C 576.888,436.371 578.888,433.538 580.5,430.5 Z"/></g><g><path style="opacity:1" fill="#606060" d="M 817.5,432.5 C 823.5,432.5 829.5,432.5 835.5,432.5C 835.737,433.791 835.404,434.791 834.5,435.5C 829.073,433.854 823.406,432.854 817.5,432.5 Z"/></g><g><path style="opacity:1" fill="#5e5e5e" d="M 365.5,438.5 C 367.607,439.468 369.941,439.802 372.5,439.5C 369.976,440.8 367.309,440.8 364.5,439.5C 364.624,438.893 364.957,438.56 365.5,438.5 Z"/></g><g><path style="opacity:1" fill="#636363" d="M 458.5,438.5 C 460.607,439.468 462.941,439.802 465.5,439.5C 462.976,440.8 460.309,440.8 457.5,439.5C 457.624,438.893 457.957,438.56 458.5,438.5 Z"/></g></svg>
