<svg xmlns="http://www.w3.org/2000/svg" version="1.1" width="275px" height="175px" style="shape-rendering:geometricPrecision; text-rendering:geometricPrecision; image-rendering:optimizeQuality; fill-rule:evenodd; clip-rule:evenodd" xmlns:xlink="http://www.w3.org/1999/xlink"><g><path style="opacity:0.976" fill="#fd5814" d="M 211.5,59.5 C 213.078,64.5826 213.745,69.916 213.5,75.5C 221.174,75.3336 228.841,75.5003 236.5,76C 229.305,81.3611 221.972,86.5278 214.5,91.5C 216.642,99.1875 217.975,106.854 218.5,114.5C 212.467,109.297 206.3,104.297 200,99.5C 191.948,103.109 184.115,107.109 176.5,111.5C 176.167,111.167 175.833,110.833 175.5,110.5C 180.044,103.912 184.711,97.4118 189.5,91C 184.815,86.4495 180.482,81.6161 176.5,76.5C 184.145,75.6685 191.812,75.1685 199.5,75C 203.333,69.6718 207.333,64.5051 211.5,59.5 Z"/></g><g><path style="opacity:0.918" fill="#0f0d0b" d="M 51.5,72.5 C 54.5,72.5 57.5,72.5 60.5,72.5C 60.3339,78.1764 60.5006,83.8431 61,89.5C 64.834,80.8796 71.334,78.0462 80.5,81C 82.5701,81.9476 84.0701,83.4476 85,85.5C 85.4935,83.8659 85.6602,82.1992 85.5,80.5C 86.8333,80.5 88.1667,80.5 89.5,80.5C 89.5,78.1667 89.5,75.8333 89.5,73.5C 92.1667,73.5 94.8333,73.5 97.5,73.5C 97.5,75.8333 97.5,78.1667 97.5,80.5C 99.1667,80.5 100.833,80.5 102.5,80.5C 102.343,81.8734 102.51,83.2068 103,84.5C 109.734,78.352 116.734,78.0186 124,83.5C 124.483,82.552 124.649,81.552 124.5,80.5C 125.833,80.5 127.167,80.5 128.5,80.5C 128.5,78.1667 128.5,75.8333 128.5,73.5C 131.5,73.5 134.5,73.5 137.5,73.5C 137.5,75.8333 137.5,78.1667 137.5,80.5C 139.167,80.5 140.833,80.5 142.5,80.5C 142.5,82.5 142.5,84.5 142.5,86.5C 140.833,86.5 139.167,86.5 137.5,86.5C 137.335,90.1817 137.501,93.8484 138,97.5C 139.356,98.3802 140.856,98.7135 142.5,98.5C 142.247,96.1727 142.914,94.1727 144.5,92.5C 148.646,90.7526 152.979,89.7526 157.5,89.5C 157.5,88.5 157.5,87.5 157.5,86.5C 152.703,88.1989 147.703,88.6989 142.5,88C 144.451,82.0669 148.618,79.2335 155,79.5C 160.031,79.2133 163.698,81.2133 166,85.5C 166.494,83.8659 166.66,82.1992 166.5,80.5C 170.03,79.9889 173.196,80.6556 176,82.5C 176.414,82.0426 176.914,81.7093 177.5,81.5C 179.984,83.483 182.317,85.6496 184.5,88C 181.549,88.096 178.882,88.9293 176.5,90.5C 175.552,95.4351 175.219,100.435 175.5,105.5C 169.369,106.092 163.536,105.425 158,103.5C 152.701,107.76 147.701,107.426 143,102.5C 142.517,103.448 142.351,104.448 142.5,105.5C 138.089,105.979 133.922,105.312 130,103.5C 128.649,97.9284 128.149,92.2617 128.5,86.5C 126.257,87.3123 123.924,87.9789 121.5,88.5C 118.312,87.1605 114.978,86.6605 111.5,87C 115.847,88.7717 120.18,90.6051 124.5,92.5C 127.27,96.4291 126.937,100.096 123.5,103.5C 116.126,107.855 109.293,107.188 103,101.5C 102.51,102.793 102.343,104.127 102.5,105.5C 99.1501,105.665 95.8168,105.498 92.5,105C 91.6919,104.692 91.0253,104.192 90.5,103.5C 89.5456,97.8955 89.2123,92.2289 89.5,86.5C 88.1266,86.3433 86.7932,86.51 85.5,87C 86.713,89.6865 87.3797,92.5198 87.5,95.5C 81.4908,95.3338 75.4908,95.5005 69.5,96C 70.1367,98.3059 71.6367,99.4725 74,99.5C 77.9764,97.4485 82.1431,97.1152 86.5,98.5C 84.2172,103.648 80.2172,106.314 74.5,106.5C 67.3186,106.67 62.8186,103.336 61,96.5C 60.1582,103.171 56.3248,106.504 49.5,106.5C 40.5298,105.587 36.5298,100.587 37.5,91.5C 40.5,91.5 43.5,91.5 46.5,91.5C 46.3398,93.1992 46.5065,94.8659 47,96.5C 48.3333,97.8333 49.6667,97.8333 51,96.5C 51.4997,88.5069 51.6664,80.5069 51.5,72.5 Z M 71.5,86.5 C 73.9775,86.0508 75.9775,86.7175 77.5,88.5C 75.1667,89.8333 72.8333,89.8333 70.5,88.5C 70.8627,87.8165 71.1961,87.1499 71.5,86.5 Z M 97.5,86.5 C 99.1667,86.5 100.833,86.5 102.5,86.5C 102.317,88.9363 102.984,91.103 104.5,93C 108.932,94.5197 113.265,96.1864 117.5,98C 116.57,98.9907 115.404,99.4907 114,99.5C 111.823,97.9489 109.323,96.9489 106.5,96.5C 104.392,96.8599 102.392,97.5266 100.5,98.5C 99.8333,98.1667 99.1667,97.8333 98.5,97.5C 97.5741,93.9062 97.2408,90.2396 97.5,86.5 Z M 156.5,94.5 C 158.157,98.3557 156.824,100.189 152.5,100C 151.833,99.3333 151.167,98.6667 150.5,98C 152.257,96.2505 154.257,95.0838 156.5,94.5 Z"/></g></svg>
