<svg xmlns="http://www.w3.org/2000/svg" version="1.1" width="280px" height="280px" style="shape-rendering:geometricPrecision; text-rendering:geometricPrecision; image-rendering:optimizeQuality; fill-rule:evenodd; clip-rule:evenodd" xmlns:xlink="http://www.w3.org/1999/xlink"><g><path style="opacity:1" fill="#fefefe" d="M -0.5,-0.5 C 92.8333,-0.5 186.167,-0.5 279.5,-0.5C 279.5,92.8333 279.5,186.167 279.5,279.5C 186.167,279.5 92.8333,279.5 -0.5,279.5C -0.5,186.167 -0.5,92.8333 -0.5,-0.5 Z"/></g><g><path style="opacity:1" fill="#dcb1d1" d="M 235.5,99.5 C 231.833,99.5 228.167,99.5 224.5,99.5C 224.5,120.5 224.5,141.5 224.5,162.5C 223.503,141.34 223.169,120.007 223.5,98.5C 227.702,98.1832 231.702,98.5166 235.5,99.5 Z"/></g><g><path style="opacity:1" fill="#a73c8e" d="M 235.5,99.5 C 235.5,120.5 235.5,141.5 235.5,162.5C 231.833,162.5 228.167,162.5 224.5,162.5C 224.5,141.5 224.5,120.5 224.5,99.5C 228.167,99.5 231.833,99.5 235.5,99.5 Z"/></g><g><path style="opacity:1" fill="#a93f90" d="M 39.5,115.5 C 56.8086,114.476 66.8086,122.476 69.5,139.5C 66.0076,158.589 54.6742,166.255 35.5,162.5C 35.3342,157.821 35.5008,153.155 36,148.5C 42.579,153.908 48.9123,153.575 55,147.5C 60.2478,132.849 55.0811,126.349 39.5,128C 37.9095,129.046 36.4095,130.213 35,131.5C 33.0335,128.399 31.2002,125.232 29.5,122C 32.391,119.061 35.7244,116.894 39.5,115.5 Z"/></g><g><path style="opacity:1" fill="#a83f8f" d="M 90.5,115.5 C 110.035,114.702 119.701,124.036 119.5,143.5C 107.833,143.5 96.1667,143.5 84.5,143.5C 85.9925,148.98 89.6591,151.98 95.5,152.5C 99.657,152.345 102.99,150.678 105.5,147.5C 120.564,143.924 122.564,147.424 111.5,158C 93.2083,168.458 80.0416,163.958 72,144.5C 70.6107,129.933 76.7774,120.267 90.5,115.5 Z"/></g><g><path style="opacity:1" fill="#a94191" d="M 9.5,115.5 C 15.2182,116.026 20.2182,118.193 24.5,122C 21.8983,124.772 19.8983,127.939 18.5,131.5C 16.1019,128.801 13.1019,127.467 9.5,127.5C 9.5,123.5 9.5,119.5 9.5,115.5 Z"/></g><g><path style="opacity:1" fill="#a83e8f" d="M 154.5,149.5 C 155.483,153.298 155.817,157.298 155.5,161.5C 139.296,166.314 128.463,160.647 123,144.5C 121.735,127.764 129.402,118.097 146,115.5C 157.98,116.142 165.98,122.142 170,133.5C 170.5,143.161 170.666,152.828 170.5,162.5C 166.833,162.5 163.167,162.5 159.5,162.5C 159.666,153.827 159.5,145.16 159,136.5C 155.037,127.607 148.537,125.107 139.5,129C 130.666,138.329 132,145.996 143.5,152C 147.462,152.514 151.129,151.68 154.5,149.5 Z"/></g><g><path style="opacity:1" fill="#a94090" d="M 191.5,115.5 C 201.826,114.248 210.326,117.582 217,125.5C 218.559,127.217 219.392,129.217 219.5,131.5C 215.154,131.666 210.821,131.499 206.5,131C 198.961,125.738 192.128,126.571 186,133.5C 183.261,142.19 186.094,148.356 194.5,152C 199.155,152.671 203.155,151.337 206.5,148C 210.821,147.501 215.154,147.334 219.5,147.5C 217.131,155.553 211.798,160.72 203.5,163C 182.344,164.51 172.51,154.677 174,133.5C 177.353,124.982 183.186,118.982 191.5,115.5 Z"/></g><g><path style="opacity:1" fill="#aa4291" d="M 241.5,115.5 C 256.127,114.624 265.294,121.29 269,135.5C 269.5,144.494 269.666,153.494 269.5,162.5C 265.5,162.5 261.5,162.5 257.5,162.5C 257.666,153.494 257.5,144.494 257,135.5C 252.897,126.988 246.897,125.321 239,130.5C 238.501,125.845 238.334,121.179 238.5,116.5C 239.791,116.737 240.791,116.404 241.5,115.5 Z"/></g><g><path style="opacity:1" fill="#ab4593" d="M 25.5,124.5 C 26.4959,124.414 27.3292,124.748 28,125.5C 29.6079,128.382 30.9413,131.382 32,134.5C 32.4999,149.83 32.6666,165.163 32.5,180.5C 28.5,180.5 24.5,180.5 20.5,180.5C 20.3334,165.163 20.5001,149.83 21,134.5C 22.2545,130.996 23.7545,127.663 25.5,124.5 Z"/></g><g><path style="opacity:1" fill="#fdfafc" d="M 106.5,133.5 C 99.3134,133.825 92.3134,133.491 85.5,132.5C 87.7129,128.727 91.0462,127.06 95.5,127.5C 100.522,127.175 104.188,129.175 106.5,133.5 Z"/></g><g><path style="opacity:1" fill="#dfb9d6" d="M 85.5,132.5 C 92.3134,133.491 99.3134,133.825 106.5,133.5C 103.759,134.204 100.259,134.537 96,134.5C 92.1667,134.167 88.3333,133.833 84.5,133.5C 84.6236,132.893 84.9569,132.56 85.5,132.5 Z"/></g><g><path style="opacity:1" fill="#c177af" d="M 154.5,149.5 C 154.56,148.957 154.893,148.624 155.5,148.5C 156.811,152.984 156.811,157.317 155.5,161.5C 155.817,157.298 155.483,153.298 154.5,149.5 Z"/></g></svg>
