<svg xmlns="http://www.w3.org/2000/svg" version="1.1" width="1400px" height="745px" style="shape-rendering:geometricPrecision; text-rendering:geometricPrecision; image-rendering:optimizeQuality; fill-rule:evenodd; clip-rule:evenodd" xmlns:xlink="http://www.w3.org/1999/xlink"><g><path style="opacity:1" fill="#fefefe" d="M -0.5,-0.5 C 466.167,-0.5 932.833,-0.5 1399.5,-0.5C 1399.5,247.833 1399.5,496.167 1399.5,744.5C 932.833,744.5 466.167,744.5 -0.5,744.5C -0.5,496.167 -0.5,247.833 -0.5,-0.5 Z"/></g><g><path style="opacity:1" fill="#f3ba04" d="M 1008.5,309.5 C 947.948,317.11 895.615,341.943 851.5,384C 834.105,400.879 818.439,419.045 804.5,438.5C 818.488,412.527 832.488,386.527 846.5,360.5C 827.34,343.509 808.007,326.676 788.5,310C 816.833,309.667 845.167,309.333 873.5,309C 888.127,282.246 902.627,255.413 917,228.5C 920.741,255.43 923.908,282.43 926.5,309.5C 953.833,309.5 981.167,309.5 1008.5,309.5 Z"/></g><g><path style="opacity:1" fill="#072880" d="M 402.5,309.5 C 431.174,309.167 459.841,309.5 488.5,310.5C 485.362,318.581 482.029,326.581 478.5,334.5C 454.84,335.333 431.174,335.833 407.5,336C 401.913,336.847 397.746,339.681 395,344.5C 393.943,348.886 395.443,352.053 399.5,354C 414.094,358.252 428.76,362.252 443.5,366C 460.255,371.356 466.755,382.522 463,399.5C 455.444,422.724 439.61,436.224 415.5,440C 386.522,441.765 357.522,441.932 328.5,440.5C 332.073,431.942 335.74,423.442 339.5,415C 361.167,414.667 382.833,414.333 404.5,414C 411.319,413.622 417.152,411.122 422,406.5C 425.777,401.74 425.277,397.573 420.5,394C 415.322,391.607 409.988,389.607 404.5,388C 389.893,385.936 376.226,381.269 363.5,374C 354.261,366.12 352.095,356.62 357,345.5C 365.249,324.75 380.416,312.75 402.5,309.5 Z"/></g><g><path style="opacity:1" fill="#072880" d="M 520.5,309.5 C 533.184,309.168 545.851,309.501 558.5,310.5C 551.349,327.027 544.683,343.36 538.5,359.5C 558.02,342.812 577.687,326.312 597.5,310C 612.833,309.333 628.167,309.333 643.5,310C 621.469,327.009 599.469,344.009 577.5,361C 586.272,387.59 595.272,414.09 604.5,440.5C 589.5,441.833 574.5,441.833 559.5,440.5C 554.168,422.505 548.834,404.505 543.5,386.5C 535.193,392.307 527.026,398.307 519,404.5C 513.922,416.575 508.756,428.575 503.5,440.5C 490.833,441.833 478.167,441.833 465.5,440.5C 484.122,396.927 502.455,353.26 520.5,309.5 Z"/></g><g><path style="opacity:1" fill="#072880" d="M 649.5,309.5 C 663.833,309.5 678.167,309.5 692.5,309.5C 691.583,326.173 690.583,342.84 689.5,359.5C 689.833,360.5 690.167,361.5 690.5,362.5C 707.682,345.152 724.682,327.652 741.5,310C 755.833,309.333 770.167,309.333 784.5,310C 755,337.5 725.5,365 696,392.5C 689.069,408.459 682.236,424.459 675.5,440.5C 662.833,441.833 650.167,441.833 637.5,440.5C 644.896,423.973 651.896,407.306 658.5,390.5C 655.828,363.44 652.828,336.44 649.5,309.5 Z"/></g><g><path style="opacity:1" fill="#062881" d="M 1011.5,309.5 C 1031.84,309.167 1052.18,309.5 1072.5,310.5C 1054.17,353.833 1035.83,397.167 1017.5,440.5C 946.334,441.832 875.334,441.832 804.5,440.5C 830.483,424.193 856.483,407.86 882.5,391.5C 901.833,407.833 921.167,424.167 940.5,440.5C 940.833,439.833 941.167,439.167 941.5,438.5C 938.796,412.626 935.796,386.793 932.5,361C 958.527,343.322 984.861,326.156 1011.5,309.5 Z"/></g><g><path style="opacity:1" fill="#fce107" d="M 1008.5,309.5 C 1009.5,309.5 1010.5,309.5 1011.5,309.5C 984.861,326.156 958.527,343.322 932.5,361C 935.796,386.793 938.796,412.626 941.5,438.5C 941.167,439.167 940.833,439.833 940.5,440.5C 921.167,424.167 901.833,407.833 882.5,391.5C 856.483,407.86 830.483,424.193 804.5,440.5C 803.494,440.062 803.494,439.396 804.5,438.5C 818.439,419.045 834.105,400.879 851.5,384C 895.615,341.943 947.948,317.11 1008.5,309.5 Z"/></g></svg>
