<svg xmlns="http://www.w3.org/2000/svg" version="1.1" width="552px" height="164px" style="shape-rendering:geometricPrecision; text-rendering:geometricPrecision; image-rendering:optimizeQuality; fill-rule:evenodd; clip-rule:evenodd" xmlns:xlink="http://www.w3.org/1999/xlink"><g><path style="opacity:1" fill="#fefefe" d="M -0.5,-0.5 C 183.5,-0.5 367.5,-0.5 551.5,-0.5C 551.5,54.1667 551.5,108.833 551.5,163.5C 367.5,163.5 183.5,163.5 -0.5,163.5C -0.5,149.5 -0.5,135.5 -0.5,121.5C 12.3942,127.163 25.0609,126.663 37.5,120C 45.8378,112.844 47.5045,104.51 42.5,95C 37.1342,92.1506 31.4676,90.1506 25.5,89C 22.8333,87 22.8333,85 25.5,83C 31.0753,80.8478 36.242,81.6812 41,85.5C 43.549,82.235 45.7157,78.735 47.5,75C 36.9379,69.0662 26.2712,69.0662 15.5,75C 8.05268,80.4029 5.55268,87.5695 8,96.5C 8.78451,98.286 9.95118,99.786 11.5,101C 16.2361,103.435 21.2361,105.101 26.5,106C 29.3707,108.84 29.0374,111.174 25.5,113C 18.4259,114.465 11.9259,113.299 6,109.5C 4.05831,113.069 1.89164,116.402 -0.5,119.5C -0.5,79.5 -0.5,39.5 -0.5,-0.5 Z"/></g><g><path style="opacity:1" fill="#c5d709" d="M 513.5,5.5 C 533.597,4.41683 540.764,13.4168 535,32.5C 527.321,43.7265 517.155,46.8932 504.5,42C 493.399,30.1017 494.399,19.1017 507.5,9C 509.727,8.05898 511.727,6.89232 513.5,5.5 Z"/></g><g><path style="opacity:1" fill="#70b42c" d="M 447.5,48.5 C 463.003,48.6757 467.003,55.509 459.5,69C 453.695,73.2951 447.862,73.4618 442,69.5C 437.32,60.6879 439.154,53.6879 447.5,48.5 Z"/></g><g><path style="opacity:1" fill="#c5d70b" d="M 446.5,120.5 C 457.625,125.69 468.625,125.357 479.5,119.5C 492.168,114.754 501.668,106.42 508,94.5C 511.621,84.2957 515.621,74.2957 520,64.5C 528.447,56.0684 537.447,55.4017 547,62.5C 550.38,68.0072 551.38,74.0072 550,80.5C 535.03,120.903 506.197,138.07 463.5,132C 456.729,129.628 451.062,125.795 446.5,120.5 Z"/></g><g><path style="opacity:1" fill="#838578" d="M 376.5,68.5 C 385.111,67.9238 388.278,71.5904 386,79.5C 380.75,85.1731 376.084,84.8398 372,78.5C 371.333,77.1667 371.333,75.8333 372,74.5C 373.332,72.34 374.832,70.34 376.5,68.5 Z"/></g><g><path style="opacity:1" fill="#818375" d="M -0.5,121.5 C -0.5,120.833 -0.5,120.167 -0.5,119.5C 1.89164,116.402 4.05831,113.069 6,109.5C 11.9259,113.299 18.4259,114.465 25.5,113C 29.0374,111.174 29.3707,108.84 26.5,106C 21.2361,105.101 16.2361,103.435 11.5,101C 9.95118,99.786 8.78451,98.286 8,96.5C 5.55268,87.5695 8.05268,80.4029 15.5,75C 26.2712,69.0662 36.9379,69.0662 47.5,75C 45.7157,78.735 43.549,82.235 41,85.5C 36.242,81.6812 31.0753,80.8478 25.5,83C 22.8333,85 22.8333,87 25.5,89C 31.4676,90.1506 37.1342,92.1506 42.5,95C 47.5045,104.51 45.8378,112.844 37.5,120C 25.0609,126.663 12.3942,127.163 -0.5,121.5 Z"/></g><g><path style="opacity:1" fill="#818375" d="M 95.5,72.5 C 99.8333,72.5 104.167,72.5 108.5,72.5C 105.416,87.0083 103.416,101.675 102.5,116.5C 103.833,116.5 105.167,116.5 106.5,116.5C 106.5,119.167 106.5,121.833 106.5,124.5C 101.871,125.481 97.2041,125.648 92.5,125C 91.0692,124.535 89.9025,123.701 89,122.5C 89.3604,105.618 91.5271,88.951 95.5,72.5 Z"/></g><g><path style="opacity:1" fill="#818375" d="M 289.5,72.5 C 293.833,72.5 298.167,72.5 302.5,72.5C 299.299,89.7063 296.966,107.04 295.5,124.5C 291.003,125.055 286.836,124.389 283,122.5C 277.354,126.328 271.521,126.495 265.5,123C 263.959,121.421 262.792,119.587 262,117.5C 259.562,103.889 264.062,93.3888 275.5,86C 279.486,85.5012 283.486,85.3345 287.5,85.5C 287.687,81.087 288.354,76.7536 289.5,72.5 Z"/></g><g><path style="opacity:1" fill="#808274" d="M 339.5,72.5 C 344.833,72.5 350.167,72.5 355.5,72.5C 357.573,89.8232 359.573,107.157 361.5,124.5C 356.5,124.5 351.5,124.5 346.5,124.5C 346.384,121.14 346.051,117.807 345.5,114.5C 341.486,114.334 337.486,114.501 333.5,115C 331.833,118 330.167,121 328.5,124C 323.798,124.828 319.131,124.662 314.5,123.5C 323.117,106.601 331.45,89.6009 339.5,72.5 Z"/></g><g><path style="opacity:1" fill="#818375" d="M 63.5,85.5 C 82.0037,82.8322 89.1704,90.4989 85,108.5C 80.3241,121.585 71.1574,127.085 57.5,125C 50.2454,122.326 47.2454,117.159 48.5,109.5C 48.6441,98.376 53.6441,90.376 63.5,85.5 Z"/></g><g><path style="opacity:1" fill="#808275" d="M 121.5,85.5 C 126.844,85.334 132.177,85.5006 137.5,86C 140.102,86.8834 142.269,88.3834 144,90.5C 144.723,97.7626 144.223,104.929 142.5,112C 142.565,114.225 142.898,116.392 143.5,118.5C 141.146,121.688 138.312,124.355 135,126.5C 133.406,125.284 131.906,123.951 130.5,122.5C 124.061,126.411 117.561,126.411 111,122.5C 106.891,111.611 110.391,104.444 121.5,101C 124.817,100.502 128.15,100.335 131.5,100.5C 131.854,94.7962 129.187,92.9629 123.5,95C 121.385,95.5573 119.385,96.3906 117.5,97.5C 116.209,95.1292 115.209,92.6292 114.5,90C 116.691,88.222 119.024,86.722 121.5,85.5 Z"/></g><g><path style="opacity:1" fill="#818375" d="M 162.5,85.5 C 167.511,85.3341 172.511,85.5007 177.5,86C 180.032,86.6189 182.365,87.6189 184.5,89C 182.839,91.8525 180.839,94.3525 178.5,96.5C 175.882,95.6273 173.216,94.9606 170.5,94.5C 166.338,94.6492 165.672,96.1492 168.5,99C 182.422,99.5838 186.255,106.084 180,118.5C 172.907,124.528 164.741,126.695 155.5,125C 151.995,124.343 148.995,122.843 146.5,120.5C 148.293,117.749 149.959,114.916 151.5,112C 155.331,113.396 159.331,114.563 163.5,115.5C 167.687,116.159 169.02,114.659 167.5,111C 163.095,109.865 158.762,108.532 154.5,107C 150.142,100.525 150.808,94.5246 156.5,89C 158.727,88.059 160.727,86.8923 162.5,85.5 Z"/></g><g><path style="opacity:1" fill="#818375" d="M 199.5,85.5 C 205.762,84.872 211.762,85.7054 217.5,88C 223.062,94.6201 222.728,100.953 216.5,107C 210.732,109.228 204.732,110.061 198.5,109.5C 198.81,115.303 201.81,117.47 207.5,116C 209.833,114.833 212.167,113.667 214.5,112.5C 216.086,114.67 217.42,117.004 218.5,119.5C 210.741,125.581 202.074,127.081 192.5,124C 188.835,122.332 186.668,119.499 186,115.5C 183.76,102.322 188.26,92.322 199.5,85.5 Z"/></g><g><path style="opacity:1" fill="#818375" d="M 237.5,85.5 C 243.262,85.1493 248.928,85.6493 254.5,87C 259.316,91.0549 260.816,96.2215 259,102.5C 253.293,108.878 246.127,111.211 237.5,109.5C 237.002,115.499 239.669,117.666 245.5,116C 248,115.115 250.333,113.948 252.5,112.5C 253.965,114.599 255.299,116.766 256.5,119C 256.355,119.772 256.022,120.439 255.5,121C 248.706,125.166 241.373,126.499 233.5,125C 226.099,122.256 222.766,116.923 223.5,109C 223.867,98.4946 228.534,90.6613 237.5,85.5 Z"/></g><g><path style="opacity:1" fill="#818375" d="M 370.5,86.5 C 375.214,86.1734 379.88,86.5067 384.5,87.5C 382.126,99.7874 380.126,112.121 378.5,124.5C 373.833,124.5 369.167,124.5 364.5,124.5C 366.932,111.907 368.932,99.2401 370.5,86.5 Z"/></g><g><path style="opacity:1" fill="#818375" d="M 391.5,86.5 C 395.5,86.5 399.5,86.5 403.5,86.5C 403.351,87.552 403.517,88.552 404,89.5C 406.995,86.7352 410.495,85.9019 414.5,87C 415.022,87.5613 415.355,88.228 415.5,89C 414.136,92.2272 412.636,95.3939 411,98.5C 408.084,96.9865 405.418,97.3199 403,99.5C 401.173,107.791 399.673,116.124 398.5,124.5C 393.786,124.827 389.12,124.493 384.5,123.5C 387.114,111.189 389.448,98.8557 391.5,86.5 Z"/></g><g><path style="opacity:1" fill="#ebebe9" d="M 343.5,90.5 C 344.486,94.97 344.819,99.6367 344.5,104.5C 342.5,104.5 340.5,104.5 338.5,104.5C 340.163,99.8395 341.829,95.1728 343.5,90.5 Z"/></g><g><path style="opacity:1" fill="#70b42b" d="M 479.5,119.5 C 468.625,125.357 457.625,125.69 446.5,120.5C 442.503,115.504 439.837,109.838 438.5,103.5C 439.875,94.8049 444.875,91.6382 453.5,94C 455.286,94.7845 456.786,95.9512 458,97.5C 460.271,105.206 464.437,111.706 470.5,117C 473.206,118.908 476.206,119.741 479.5,119.5 Z"/></g><g><path style="opacity:1" fill="#f9f9f9" d="M 66.5,94.5 C 70.7406,93.9092 72.4073,95.7425 71.5,100C 71.3455,105.105 70.1788,109.938 68,114.5C 66.6043,116.527 64.9376,116.86 63,115.5C 61.7013,108.036 62.8679,101.036 66.5,94.5 Z"/></g><g><path style="opacity:1" fill="#f4f4f2" d="M 203.5,94.5 C 209.262,93.7245 210.595,95.5578 207.5,100C 205.26,100.977 202.927,101.477 200.5,101.5C 200.15,98.5466 201.15,96.2133 203.5,94.5 Z"/></g><g><path style="opacity:1" fill="#f2f2f1" d="M 241.5,94.5 C 246.123,93.4082 247.956,95.0748 247,99.5C 244.379,100.991 241.545,101.658 238.5,101.5C 238.688,98.7939 239.688,96.4605 241.5,94.5 Z"/></g><g><path style="opacity:1" fill="#f9f9f9" d="M 280.5,95.5 C 281.833,95.5 283.167,95.5 284.5,95.5C 284.537,101.945 283.704,108.278 282,114.5C 280.333,115.833 278.667,115.833 277,114.5C 275.594,107.594 276.761,101.26 280.5,95.5 Z"/></g><g><path style="opacity:1" fill="#f4f4f3" d="M 125.5,108.5 C 126.833,108.5 128.167,108.5 129.5,108.5C 129.477,110.927 128.977,113.26 128,115.5C 125.214,117.184 123.38,116.517 122.5,113.5C 122.757,111.308 123.757,109.641 125.5,108.5 Z"/></g></svg>
