<svg xmlns="http://www.w3.org/2000/svg" version="1.1" width="287px" height="106px" style="shape-rendering:geometricPrecision; text-rendering:geometricPrecision; image-rendering:optimizeQuality; fill-rule:evenodd; clip-rule:evenodd" xmlns:xlink="http://www.w3.org/1999/xlink"><g><path style="opacity:1" fill="#423e3e" d="M 134.5,6.5 C 134.768,8.09903 134.434,9.43236 133.5,10.5C 131.164,8.60929 128.498,8.10929 125.5,9C 123.022,10.938 122.855,13.1047 125,15.5C 128.632,18.1298 131.965,21.1298 135,24.5C 138.401,34.0378 135.067,39.0378 125,39.5C 118.558,40.4779 116.224,37.8112 118,31.5C 118.333,31.1667 118.667,30.8333 119,30.5C 120.363,36.5058 123.863,38.3391 129.5,36C 131.984,33.7162 132.151,31.2162 130,28.5C 125.284,25.4513 121.618,21.4513 119,16.5C 118.045,11.5768 119.879,8.07678 124.5,6C 128.027,5.1925 131.36,5.35916 134.5,6.5 Z"/></g><g><path style="opacity:0.498" fill="#8a8786" d="M 134.5,6.5 C 135.797,8.69345 135.797,11.0268 134.5,13.5C 133.614,12.675 133.281,11.675 133.5,10.5C 134.434,9.43236 134.768,8.09903 134.5,6.5 Z"/></g><g><path style="opacity:0.498" fill="#b6b1b0" d="M 156.5,11.5 C 151.968,11.1818 147.634,11.5151 143.5,12.5C 142.325,12.719 141.325,12.3857 140.5,11.5C 145.986,10.1853 151.32,10.1853 156.5,11.5 Z"/></g><g><path style="opacity:0.498" fill="#b2acab" d="M 181.5,11.5 C 177.298,11.1832 173.298,11.5166 169.5,12.5C 168.325,12.719 167.325,12.3857 166.5,11.5C 171.652,10.1863 176.652,10.1863 181.5,11.5 Z"/></g><g><path style="opacity:0.498" fill="#b0abaa" d="M 205.5,12.5 C 203.5,11.1667 201.5,11.1667 199.5,12.5C 198.325,12.719 197.325,12.3857 196.5,11.5C 200.5,10.1667 204.5,10.1667 208.5,11.5C 207.675,12.3857 206.675,12.719 205.5,12.5 Z"/></g><g><path style="opacity:0.498" fill="#b0abaa" d="M 241.5,12.5 C 239.833,11.1667 238.167,11.1667 236.5,12.5C 235.325,12.719 234.325,12.3857 233.5,11.5C 237.167,10.1667 240.833,10.1667 244.5,11.5C 243.675,12.3857 242.675,12.719 241.5,12.5 Z"/></g><g><path style="opacity:1" fill="#302c2c" d="M 156.5,11.5 C 160.156,11.8226 162.156,13.8226 162.5,17.5C 162.328,21.1928 160.661,23.8594 157.5,25.5C 156.508,25.6716 155.842,25.3382 155.5,24.5C 158.968,17.7663 156.968,14.0997 149.5,13.5C 149.264,21.5417 149.597,29.5417 150.5,37.5C 149.726,38.1471 148.726,38.4805 147.5,38.5C 145.97,38.3601 144.97,37.6935 144.5,36.5C 144.801,28.4144 144.467,20.4144 143.5,12.5C 147.634,11.5151 151.968,11.1818 156.5,11.5 Z"/></g><g><path style="opacity:1" fill="#3d3939" d="M 181.5,11.5 C 188.054,12.6062 189.887,16.2729 187,22.5C 185.833,23.6667 184.667,24.8333 183.5,26C 186.669,30.0008 190.003,33.8341 193.5,37.5C 192.432,38.4345 191.099,38.7678 189.5,38.5C 185.237,36.2373 181.904,32.904 179.5,28.5C 178.311,27.5713 176.978,27.238 175.5,27.5C 175.5,30.8333 175.5,34.1667 175.5,37.5C 173.5,38.8333 171.5,38.8333 169.5,37.5C 169.5,29.1667 169.5,20.8333 169.5,12.5C 173.298,11.5166 177.298,11.1832 181.5,11.5 Z M 179.5,13.5 C 184.141,16.9514 184.474,20.7847 180.5,25C 178.866,25.4935 177.199,25.6602 175.5,25.5C 175.5,21.5 175.5,17.5 175.5,13.5C 176.833,13.5 178.167,13.5 179.5,13.5 Z"/></g><g><path style="opacity:1" fill="#353131" d="M 205.5,12.5 C 205.5,20.8333 205.5,29.1667 205.5,37.5C 203.5,38.8333 201.5,38.8333 199.5,37.5C 199.5,29.1667 199.5,20.8333 199.5,12.5C 201.5,11.1667 203.5,11.1667 205.5,12.5 Z"/></g><g><path style="opacity:1" fill="#353132" d="M 236.5,30.5 C 236.56,31.0431 236.893,31.3764 237.5,31.5C 238.808,27.6853 238.808,24.0187 237.5,20.5C 237.721,17.7212 237.388,15.0545 236.5,12.5C 238.167,11.1667 239.833,11.1667 241.5,12.5C 241.629,21.5606 240.963,30.5606 239.5,39.5C 232.216,33.718 225.382,27.3847 219,20.5C 218.374,26.1949 218.541,31.8615 219.5,37.5C 217.833,38.8333 216.167,38.8333 214.5,37.5C 215.113,28.5269 215.78,19.5269 216.5,10.5C 223.521,16.8543 230.188,23.521 236.5,30.5 Z"/></g><g><path style="opacity:1" fill="#3e3a3b" d="M 274.5,11.5 C 274.795,13.7354 274.461,15.7354 273.5,17.5C 267.367,10.9629 261.2,10.9629 255,17.5C 251.748,29.5184 256.248,36.0184 268.5,37C 269.456,33.6064 269.789,30.1064 269.5,26.5C 271.5,25.1667 273.5,25.1667 275.5,26.5C 275.5,30.5 275.5,34.5 275.5,38.5C 269.118,39.996 262.784,39.8293 256.5,38C 248.313,33.7811 245.813,27.2811 249,18.5C 252.705,12.3116 258.205,9.64493 265.5,10.5C 268.551,10.5979 271.551,10.9312 274.5,11.5 Z"/></g><g><path style="opacity:0.498" fill="#898787" d="M 179.5,13.5 C 178.167,13.5 176.833,13.5 175.5,13.5C 175.5,17.5 175.5,21.5 175.5,25.5C 174.515,21.3656 174.182,17.0323 174.5,12.5C 176.415,12.2155 178.081,12.5489 179.5,13.5 Z"/></g><g><path style="opacity:0.498" fill="#b1adab" d="M 274.5,11.5 C 275.909,14.1777 275.743,16.8443 274,19.5C 273.536,18.9056 273.369,18.2389 273.5,17.5C 274.461,15.7354 274.795,13.7354 274.5,11.5 Z"/></g><g><path style="opacity:0.498" fill="#8e8c8c" d="M 237.5,20.5 C 238.808,24.0187 238.808,27.6853 237.5,31.5C 236.893,31.3764 236.56,31.0431 236.5,30.5C 237.479,27.3752 237.813,24.0419 237.5,20.5 Z"/></g><g><path style="opacity:0.749" fill="#767171" d="M 155.5,24.5 C 155.842,25.3382 156.508,25.6716 157.5,25.5C 155.712,26.6225 153.712,26.7891 151.5,26C 152.745,25.2086 154.078,24.7086 155.5,24.5 Z"/></g><g><path style="opacity:0.498" fill="#aea9a8" d="M 275.5,26.5 C 273.5,25.1667 271.5,25.1667 269.5,26.5C 268.325,26.719 267.325,26.3857 266.5,25.5C 270.5,24.1667 274.5,24.1667 278.5,25.5C 277.675,26.3857 276.675,26.719 275.5,26.5 Z"/></g><g><path style="opacity:1" fill="#fbd908" d="M 35.5,47.5 C 34.6618,47.1583 34.3284,46.4916 34.5,45.5C 35.8154,43.3497 37.8154,42.0164 40.5,41.5C 37.9557,39.6082 37.9557,37.7748 40.5,36C 46.2931,35.5588 51.2931,37.3922 55.5,41.5C 58.0407,46.0825 60.7074,50.5825 63.5,55C 57.5,55.6667 51.5,55.6667 45.5,55C 41.5225,53.197 38.1892,50.697 35.5,47.5 Z"/></g><g><path style="opacity:0.498" fill="#aea9a8" d="M 214.5,37.5 C 216.167,38.8333 217.833,38.8333 219.5,37.5C 220.675,37.281 221.675,37.6143 222.5,38.5C 218.833,39.8333 215.167,39.8333 211.5,38.5C 212.325,37.6143 213.325,37.281 214.5,37.5 Z"/></g><g><path style="opacity:0.498" fill="#aea9a7" d="M 144.5,36.5 C 144.97,37.6935 145.97,38.3601 147.5,38.5C 148.726,38.4805 149.726,38.1471 150.5,37.5C 151.675,37.281 152.675,37.6143 153.5,38.5C 149.5,39.8333 145.5,39.8333 141.5,38.5C 142.357,37.5748 143.357,36.9081 144.5,36.5 Z"/></g><g><path style="opacity:0.498" fill="#b4afae" d="M 169.5,37.5 C 171.5,38.8333 173.5,38.8333 175.5,37.5C 176.978,37.238 178.311,37.5713 179.5,38.5C 175.167,39.8333 170.833,39.8333 166.5,38.5C 167.325,37.6143 168.325,37.281 169.5,37.5 Z"/></g><g><path style="opacity:0.498" fill="#a7a2a1" d="M 193.5,37.5 C 195.5,37.5 197.5,37.5 199.5,37.5C 201.5,38.8333 203.5,38.8333 205.5,37.5C 206.978,37.238 208.311,37.5713 209.5,38.5C 202.678,39.8181 196.011,39.8181 189.5,38.5C 191.099,38.7678 192.432,38.4345 193.5,37.5 Z"/></g><g><path style="opacity:1" fill="#f7da32" d="M 63.5,43.5 C 67.0477,44.1301 70.3811,45.1301 73.5,46.5C 71.9826,46.5106 70.8159,47.1772 70,48.5C 69.4818,51.0226 68.1485,53.0226 66,54.5C 63.6906,50.9508 62.8573,47.2841 63.5,43.5 Z"/></g><g><path style="opacity:1" fill="#383434" d="M 151.5,46.5 C 156.788,45.1895 160.121,45.1895 161.5,46.5C 161.666,56.8387 161.5,67.172 161,77.5C 159.089,83.0787 155.423,87.0787 150,89.5C 152.109,86.6162 153.776,83.2829 155,79.5C 155.667,68.8333 155.667,58.1667 155,47.5C 153.989,46.6634 152.822,46.33 151.5,46.5 Z"/></g><g><path style="opacity:1" fill="#fad912" d="M 81.5,47.5 C 86.5199,47.0408 91.1866,48.0408 95.5,50.5C 94.4264,51.8846 93.0931,53.0513 91.5,54C 93.0249,55.0086 94.6916,55.5086 96.5,55.5C 96.5,57.1667 96.5,58.8333 96.5,60.5C 92.5776,61.7518 88.5776,62.7518 84.5,63.5C 83.1667,63.5 81.8333,63.5 80.5,63.5C 76.1008,61.4643 71.7675,59.1309 67.5,56.5C 71.1658,51.8144 75.8325,48.8144 81.5,47.5 Z"/></g><g><path style="opacity:1" fill="#209261" d="M 44.5,-0.5 C 51.5,-0.5 58.5,-0.5 65.5,-0.5C 79.634,7.77438 84.3006,19.7744 79.5,35.5C 78.8165,35.1373 78.1499,34.8039 77.5,34.5C 77.5,31.8333 77.5,29.1667 77.5,26.5C 74.3479,26.0471 71.8479,27.0471 70,29.5C 69.5065,27.8659 69.3398,26.1992 69.5,24.5C 68.5,24.5 67.5,24.5 66.5,24.5C 63.7993,15.8163 58.1327,12.983 49.5,16C 43.4382,21.6716 42.9382,27.8382 48,34.5C 52.8525,38.1718 58.0192,41.1718 63.5,43.5C 62.8573,47.2841 63.6906,50.9508 66,54.5C 68.1485,53.0226 69.4818,51.0226 70,48.5C 70.8159,47.1772 71.9826,46.5106 73.5,46.5C 76.3854,46.1936 79.0521,46.5269 81.5,47.5C 75.8325,48.8144 71.1658,51.8144 67.5,56.5C 71.7675,59.1309 76.1008,61.4643 80.5,63.5C 78.6976,64.4582 76.6976,65.1249 74.5,65.5C 71.5156,63.3488 68.6823,61.0155 66,58.5C 64.6908,63.0658 64.1908,67.7325 64.5,72.5C 57.3355,80.4999 50.3355,88.6666 43.5,97C 41.1123,98.8605 38.4456,100.194 35.5,101C 17.69,104.604 5.68995,98.1038 -0.5,81.5C -0.5,77.1667 -0.5,72.8333 -0.5,68.5C 2.894,57.2775 10.394,50.2775 22,47.5C 23.6142,53.1484 24.1142,58.8151 23.5,64.5C 16.3424,67.8062 14.1757,73.1395 17,80.5C 22.4473,86.2904 28.4473,86.9571 35,82.5C 36.2126,80.0748 37.3793,77.7415 38.5,75.5C 40.136,76.2455 41.8027,75.9122 43.5,74.5C 43.8333,74.8333 44.1667,75.1667 44.5,75.5C 41.9328,78.095 42.2661,80.4283 45.5,82.5C 50.2605,80.7065 54.4272,78.0398 58,74.5C 59.3363,68.9908 61.1697,63.6575 63.5,58.5C 63,58.1667 62.5,57.8333 62,57.5C 57.1988,58.7936 52.3655,59.9603 47.5,61C 44.3347,63.3347 41.3347,65.8347 38.5,68.5C 38.6631,61.3194 37.6631,54.3194 35.5,47.5C 38.1892,50.697 41.5225,53.197 45.5,55C 51.5,55.6667 57.5,55.6667 63.5,55C 60.7074,50.5825 58.0407,46.0825 55.5,41.5C 51.2931,37.3922 46.2931,35.5588 40.5,36C 37.9557,37.7748 37.9557,39.6082 40.5,41.5C 37.8154,42.0164 35.8154,43.3497 34.5,45.5C 22.6891,26.7534 26.0224,11.4201 44.5,-0.5 Z"/></g><g><path style="opacity:1" fill="#f9da26" d="M 66.5,24.5 C 67.5,24.5 68.5,24.5 69.5,24.5C 69.3398,26.1992 69.5065,27.8659 70,29.5C 71.8479,27.0471 74.3479,26.0471 77.5,26.5C 77.5,29.1667 77.5,31.8333 77.5,34.5C 73.9368,33.7176 70.6035,32.3843 67.5,30.5C 66.8902,29.609 66.5569,28.609 66.5,27.5C 66.5,26.5 66.5,25.5 66.5,24.5 Z"/></g><g><path style="opacity:0.498" fill="#fff1af" d="M 66.5,27.5 C 66.5569,28.609 66.8902,29.609 67.5,30.5C 65.4482,29.9473 65.1148,28.9473 66.5,27.5 Z"/></g><g><path style="opacity:0.498" fill="#b6b1b0" d="M 210.5,50.5 C 206.298,50.1832 202.298,50.5166 198.5,51.5C 197.244,51.5386 196.244,51.0386 195.5,50C 200.684,49.1837 205.684,49.3503 210.5,50.5 Z"/></g><g><path style="opacity:0.498" fill="#afaaa9" d="M 274.5,51.5 C 272.833,50.1667 271.167,50.1667 269.5,51.5C 268.244,51.5386 267.244,51.0386 266.5,50C 270.211,49.1747 273.878,49.3414 277.5,50.5C 276.675,51.3857 275.675,51.719 274.5,51.5 Z"/></g><g><path style="opacity:1" fill="#3c3838" d="M 193.5,76.5 C 191.167,77.8333 188.833,77.8333 186.5,76.5C 185.312,74.2779 184.312,71.9446 183.5,69.5C 180.291,68.2126 177.125,68.2126 174,69.5C 173.153,71.8543 172.32,74.1877 171.5,76.5C 169.833,77.8333 168.167,77.8333 166.5,76.5C 170.998,68.1635 174.998,59.4968 178.5,50.5C 179.325,49.6143 180.325,49.281 181.5,49.5C 184.37,57.5804 187.537,65.5804 191,73.5C 191.852,74.5707 192.685,75.5707 193.5,76.5 Z M 178.5,58.5 C 179.914,60.8673 181.248,63.3673 182.5,66C 180.098,66.8141 177.765,66.6474 175.5,65.5C 176.702,63.2195 177.702,60.8862 178.5,58.5 Z"/></g><g><path style="opacity:1" fill="#363233" d="M 198.5,51.5 C 202.298,50.5166 206.298,50.1832 210.5,50.5C 216.095,51.5601 217.929,54.8935 216,60.5C 214.053,64.5568 210.886,66.0568 206.5,65C 211.754,61.9004 212.754,57.7338 209.5,52.5C 208.081,51.5489 206.415,51.2155 204.5,51.5C 204.174,60.0168 204.507,68.3501 205.5,76.5C 203.167,77.8333 200.833,77.8333 198.5,76.5C 199.833,68.1667 199.833,59.8333 198.5,51.5 Z"/></g><g><path style="opacity:1" fill="#3d393a" d="M 242.5,76.5 C 239.993,77.8976 237.66,77.5643 235.5,75.5C 234.312,68.6826 230.479,66.6826 224,69.5C 222.589,71.6504 221.755,73.9837 221.5,76.5C 219.833,77.8333 218.167,77.8333 216.5,76.5C 220.597,67.3087 224.93,58.3087 229.5,49.5C 234.07,58.3087 238.403,67.3087 242.5,76.5 Z M 227.5,58.5 C 229.567,60.3177 230.9,62.651 231.5,65.5C 229.604,66.4656 227.604,66.7989 225.5,66.5C 226.167,63.8333 226.833,61.1667 227.5,58.5 Z"/></g><g><path style="opacity:1" fill="#3f3b3b" d="M 269.5,68.5 C 269.783,69.2891 270.283,69.9558 271,70.5C 271.819,64.3188 271.653,58.3188 270.5,52.5C 270.5,51.8333 270.167,51.5 269.5,51.5C 271.167,50.1667 272.833,50.1667 274.5,51.5C 274.666,60.1731 274.5,68.8397 274,77.5C 273.282,78.4506 272.449,78.6172 271.5,78C 265,71.5 258.5,65 252,58.5C 252.239,64.4646 252.406,70.4646 252.5,76.5C 250.833,77.8333 249.167,77.8333 247.5,76.5C 248.493,67.6822 248.827,58.6822 248.5,49.5C 249.552,49.3505 250.552,49.5172 251.5,50C 257.703,56.0352 263.703,62.2019 269.5,68.5 Z"/></g><g><path style="opacity:1" fill="#1f9262" d="M 95.5,50.5 C 111.387,61.0541 114.553,74.7208 105,91.5C 96.9393,101.037 86.7726,104.204 74.5,101C 69.6738,99.1833 65.6738,96.1833 62.5,92C 64.8636,90.1581 67.1969,88.3247 69.5,86.5C 70.3887,88.8586 71.722,89.0253 73.5,87C 74.3802,85.6439 74.7135,84.1439 74.5,82.5C 81.6934,87.2781 87.86,86.2781 93,79.5C 95.1045,71.3687 92.2711,66.0353 84.5,63.5C 88.5776,62.7518 92.5776,61.7518 96.5,60.5C 96.5,58.8333 96.5,57.1667 96.5,55.5C 94.6916,55.5086 93.0249,55.0086 91.5,54C 93.0931,53.0513 94.4264,51.8846 95.5,50.5 Z"/></g><g><path style="opacity:0.498" fill="#a09b9a" d="M 209.5,52.5 C 208.167,52.5 206.833,52.5 205.5,52.5C 205.5,60.5 205.5,68.5 205.5,76.5C 204.507,68.3501 204.174,60.0168 204.5,51.5C 206.415,51.2155 208.081,51.5489 209.5,52.5 Z"/></g><g><path style="opacity:1" fill="#fad80b" d="M 38.5,75.5 C 38.5,73.1667 38.5,70.8333 38.5,68.5C 41.3347,65.8347 44.3347,63.3347 47.5,61C 52.3655,59.9603 57.1988,58.7936 62,57.5C 62.5,57.8333 63,58.1667 63.5,58.5C 61.1697,63.6575 59.3363,68.9908 58,74.5C 54.4272,78.0398 50.2605,80.7065 45.5,82.5C 42.2661,80.4283 41.9328,78.095 44.5,75.5C 44.1667,75.1667 43.8333,74.8333 43.5,74.5C 41.8027,75.9122 40.136,76.2455 38.5,75.5 Z"/></g><g><path style="opacity:0.498" fill="#a7a2a2" d="M 270.5,52.5 C 271.653,58.3188 271.819,64.3188 271,70.5C 270.283,69.9558 269.783,69.2891 269.5,68.5C 270.488,63.3595 270.821,58.0262 270.5,52.5 Z"/></g><g><path style="opacity:1" fill="#f7d927" d="M 74.5,65.5 C 71.1899,67.8008 67.8566,70.1342 64.5,72.5C 64.1908,67.7325 64.6908,63.0658 66,58.5C 68.6823,61.0155 71.5156,63.3488 74.5,65.5 Z"/></g><g><path style="opacity:0.498" fill="#afaaa9" d="M 216.5,76.5 C 218.167,77.8333 219.833,77.8333 221.5,76.5C 222.376,76.3691 223.043,76.7025 223.5,77.5C 220.167,78.8333 216.833,78.8333 213.5,77.5C 214.325,76.6143 215.325,76.281 216.5,76.5 Z"/></g><g><path style="opacity:0.498" fill="#a7a3a1" d="M 235.5,75.5 C 237.66,77.5643 239.993,77.8976 242.5,76.5C 244.167,76.5 245.833,76.5 247.5,76.5C 249.167,77.8333 250.833,77.8333 252.5,76.5C 253.675,76.281 254.675,76.6143 255.5,77.5C 248.866,78.4967 242.2,78.83 235.5,78.5C 235.5,77.5 235.5,76.5 235.5,75.5 Z"/></g><g><path style="opacity:0.498" fill="#b5b0ae" d="M 166.5,76.5 C 168.167,77.8333 169.833,77.8333 171.5,76.5C 172.675,76.281 173.675,76.6143 174.5,77.5C 170.683,78.9145 167.016,78.7478 163.5,77C 164.448,76.5172 165.448,76.3505 166.5,76.5 Z"/></g><g><path style="opacity:0.498" fill="#ada9a7" d="M 186.5,76.5 C 188.833,77.8333 191.167,77.8333 193.5,76.5C 194.376,76.3691 195.043,76.7025 195.5,77.5C 192.167,78.8333 188.833,78.8333 185.5,77.5C 185.624,76.8933 185.957,76.56 186.5,76.5 Z"/></g><g><path style="opacity:0.498" fill="#b5b0ae" d="M 198.5,76.5 C 200.833,77.8333 203.167,77.8333 205.5,76.5C 206.978,76.238 208.311,76.5713 209.5,77.5C 205.167,78.8333 200.833,78.8333 196.5,77.5C 196.957,76.7025 197.624,76.3691 198.5,76.5 Z"/></g><g><path style="opacity:1" fill="#fcdc36" d="M 74.5,82.5 C 74.7135,84.1439 74.3802,85.6439 73.5,87C 71.722,89.0253 70.3887,88.8586 69.5,86.5C 70.7417,84.7499 72.2417,83.0832 74,81.5C 74.3988,81.7284 74.5654,82.0618 74.5,82.5 Z"/></g><g><path style="opacity:1" fill="#2e2a2a" d="M 199.5,88.5 C 200.071,90.36 200.071,92.0267 199.5,93.5C 199.5,94.5 199.5,95.5 199.5,96.5C 198.655,95.3285 197.989,93.9952 197.5,92.5C 197.5,92.1667 197.5,91.8333 197.5,91.5C 198.451,90.0813 198.784,88.4147 198.5,86.5C 199.648,85.105 200.648,85.2716 201.5,87C 200.584,87.2784 199.918,87.7784 199.5,88.5 Z"/></g><g><path style="opacity:1" fill="#282323" d="M 203.5,86.5 C 204.167,88.5 204.833,90.5 205.5,92.5C 205.44,93.0431 205.107,93.3764 204.5,93.5C 203.614,92.675 203.281,91.675 203.5,90.5C 203.5,89.1667 203.5,87.8333 203.5,86.5 Z"/></g><g><path style="opacity:0.498" fill="#989493" d="M 203.5,86.5 C 203.56,85.9569 203.893,85.6236 204.5,85.5C 205.354,86.9479 206.354,88.2813 207.5,89.5C 206.807,90.5178 206.141,91.5178 205.5,92.5C 204.833,90.5 204.167,88.5 203.5,86.5 Z"/></g><g><path style="opacity:1" fill="#3a3636" d="M 271.5,86.5 C 272.167,87.1667 272.833,87.8333 273.5,88.5C 273.037,91.3303 272.371,93.997 271.5,96.5C 271.5,96.1667 271.5,95.8333 271.5,95.5C 271.5,94.8333 271.5,94.1667 271.5,93.5C 271.5,92.8333 271.167,92.5 270.5,92.5C 269.833,92.5 269.5,92.1667 269.5,91.5C 269.611,90.8826 269.944,90.3826 270.5,90C 269.167,89.6667 267.833,89.3333 266.5,89C 268.744,88.9504 270.411,88.1171 271.5,86.5 Z"/></g><g><path style="opacity:0.498" fill="#949292" d="M 271.5,86.5 C 271.56,85.9569 271.893,85.6236 272.5,85.5C 273.386,86.325 273.719,87.325 273.5,88.5C 272.833,87.8333 272.167,87.1667 271.5,86.5 Z"/></g><g><path style="opacity:0.498" fill="#a09b9a" d="M 198.5,86.5 C 198.784,88.4147 198.451,90.0813 197.5,91.5C 195.82,89.2736 196.153,87.6069 198.5,86.5 Z"/></g><g><path style="opacity:0.749" fill="#706c6b" d="M 235.5,85.5 C 237.636,86.7189 239.969,87.5522 242.5,88C 241.594,89.6995 241.261,91.5328 241.5,93.5C 240.022,93.238 238.689,93.5713 237.5,94.5C 239.078,95.2978 240.744,95.7978 242.5,96C 238.5,96.6667 234.5,96.6667 230.5,96C 236.341,95.4367 236.674,94.27 231.5,92.5C 231.567,90.5756 231.9,88.5756 232.5,86.5C 234.225,88.0916 235.225,87.7583 235.5,85.5 Z M 238.5,88.5 C 239.289,88.7828 239.956,89.2828 240.5,90C 239.184,90.5281 238.517,90.0281 238.5,88.5 Z M 235.5,89.5 C 238.341,92.1873 237.675,93.0206 233.5,92C 234.756,91.5831 235.423,90.7498 235.5,89.5 Z"/></g><g><path style="opacity:1" fill="#534e4e" d="M 251.5,86.5 C 251.813,90.0419 251.479,93.3752 250.5,96.5C 249.84,95.036 249.507,93.3693 249.5,91.5C 249.556,89.3603 250.223,87.6936 251.5,86.5 Z"/></g><g><path style="opacity:1" fill="#666160" d="M 183.5,85.5 C 190.411,86.3983 190.744,87.2316 184.5,88C 186.167,88.3333 187.833,88.6667 189.5,89C 188.5,89.3333 187.5,89.6667 186.5,90C 188.291,90.4152 189.624,91.4152 190.5,93C 189.228,94.3068 188.228,95.8068 187.5,97.5C 185.5,96.1667 183.5,96.1667 181.5,97.5C 180.646,96.0521 179.646,94.7187 178.5,93.5C 179.641,92.5745 179.641,91.7412 178.5,91C 181.544,90.6411 181.878,89.9745 179.5,89C 183.5,88.3333 183.5,87.6667 179.5,87C 181.058,86.79 182.391,86.29 183.5,85.5 Z"/></g><g><path style="opacity:1" fill="#746f6e" d="M 216.5,87.5 C 215.829,88.8471 215.829,90.0138 216.5,91C 215.552,91.4828 214.552,91.6495 213.5,91.5C 213.022,88.7224 214.022,86.7224 216.5,85.5C 217.463,85.9698 217.463,86.6365 216.5,87.5 Z"/></g><g><path style="opacity:0.498" fill="#969292" d="M 224.5,95.5 C 222.972,94.1979 221.972,92.5313 221.5,90.5C 220.691,92.2922 220.191,94.2922 220,96.5C 217.973,97.8136 216.807,97.8136 216.5,96.5C 218.018,93.5916 218.352,90.5916 217.5,87.5C 219.044,87.2969 220.378,86.6302 221.5,85.5C 222.354,86.5217 223.354,87.3551 224.5,88C 217.53,88.669 217.196,89.169 223.5,89.5C 223.517,91.5648 223.85,93.5648 224.5,95.5 Z"/></g><g><path style="opacity:1" fill="#3f3b3b" d="M 221.5,90.5 C 221.972,92.5313 222.972,94.1979 224.5,95.5C 224.179,97.0481 223.179,97.7148 221.5,97.5C 221.5,95.1667 221.5,92.8333 221.5,90.5 Z"/></g><g><path style="opacity:0.498" fill="#8b8888" d="M 273.5,88.5 C 279.208,88.4924 279.541,88.9924 274.5,90C 275.551,91.3848 276.884,92.3848 278.5,93C 277.874,93.7504 277.374,94.5838 277,95.5C 276.667,95.1667 276.333,94.8333 276,94.5C 274.686,95.3128 273.519,96.3128 272.5,97.5C 271.893,97.3764 271.56,97.0431 271.5,96.5C 272.371,93.997 273.037,91.3303 273.5,88.5 Z"/></g><g><path style="opacity:0.498" fill="#a8a4a3" d="M 184.5,89.5 C 184.5,90.1667 184.833,90.5 185.5,90.5C 186.234,91.7079 186.567,93.0413 186.5,94.5C 185.167,94.5 183.833,94.5 182.5,94.5C 182.12,92.302 182.787,90.6354 184.5,89.5 Z"/></g><g><path style="opacity:1" fill="#413b3a" d="M 216.5,87.5 C 216.833,87.5 217.167,87.5 217.5,87.5C 218.352,90.5916 218.018,93.5916 216.5,96.5C 216.5,95.8333 216.167,95.5 215.5,95.5C 215.715,93.8212 215.048,92.8212 213.5,92.5C 213.5,92.1667 213.5,91.8333 213.5,91.5C 214.552,91.6495 215.552,91.4828 216.5,91C 215.829,90.0138 215.829,88.8471 216.5,87.5 Z"/></g><g><path style="opacity:0.498" fill="#817d7d" d="M 251.5,86.5 C 254.167,86.5 256.833,86.5 259.5,86.5C 259.665,89.8499 259.498,93.1832 259,96.5C 256.067,96.5335 253.234,96.5335 250.5,96.5C 251.479,93.3752 251.813,90.0419 251.5,86.5 Z M 252.5,91.5 C 253.833,91.5 255.167,91.5 256.5,91.5C 256.5,92.8333 256.5,94.1667 256.5,95.5C 255.167,95.5 253.833,95.5 252.5,95.5C 252.5,94.1667 252.5,92.8333 252.5,91.5 Z M 252.5,87.5 C 253.833,87.5 255.167,87.5 256.5,87.5C 256.5,88.5 256.5,89.5 256.5,90.5C 255.167,90.5 253.833,90.5 252.5,90.5C 252.5,89.5 252.5,88.5 252.5,87.5 Z"/></g><g><path style="opacity:1" fill="#8f8a8a" d="M 269.5,91.5 C 269.5,92.1667 269.833,92.5 270.5,92.5C 271.167,92.5 271.5,92.8333 271.5,93.5C 271.5,94.1667 271.5,94.8333 271.5,95.5C 269.775,94.722 268.109,94.3886 266.5,94.5C 267.188,93.1451 268.188,92.1451 269.5,91.5 Z"/></g><g><path style="opacity:0.498" fill="#8f8b8b" d="M 213.5,92.5 C 215.048,92.8212 215.715,93.8212 215.5,95.5C 214.778,95.9175 214.278,96.5842 214,97.5C 213.506,95.8659 213.34,94.1992 213.5,92.5 Z"/></g><g><path style="opacity:0.498" fill="#b4b0ae" d="M 197.5,92.5 C 197.989,93.9952 198.655,95.3285 199.5,96.5C 198.923,97.7733 198.257,97.7733 197.5,96.5C 196.295,95.0052 196.295,93.6719 197.5,92.5 Z"/></g><g><path style="opacity:1" fill="#827d7d" d="M 199.5,88.5 C 201.199,88.5271 202.533,89.1938 203.5,90.5C 203.281,91.675 203.614,92.675 204.5,93.5C 205.107,93.3764 205.44,93.0431 205.5,92.5C 207.099,93.7985 207.599,95.4652 207,97.5C 206,96.5 205,95.5 204,94.5C 200.38,98.5902 199.88,98.2569 202.5,93.5C 201.767,92.913 200.767,92.913 199.5,93.5C 200.071,92.0267 200.071,90.36 199.5,88.5 Z"/></g></svg>
