<svg xmlns="http://www.w3.org/2000/svg" version="1.1" width="809px" height="425px" style="shape-rendering:geometricPrecision; text-rendering:geometricPrecision; image-rendering:optimizeQuality; fill-rule:evenodd; clip-rule:evenodd" xmlns:xlink="http://www.w3.org/1999/xlink"><g><path style="opacity:1" fill="#fefefe" d="M -0.5,-0.5 C 269.167,-0.5 538.833,-0.5 808.5,-0.5C 808.5,141.167 808.5,282.833 808.5,424.5C 538.833,424.5 269.167,424.5 -0.5,424.5C -0.5,282.833 -0.5,141.167 -0.5,-0.5 Z"/></g><g><path style="opacity:1" fill="#372f2d" d="M 353.5,106.5 C 353.611,107.117 353.944,107.617 354.5,108C 357.365,108.183 360.031,108.683 362.5,109.5C 343.552,109.288 325.552,105.122 308.5,97C 306.259,95.2609 304.592,93.0942 303.5,90.5C 312.147,97.4896 322.48,101.99 334.5,104C 340.877,104.89 347.21,105.723 353.5,106.5 Z"/></g><g><path style="opacity:1" fill="#281f1c" d="M 362.5,109.5 C 360.031,108.683 357.365,108.183 354.5,108C 353.944,107.617 353.611,107.117 353.5,106.5C 366.167,106.5 378.833,106.5 391.5,106.5C 396.429,75.0919 413.429,53.2586 442.5,41C 452.843,37.1689 462.843,37.8355 472.5,43C 477.775,48.6592 478.941,55.1592 476,62.5C 467.874,82.6239 453.374,95.7906 432.5,102C 423.647,104.63 414.647,106.464 405.5,107.5C 401.048,123.205 395.048,138.205 387.5,152.5C 406.715,155.297 425.048,152.464 442.5,144C 463.89,129.191 487.223,125.191 512.5,132C 521.178,134.001 529.345,137.168 537,141.5C 537.667,142.167 537.667,142.833 537,143.5C 524.001,136.866 510.167,133.866 495.5,134.5C 468.706,133.642 448.54,144.642 435,167.5C 429.435,178.301 425.268,189.635 422.5,201.5C 445.294,198.749 466.627,191.749 486.5,180.5C 492.091,181.651 493.925,184.984 492,190.5C 491.097,191.701 489.931,192.535 488.5,193C 478.328,192.609 469.828,196.109 463,203.5C 461.395,206.648 460.395,209.981 460,213.5C 458.473,206.56 459.973,200.393 464.5,195C 450.355,198.496 436.022,201.496 421.5,204C 418.009,213.806 414.509,223.639 411,233.5C 398.107,260.859 376.607,273.693 346.5,272C 334.131,268.435 328.965,260.269 331,247.5C 337.018,231.482 347.851,219.982 363.5,213C 377.058,207.869 391.058,204.703 405.5,203.5C 411.147,183.7 420.814,166.2 434.5,151C 426.647,152.96 418.647,154.627 410.5,156C 402.233,156.92 394.066,156.42 386,154.5C 380.178,159.654 374.345,164.82 368.5,170C 349.33,181.766 328.664,185.433 306.5,181C 293.363,178.746 282.197,172.913 273,163.5C 268.664,154.505 270.498,147.005 278.5,141C 297.046,132.074 316.379,130.074 336.5,135C 348.624,138.375 360.458,142.541 372,147.5C 378.182,140.481 382.849,132.481 386,123.5C 387.482,118.892 388.649,114.225 389.5,109.5C 380.5,109.5 371.5,109.5 362.5,109.5 Z"/></g><g><path style="opacity:1" fill="#fbfbfb" d="M 307.5,135.5 C 329.888,134.777 350.888,139.777 370.5,150.5C 348.891,177.767 322.558,183.601 291.5,168C 282.029,158.728 282.362,149.728 292.5,141C 297.434,138.637 302.434,136.804 307.5,135.5 Z"/></g><g><path style="opacity:1" fill="#fafafa" d="M 454.5,44.5 C 469.083,43.5708 473.917,49.9042 469,63.5C 460.833,79.9986 448,91.1652 430.5,97C 422.932,99.641 415.265,101.808 407.5,103.5C 411.836,74.4597 427.503,54.793 454.5,44.5 Z"/></g><g><path style="opacity:1" fill="#fafafa" d="M 397.5,206.5 C 399.5,206.5 401.5,206.5 403.5,206.5C 400.489,221.364 394.656,235.031 386,247.5C 376.296,258.291 364.296,264.958 350,267.5C 335.434,264.844 330.768,256.511 336,242.5C 345.183,225.996 359.017,215.496 377.5,211C 384.312,209.541 390.979,208.041 397.5,206.5 Z"/></g><g><path style="opacity:1" fill="#241a17" d="M 435.5,337.5 C 436.833,337.5 438.167,337.5 439.5,337.5C 439.5,346.5 439.5,355.5 439.5,364.5C 444.833,364.5 450.167,364.5 455.5,364.5C 455.5,365.833 455.5,367.167 455.5,368.5C 448.833,368.5 442.167,368.5 435.5,368.5C 435.5,358.167 435.5,347.833 435.5,337.5 Z"/></g><g><path style="opacity:1" fill="#271d1c" d="M 524.5,337.5 C 530.833,337.5 537.167,337.5 543.5,337.5C 543.5,338.833 543.5,340.167 543.5,341.5C 538.833,341.5 534.167,341.5 529.5,341.5C 529.5,344.5 529.5,347.5 529.5,350.5C 533.5,350.5 537.5,350.5 541.5,350.5C 541.5,351.833 541.5,353.167 541.5,354.5C 537.5,354.5 533.5,354.5 529.5,354.5C 529.5,357.833 529.5,361.167 529.5,364.5C 534.167,364.5 538.833,364.5 543.5,364.5C 543.5,365.833 543.5,367.167 543.5,368.5C 537.167,368.5 530.833,368.5 524.5,368.5C 524.5,358.167 524.5,347.833 524.5,337.5 Z"/></g><g><path style="opacity:1" fill="#291f1d" d="M 479.5,337.5 C 481.288,337.215 482.955,337.548 484.5,338.5C 486.065,341.962 487.898,345.295 490,348.5C 491.92,345.661 493.587,342.661 495,339.5C 496.444,337.845 498.278,337.178 500.5,337.5C 498.559,342.715 496.059,347.715 493,352.5C 492.501,357.823 492.334,363.156 492.5,368.5C 490.833,368.5 489.167,368.5 487.5,368.5C 487.666,363.156 487.499,357.823 487,352.5C 483.962,347.757 481.462,342.757 479.5,337.5 Z"/></g><g><path style="opacity:1" fill="#6a6869" d="M 567.5,337.5 C 567.5,347.833 567.5,358.167 567.5,368.5C 568.833,368.5 570.167,368.5 571.5,368.5C 570.081,369.451 568.415,369.784 566.5,369.5C 566.172,358.654 566.506,347.987 567.5,337.5 Z"/></g><g><path style="opacity:1" fill="#251a18" d="M 273.5,368.5 C 272.167,368.5 270.833,368.5 269.5,368.5C 269.827,359.318 269.493,350.318 268.5,341.5C 265.833,341.5 263.167,341.5 260.5,341.5C 260.5,340.167 260.5,338.833 260.5,337.5C 267.833,337.5 275.167,337.5 282.5,337.5C 282.5,338.833 282.5,340.167 282.5,341.5C 279.5,341.5 276.5,341.5 273.5,341.5C 273.5,350.5 273.5,359.5 273.5,368.5 Z"/></g><g><path style="opacity:1" fill="#2a201e" d="M 327.5,366.5 C 326.448,368.256 324.781,368.923 322.5,368.5C 322.552,366.097 322.219,363.764 321.5,361.5C 320.306,360.223 318.64,359.556 316.5,359.5C 314.36,359.556 312.694,360.223 311.5,361.5C 311.005,363.482 310.505,365.482 310,367.5C 308.644,368.38 307.144,368.714 305.5,368.5C 307.53,358.714 310.03,349.047 313,339.5C 315.667,336.833 318.333,336.833 321,339.5C 323.071,348.541 325.237,357.541 327.5,366.5 Z"/></g><g><path style="opacity:1" fill="#251b19" d="M 400.5,354.5 C 399.514,358.97 399.181,363.637 399.5,368.5C 398.167,368.5 396.833,368.5 395.5,368.5C 395.5,358.167 395.5,347.833 395.5,337.5C 400.833,337.5 406.167,337.5 411.5,337.5C 411.5,338.833 411.5,340.167 411.5,341.5C 407.833,341.5 404.167,341.5 400.5,341.5C 400.5,344.5 400.5,347.5 400.5,350.5C 403.5,350.5 406.5,350.5 409.5,350.5C 409.5,351.833 409.5,353.167 409.5,354.5C 406.5,354.5 403.5,354.5 400.5,354.5 Z"/></g><g><path style="opacity:1" fill="#e4e4e4" d="M 316.5,342.5 C 318.26,346.547 319.26,350.88 319.5,355.5C 317.5,355.5 315.5,355.5 313.5,355.5C 314.033,351.035 315.033,346.702 316.5,342.5 Z"/></g><g><path style="opacity:1" fill="#6c6a6b" d="M 268.5,341.5 C 269.493,350.318 269.827,359.318 269.5,368.5C 270.833,368.5 272.167,368.5 273.5,368.5C 272.081,369.451 270.415,369.784 268.5,369.5C 268.5,360.167 268.5,350.833 268.5,341.5 Z"/></g><g><path style="opacity:1" fill="#261c1a" d="M 360.5,356.5 C 359.081,355.549 357.415,355.216 355.5,355.5C 355.5,359.833 355.5,364.167 355.5,368.5C 354.167,368.5 352.833,368.5 351.5,368.5C 351.5,358.167 351.5,347.833 351.5,337.5C 355.846,337.334 360.179,337.501 364.5,338C 369.924,340.017 371.758,343.85 370,349.5C 368.833,352 367,353.833 364.5,355C 366.707,359.247 369.04,363.414 371.5,367.5C 369.833,368.833 368.167,368.833 366.5,367.5C 364.234,363.966 362.234,360.3 360.5,356.5 Z"/></g><g><path style="opacity:1" fill="#adadad" d="M 363.5,342.5 C 361.167,342.5 358.833,342.5 356.5,342.5C 356.5,345.167 356.5,347.833 356.5,350.5C 358.833,350.5 361.167,350.5 363.5,350.5C 361.052,351.473 358.385,351.806 355.5,351.5C 355.5,348.167 355.5,344.833 355.5,341.5C 358.385,341.194 361.052,341.527 363.5,342.5 Z"/></g><g><path style="opacity:1" fill="#fafafa" d="M 363.5,342.5 C 364.993,343.312 365.66,344.645 365.5,346.5C 365.66,348.355 364.993,349.688 363.5,350.5C 361.167,350.5 358.833,350.5 356.5,350.5C 356.5,347.833 356.5,345.167 356.5,342.5C 358.833,342.5 361.167,342.5 363.5,342.5 Z"/></g><g><path style="opacity:1" fill="#281e1c" d="M 567.5,337.5 C 571.846,337.334 576.179,337.501 580.5,338C 588.34,343.702 588.34,349.535 580.5,355.5C 582.833,359.5 585.167,363.5 587.5,367.5C 585.926,368.631 584.259,368.798 582.5,368C 579.954,364.41 577.787,360.577 576,356.5C 574.644,355.62 573.144,355.286 571.5,355.5C 571.5,359.833 571.5,364.167 571.5,368.5C 570.167,368.5 568.833,368.5 567.5,368.5C 567.5,358.167 567.5,347.833 567.5,337.5 Z"/></g><g><path style="opacity:1" fill="#ededed" d="M 571.5,341.5 C 579.466,339.635 582.466,342.468 580.5,350C 577.649,351.289 574.649,351.789 571.5,351.5C 571.5,348.167 571.5,344.833 571.5,341.5 Z"/></g><g><path style="opacity:1" fill="#2d2422" d="M 224.5,336.5 C 231.488,335.848 235.488,338.848 236.5,345.5C 233.512,344.261 230.512,342.927 227.5,341.5C 222.398,342.146 221.398,344.479 224.5,348.5C 229.692,350.209 233.859,353.209 237,357.5C 237.667,359.5 237.667,361.5 237,363.5C 230.976,371.031 224.642,371.365 218,364.5C 217.51,363.207 217.343,361.873 217.5,360.5C 219.167,360.5 220.833,360.5 222.5,360.5C 222.237,363.734 223.737,365.068 227,364.5C 233.167,363.338 234,360.505 229.5,356C 225.49,354.657 221.99,352.491 219,349.5C 217.104,343.434 218.938,339.101 224.5,336.5 Z"/></g><g><path style="opacity:1" fill="#a5a5a6" d="M 360.5,356.5 C 359.167,356.5 357.833,356.5 356.5,356.5C 356.5,360.833 356.5,365.167 356.5,369.5C 354.585,369.784 352.919,369.451 351.5,368.5C 352.833,368.5 354.167,368.5 355.5,368.5C 355.5,364.167 355.5,359.833 355.5,355.5C 357.415,355.216 359.081,355.549 360.5,356.5 Z"/></g><g><path style="opacity:1" fill="#989898" d="M 321.5,361.5 C 318.167,360.167 314.833,360.167 311.5,361.5C 312.694,360.223 314.36,359.556 316.5,359.5C 318.64,359.556 320.306,360.223 321.5,361.5 Z"/></g><g><path style="opacity:1" fill="#6f6e6e" d="M 400.5,354.5 C 400.5,359.5 400.5,364.5 400.5,369.5C 398.585,369.784 396.919,369.451 395.5,368.5C 396.833,368.5 398.167,368.5 399.5,368.5C 399.181,363.637 399.514,358.97 400.5,354.5 Z"/></g><g><path style="opacity:1" fill="#a3a3a4" d="M 327.5,366.5 C 328.404,367.209 328.737,368.209 328.5,369.5C 326.265,369.795 324.265,369.461 322.5,368.5C 324.781,368.923 326.448,368.256 327.5,366.5 Z"/></g><g><path style="opacity:1" fill="#898889" d="M 435.5,337.5 C 435.5,347.833 435.5,358.167 435.5,368.5C 442.167,368.5 448.833,368.5 455.5,368.5C 455.5,367.167 455.5,365.833 455.5,364.5C 450.167,364.5 444.833,364.5 439.5,364.5C 439.5,355.5 439.5,346.5 439.5,337.5C 438.167,337.5 436.833,337.5 435.5,337.5 Z"/></g></svg>
