<svg xmlns="http://www.w3.org/2000/svg" version="1.1" width="5000px" height="1730px" style="shape-rendering:geometricPrecision; text-rendering:geometricPrecision; image-rendering:optimizeQuality; fill-rule:evenodd; clip-rule:evenodd" xmlns:xlink="http://www.w3.org/1999/xlink"><g><path style="opacity:0.999" fill="#370e61" d="M -0.5,18.5 C 1666.17,18.5 3332.83,18.5 4999.5,18.5C 4999.5,588.833 4999.5,1159.17 4999.5,1729.5C 3332.83,1729.5 1666.17,1729.5 -0.5,1729.5C -0.5,1159.17 -0.5,588.833 -0.5,18.5 Z"/></g><g><path style="opacity:1" fill="#f4c201" d="M 1228.5,198.5 C 1331.5,192.114 1422.17,221.947 1500.5,288C 1587.48,367.84 1627.64,467.006 1621,585.5C 1613.02,680.289 1574.85,760.456 1506.5,826C 1494.04,836.726 1481.04,846.726 1467.5,856C 1452.3,864.768 1436.96,873.268 1421.5,881.5C 1507.78,922.354 1567.28,987.687 1600,1077.5C 1641.3,1196.81 1626.63,1308.47 1556,1412.5C 1487.65,1503.94 1396.15,1554.11 1281.5,1563C 1184.27,1569.59 1099.27,1540.92 1026.5,1477C 962.194,1413.27 934.194,1336.1 942.5,1245.5C 881.877,1283.42 815.71,1301.76 744,1300.5C 656.212,1299.9 577.379,1273.4 507.5,1221C 464.809,1187.64 425.975,1150.14 391,1108.5C 368,1078.83 345,1049.17 322,1019.5C 291.392,982.557 257.226,949.391 219.5,920C 202.948,907.784 185.615,896.784 167.5,887C 163.305,882.076 163.971,877.743 169.5,874C 212.744,849.42 251.577,818.92 286,782.5C 299.705,767.797 313.038,752.797 326,737.5C 353.944,700.621 382.61,664.288 412,628.5C 428.833,611.667 445.667,594.833 462.5,578C 500.875,542.665 543.875,513.999 591.5,492C 679.181,456.616 768.515,451.95 859.5,478C 888.517,488.258 916.35,501.092 943,516.5C 933.296,396.399 979.796,305.565 1082.5,244C 1127.77,217.632 1176.43,202.465 1228.5,198.5 Z"/></g><g><path style="opacity:1" fill="#370e61" d="M 1229.5,279.5 C 1323.01,275.212 1401.51,306.879 1465,374.5C 1524.32,446.786 1545.32,529.119 1528,621.5C 1501.41,731.76 1433.57,802.594 1324.5,834C 1223.16,858.813 1129.16,842.48 1042.5,785C 1008.55,760.051 974.884,734.718 941.5,709C 875.779,661.951 805.112,652.951 729.5,682C 676.382,707.117 638.215,746.617 615,800.5C 596.77,854.957 597.104,909.29 616,963.5C 642.973,1024.81 688.139,1066.31 751.5,1088C 811.362,1104.77 868.028,1097.43 921.5,1066C 930.003,1060.92 938.336,1055.58 946.5,1050C 977.781,1024.7 1009.78,1000.36 1042.5,977C 1129.46,920.609 1223.46,904.275 1324.5,928C 1424.7,956.201 1490.87,1019.7 1523,1118.5C 1546.8,1209.93 1531.8,1294.27 1478,1371.5C 1425.81,1437.19 1357.64,1474.02 1273.5,1482C 1180.98,1487.65 1107.81,1453.15 1054,1378.5C 1011.34,1308.61 1005.18,1235.61 1035.5,1159.5C 1038.75,1157.78 1040.58,1158.78 1041,1162.5C 1043.55,1213.47 1066.05,1252.64 1108.5,1280C 1154.78,1303.37 1202.11,1305.7 1250.5,1287C 1301.49,1264.58 1328.99,1225.41 1333,1169.5C 1336.7,1119.58 1320.87,1077.08 1285.5,1042C 1244.39,1007.91 1197.73,997.24 1145.5,1010C 1121.35,1017.59 1099.02,1028.59 1078.5,1043C 1047.58,1067.24 1017.25,1092.24 987.5,1118C 954.1,1145.7 917.766,1169.04 878.5,1188C 821.305,1211.2 761.972,1219.2 700.5,1212C 641.371,1203.92 589.038,1180.92 543.5,1143C 508.441,1112.28 476.941,1078.45 449,1041.5C 417.269,994.755 380.103,952.589 337.5,915C 324.02,904.422 309.686,895.089 294.5,887C 289.167,883 289.167,879 294.5,875C 324.313,859.468 350.479,838.968 373,813.5C 388.744,797.094 403.744,780.094 418,762.5C 440.517,732.804 463.517,703.471 487,674.5C 515.23,642.252 547.063,614.418 582.5,591C 648.651,552.905 719.651,539.572 795.5,551C 838.355,557.062 878.355,571.062 915.5,593C 929.681,601.254 943.347,610.254 956.5,620C 986.708,643.202 1016.04,667.535 1044.5,693C 1056.17,702 1067.83,711 1079.5,720C 1099.41,734.122 1121.08,744.789 1144.5,752C 1201.94,766.185 1251.77,752.685 1294,711.5C 1333.65,663.559 1343.65,609.893 1324,550.5C 1307.05,509.889 1277.55,482.722 1235.5,469C 1191.36,456.654 1149.03,460.987 1108.5,482C 1066.34,509.113 1043.84,547.947 1041,598.5C 1041.05,603.136 1039.05,604.469 1035,602.5C 1001.54,515.267 1013.21,434.934 1070,361.5C 1112.65,313.924 1165.82,286.591 1229.5,279.5 Z"/></g><g><path style="opacity:1" fill="#f4c200" d="M 2329.5,1297.5 C 2231.17,1298.83 2132.83,1298.83 2034.5,1297.5C 2054.19,1285.64 2069.69,1269.64 2081,1249.5C 2090.28,1226.75 2095.62,1203.08 2097,1178.5C 2098.48,981.176 2098.98,783.843 2098.5,586.5C 1982.17,585.833 1865.83,585.167 1749.5,584.5C 1808.91,529.295 1856.91,465.629 1893.5,393.5C 1914.93,434.725 1948.93,457.558 1995.5,462C 2134.83,462.667 2274.17,462.667 2413.5,462C 2453.4,461.062 2492.4,454.729 2530.5,443C 2555.21,434.734 2577.38,422.234 2597,405.5C 2592.11,460.787 2566.94,504.287 2521.5,536C 2476,565.608 2426,581.608 2371.5,584C 2336.51,585.313 2301.51,585.813 2266.5,585.5C 2267.32,774.159 2267.82,962.826 2268,1151.5C 2268.23,1176.32 2270.23,1200.99 2274,1225.5C 2281.2,1258.25 2299.7,1282.25 2329.5,1297.5 Z"/></g><g><path style="opacity:1" fill="#f4c200" d="M 4506.5,1297.5 C 4396.5,1298.83 4286.5,1298.83 4176.5,1297.5C 4192.87,1286.62 4206.04,1272.62 4216,1255.5C 4223.48,1237.22 4224.48,1218.56 4219,1199.5C 4197.46,1144.38 4175.63,1089.38 4153.5,1034.5C 4042.93,1033.17 3932.43,1033.17 3822,1034.5C 3800.06,1085.38 3778.39,1136.38 3757,1187.5C 3740.97,1223.53 3747.14,1255.03 3775.5,1282C 3782.21,1287.68 3789.21,1292.84 3796.5,1297.5C 3601.17,1298.83 3405.83,1298.83 3210.5,1297.5C 3245.15,1280.65 3264.99,1252.98 3270,1214.5C 3271.85,1202.22 3273.18,1189.89 3274,1177.5C 3274.5,1090.5 3274.67,1003.5 3274.5,916.5C 3135.83,916.5 2997.17,916.5 2858.5,916.5C 2858.1,1007.51 2858.6,1098.51 2860,1189.5C 2861.27,1204.67 2863.6,1219.67 2867,1234.5C 2871.95,1253.77 2882.12,1269.6 2897.5,1282C 2905.36,1287.43 2913.36,1292.59 2921.5,1297.5C 2823.5,1298.83 2725.5,1298.83 2627.5,1297.5C 2643.74,1288.78 2657.57,1277.11 2669,1262.5C 2677.72,1248 2683.06,1232.33 2685,1215.5C 2686.89,1202.56 2688.23,1189.56 2689,1176.5C 2689.67,981.167 2689.67,785.833 2689,590.5C 2688.77,565.292 2685.1,540.625 2678,516.5C 2673.19,504.386 2666.03,493.886 2656.5,485C 2647.47,477.161 2637.8,470.328 2627.5,464.5C 2725.5,463.167 2823.5,463.167 2921.5,464.5C 2881.83,484.779 2861.67,517.446 2861,562.5C 2860.07,574.819 2859.41,587.152 2859,599.5C 2858.5,666.499 2858.33,733.499 2858.5,800.5C 2997.17,800.5 3135.83,800.5 3274.5,800.5C 3274.67,728.166 3274.5,655.833 3274,583.5C 3273.55,560.942 3269.89,538.942 3263,517.5C 3256.95,502.775 3247.79,490.275 3235.5,480C 3227.77,474.81 3220.1,469.644 3212.5,464.5C 3309.83,463.167 3407.17,463.167 3504.5,464.5C 3491.55,472.247 3479.72,481.58 3469,492.5C 3458.21,506.753 3451.21,522.753 3448,540.5C 3445.21,557.391 3443.54,574.391 3443,591.5C 3442.33,784.167 3442.33,976.833 3443,1169.5C 3443.61,1192.9 3446.95,1215.9 3453,1238.5C 3462.71,1264.04 3479.88,1282.71 3504.5,1294.5C 3541.26,1281.03 3570.09,1257.69 3591,1224.5C 3604.95,1201.6 3617.62,1177.93 3629,1153.5C 3708.61,975.285 3787.94,796.951 3867,618.5C 3874.42,598.358 3876.42,577.691 3873,556.5C 3869.21,543.067 3862.04,531.9 3851.5,523C 3898.25,513.449 3942.58,497.449 3984.5,475C 4010.25,460.267 4033.41,442.1 4054,420.5C 4058.41,415.348 4062.57,410.015 4066.5,404.5C 4098.28,475.64 4129.78,546.973 4161,618.5C 4241.48,804.95 4322.15,991.283 4403,1177.5C 4415.13,1203.1 4429.8,1227.1 4447,1249.5C 4464.13,1268.97 4483.97,1284.97 4506.5,1297.5 Z"/></g><g><path style="opacity:1" fill="#c49518" d="M 2921.5,464.5 C 2823.5,463.167 2725.5,463.167 2627.5,464.5C 2626.24,464.539 2625.24,464.039 2624.5,463C 2724.17,462.333 2823.83,462.333 2923.5,463C 2922.96,463.717 2922.29,464.217 2921.5,464.5 Z"/></g><g><path style="opacity:1" fill="#c49518" d="M 3504.5,464.5 C 3407.17,463.167 3309.83,463.167 3212.5,464.5C 3211.24,464.539 3210.24,464.039 3209.5,463C 3308.83,462.333 3408.17,462.333 3507.5,463C 3506.76,464.039 3505.76,464.539 3504.5,464.5 Z"/></g><g><path style="opacity:1" fill="#c49518" d="M 4805.5,464.5 C 4708.17,463.167 4610.83,463.167 4513.5,464.5C 4512.71,464.217 4512.04,463.717 4511.5,463C 4610.17,462.333 4708.83,462.333 4807.5,463C 4806.96,463.717 4806.29,464.217 4805.5,464.5 Z"/></g><g><path style="opacity:1" fill="#f4c201" d="M 4805.5,464.5 C 4790.04,473.122 4776.87,484.455 4766,498.5C 4756.05,513.686 4750.05,530.352 4748,548.5C 4746.83,558.148 4745.83,567.814 4745,577.5C 4744.33,778.833 4744.33,980.167 4745,1181.5C 4745.44,1203.83 4749.44,1225.5 4757,1246.5C 4763.13,1260.91 4772.3,1273.08 4784.5,1283C 4791.38,1288.05 4798.38,1292.89 4805.5,1297.5C 4708.17,1298.83 4610.83,1298.83 4513.5,1297.5C 4529.76,1288.43 4543.59,1276.43 4555,1261.5C 4562.58,1247.75 4567.58,1233.09 4570,1217.5C 4571.99,1204.9 4573.32,1192.23 4574,1179.5C 4574.67,980.5 4574.67,781.5 4574,582.5C 4573.65,560.685 4570.32,539.352 4564,518.5C 4558.93,505.103 4551.1,493.603 4540.5,484C 4531.88,476.862 4522.88,470.362 4513.5,464.5C 4610.83,463.167 4708.17,463.167 4805.5,464.5 Z"/></g><g><path style="opacity:1" fill="#4f2555" d="M 1749.5,584.5 C 1865.83,585.167 1982.17,585.833 2098.5,586.5C 1981.83,586.833 1865.16,586.5 1748.5,585.5C 1748.62,584.893 1748.96,584.56 1749.5,584.5 Z"/></g><g><path style="opacity:1" fill="#370e61" d="M 3990.5,631.5 C 3992.79,634.463 3994.62,637.796 3996,641.5C 4034.56,737.613 4073.39,833.613 4112.5,929.5C 4030.17,930.667 3947.84,930.833 3865.5,930C 3907.45,830.649 3949.12,731.149 3990.5,631.5 Z"/></g><g><path style="opacity:1" fill="#b6007c" d="M 795.5,726.5 C 827.526,724.405 857.859,730.572 886.5,745C 900.165,752.497 913.498,760.497 926.5,769C 957.679,792.09 988.679,815.424 1019.5,839C 1038.27,852.073 1058.27,863.073 1079.5,872C 1086.88,875.26 1094.54,877.427 1102.5,878.5C 1102.71,880.144 1102.38,881.644 1101.5,883C 1078.75,889.043 1057.41,898.376 1037.5,911C 999.966,937.601 962.966,964.935 926.5,993C 902.646,1009.51 876.979,1022.51 849.5,1032C 790.574,1044.47 740.407,1028.97 699,985.5C 665.431,941.722 654.764,892.722 667,838.5C 686.188,773.799 729.021,736.466 795.5,726.5 Z"/></g><g><path style="opacity:1" fill="#c49518" d="M 2034.5,1297.5 C 2132.83,1298.83 2231.17,1298.83 2329.5,1297.5C 2330.29,1297.78 2330.96,1298.28 2331.5,1299C 2231.83,1299.67 2132.17,1299.67 2032.5,1299C 2033.04,1298.28 2033.71,1297.78 2034.5,1297.5 Z"/></g><g><path style="opacity:1" fill="#c49518" d="M 2627.5,1297.5 C 2725.5,1298.83 2823.5,1298.83 2921.5,1297.5C 2922.29,1297.78 2922.96,1298.28 2923.5,1299C 2823.83,1299.67 2724.17,1299.67 2624.5,1299C 2625.24,1297.96 2626.24,1297.46 2627.5,1297.5 Z"/></g><g><path style="opacity:1" fill="#c49518" d="M 3210.5,1297.5 C 3405.83,1298.83 3601.17,1298.83 3796.5,1297.5C 3797.76,1297.46 3798.76,1297.96 3799.5,1299C 3602.5,1299.67 3405.5,1299.67 3208.5,1299C 3209.04,1298.28 3209.71,1297.78 3210.5,1297.5 Z"/></g><g><path style="opacity:1" fill="#c49518" d="M 4176.5,1297.5 C 4286.5,1298.83 4396.5,1298.83 4506.5,1297.5C 4507.29,1297.78 4507.96,1298.28 4508.5,1299C 4397.17,1299.67 4285.83,1299.67 4174.5,1299C 4175.04,1298.28 4175.71,1297.78 4176.5,1297.5 Z"/></g><g><path style="opacity:1" fill="#c49518" d="M 4513.5,1297.5 C 4610.83,1298.83 4708.17,1298.83 4805.5,1297.5C 4806.29,1297.78 4806.96,1298.28 4807.5,1299C 4708.83,1299.67 4610.17,1299.67 4511.5,1299C 4512.04,1298.28 4512.71,1297.78 4513.5,1297.5 Z"/></g></svg>
