<svg xmlns="http://www.w3.org/2000/svg" version="1.1" width="1280px" height="501px" style="shape-rendering:geometricPrecision; text-rendering:geometricPrecision; image-rendering:optimizeQuality; fill-rule:evenodd; clip-rule:evenodd" xmlns:xlink="http://www.w3.org/1999/xlink"><g><path style="opacity:0.991" fill="#51524f" d="M 187.5,7.5 C 215.817,5.39918 235.317,17.3992 246,43.5C 252.944,69.678 245.444,90.5113 223.5,106C 196.121,119.591 172.621,114.758 153,91.5C 137.437,63.9805 141.27,39.4805 164.5,18C 171.591,13.0346 179.258,9.53456 187.5,7.5 Z"/></g><g><path style="opacity:0.991" fill="#f69e24" d="M 1070.5,7.5 C 1107.17,6.82869 1127.17,24.8287 1130.5,61.5C 1126.14,97.6948 1105.81,114.861 1069.5,113C 1046.23,107.392 1032.06,92.8922 1027,69.5C 1024.65,36.7281 1039.15,16.0615 1070.5,7.5 Z"/></g><g><path style="opacity:0.991" fill="#51524f" d="M 47.5,82.5 C 60.8375,82.3334 74.1708,82.5001 87.5,83C 94.6667,84.8333 99.1667,89.3333 101,96.5C 101.5,111.163 101.667,125.83 101.5,140.5C 135.605,134.77 149.105,148.77 142,182.5C 139.42,189.873 134.254,194.04 126.5,195C 118.173,195.5 109.84,195.666 101.5,195.5C 101.333,217.503 101.5,239.503 102,261.5C 102.98,269.472 106.813,275.639 113.5,280C 122.124,282.879 130.791,285.546 139.5,288C 142.25,290.67 144.083,293.836 145,297.5C 145.667,308.833 145.667,320.167 145,331.5C 143.564,337.87 139.731,342.037 133.5,344C 106.304,348.951 81.3041,343.618 58.5,328C 43.0363,315.576 34.5363,299.409 33,279.5C 32.5,251.502 32.3334,223.502 32.5,195.5C 12.9014,197.4 3.56806,188.566 4.5,169C 3.40483,148.595 13.0715,139.095 33.5,140.5C 33.1238,125.46 33.6238,110.46 35,95.5C 37.3531,89.3154 41.5198,84.982 47.5,82.5 Z"/></g><g><path style="opacity:0.994" fill="#525250" d="M 334.5,132.5 C 350.617,132.023 365.951,135.19 380.5,142C 384.916,144.412 388.749,147.578 392,151.5C 393.5,140.667 399.667,134.5 410.5,133C 421.167,132.333 431.833,132.333 442.5,133C 455.199,135.039 461.365,142.539 461,155.5C 461.833,222.502 461.667,289.502 460.5,356.5C 456.947,353.556 452.947,351.39 448.5,350C 434.167,348 419.833,348 405.5,350C 400.888,351.639 396.554,353.806 392.5,356.5C 391.668,346.183 391.168,335.849 391,325.5C 370.704,346.372 346.204,353.539 317.5,347C 284.662,338.498 263.162,317.998 253,285.5C 243.501,252.81 244.501,220.477 256,188.5C 271.468,154.695 297.634,136.028 334.5,132.5 Z M 347.5,191.5 C 364.845,190.089 378.012,196.755 387,211.5C 396.961,231.494 396.961,251.494 387,271.5C 376.261,287.444 361.428,293.277 342.5,289C 323.691,281.259 313.858,267.092 313,246.5C 311.111,226.801 317.611,210.634 332.5,198C 337.367,195.226 342.367,193.059 347.5,191.5 Z"/></g><g><path style="opacity:0.992" fill="#51524f" d="M 576.5,132.5 C 612.759,130.829 640.926,144.829 661,174.5C 672.21,195.216 676.21,217.216 673,240.5C 670.5,247 666,251.5 659.5,254C 621.893,255.315 584.226,255.982 546.5,256C 552.358,275.524 565.358,286.857 585.5,290C 595.035,290.967 604.368,289.967 613.5,287C 623.047,283.317 632.714,280.151 642.5,277.5C 648.148,277.574 652.648,279.908 656,284.5C 660.189,290.877 663.855,297.544 667,304.5C 670.695,316.242 667.195,325.075 656.5,331C 627.39,347.017 596.39,352.35 563.5,347C 516.781,337.281 488.281,309.114 478,262.5C 472.01,228.434 479.01,197.434 499,169.5C 519.445,145.959 545.279,133.625 576.5,132.5 Z M 573.5,183.5 C 595.963,181.726 607.963,192.06 609.5,214.5C 589.167,214.5 568.833,214.5 548.5,214.5C 550.651,199.031 558.984,188.697 573.5,183.5 Z"/></g><g><path style="opacity:0.992" fill="#51524f" d="M 923.5,132.5 C 949.381,131.384 973.047,137.884 994.5,152C 1012.1,166.693 1021.6,185.526 1023,208.5C 1023.67,247.5 1023.67,286.5 1023,325.5C 1021.91,335.523 1016.41,341.357 1006.5,343C 994.109,343.917 981.776,343.584 969.5,342C 963.73,339.305 960.23,334.805 959,328.5C 958.667,324.167 958.333,319.833 958,315.5C 933.575,345.968 902.741,354.801 865.5,342C 840.646,331.645 827.313,312.978 825.5,286C 827.364,259.612 840.364,240.946 864.5,230C 892.32,218.477 921.32,213.31 951.5,214.5C 951.946,201.24 945.613,193.406 932.5,191C 920.392,189.524 908.392,190.524 896.5,194C 889.758,196.136 883.091,198.469 876.5,201C 867.78,202.65 860.946,199.817 856,192.5C 853,186.833 850,181.167 847,175.5C 842.869,163.549 846.369,154.716 857.5,149C 878.699,139.7 900.699,134.2 923.5,132.5 Z M 937.5,252.5 C 942.167,252.5 946.833,252.5 951.5,252.5C 951.343,273.984 941.343,288.818 921.5,297C 910.398,300.264 900.564,298.098 892,290.5C 886.084,278.569 888.917,269.069 900.5,262C 912.35,256.455 924.683,253.288 937.5,252.5 Z"/></g><g><path style="opacity:0.992" fill="#51524f" d="M 801.5,134.5 C 812.501,132.223 821.668,135.223 829,143.5C 830.399,146.363 831.399,149.363 832,152.5C 832.909,163.892 832.576,175.225 831,186.5C 828.5,191.667 824.667,195.5 819.5,198C 782.352,197.486 761.852,215.652 758,252.5C 757.667,277.5 757.333,302.5 757,327.5C 755.668,336.03 750.835,341.197 742.5,343C 728.444,343.928 714.444,343.595 700.5,342C 693.847,338.531 690.347,333.031 690,325.5C 689.333,268.5 689.333,211.5 690,154.5C 690.351,144.816 695.185,138.649 704.5,136C 715.833,135.333 727.167,135.333 738.5,136C 745.229,136.942 750.062,140.442 753,146.5C 754.197,154.438 754.864,162.438 755,170.5C 760.703,158.795 769.203,149.629 780.5,143C 787.331,139.453 794.331,136.619 801.5,134.5 Z"/></g><g><path style="opacity:0.99" fill="#51524f" d="M 1246.5,134.5 C 1257.77,132.351 1267.27,135.351 1275,143.5C 1276.2,146.089 1277.2,148.756 1278,151.5C 1278.94,163.238 1278.6,174.905 1277,186.5C 1274.44,192.061 1270.27,195.894 1264.5,198C 1228.28,197.232 1207.78,214.732 1203,250.5C 1202.67,275.5 1202.33,300.5 1202,325.5C 1201.25,334.879 1196.42,340.712 1187.5,343C 1173.78,343.926 1160.11,343.593 1146.5,342C 1139.89,338.958 1136.05,333.791 1135,326.5C 1134.02,267.122 1134.35,207.789 1136,148.5C 1138.37,141.464 1143.2,137.297 1150.5,136C 1163.22,135.08 1175.89,135.414 1188.5,137C 1193.33,139.167 1196.83,142.667 1199,147.5C 1200.23,155.089 1200.9,162.756 1201,170.5C 1211.03,151.966 1226.2,139.966 1246.5,134.5 Z"/></g><g><path style="opacity:0.986" fill="#52534f" d="M 178.5,135.5 C 191.885,135.097 205.218,135.597 218.5,137C 226.171,140.337 230.338,146.17 231,154.5C 231.667,211.5 231.667,268.5 231,325.5C 229.911,335.523 224.411,341.357 214.5,343C 200.777,343.926 187.111,343.593 173.5,342C 167.726,339.293 164.226,334.793 163,328.5C 162.333,269.167 162.333,209.833 163,150.5C 164.796,141.869 169.962,136.869 178.5,135.5 Z"/></g><g><path style="opacity:0.994" fill="#515250" d="M 1060.5,135.5 C 1073.89,135.075 1087.23,135.575 1100.5,137C 1106.49,139.659 1110.33,144.159 1112,150.5C 1112.67,209.833 1112.67,269.167 1112,328.5C 1109.83,336 1105,340.833 1097.5,343C 1084.83,343.667 1072.17,343.667 1059.5,343C 1052.33,341.167 1047.83,336.667 1046,329.5C 1045.33,269.5 1045.33,209.5 1046,149.5C 1048.12,141.874 1052.96,137.207 1060.5,135.5 Z"/></g><g><path style="opacity:0.99" fill="#f69e24" d="M 269.5,366.5 C 280.505,366.333 291.505,366.5 302.5,367C 305.754,367.25 308.754,368.25 311.5,370C 314,373.167 316.5,376.333 319,379.5C 319.69,418.514 338.857,432.68 376.5,422C 384.616,416.879 390.116,409.712 393,400.5C 393.949,393.154 394.949,385.821 396,378.5C 398.888,371.614 404.055,367.781 411.5,367C 423.558,366.085 435.558,366.419 447.5,368C 454.07,370.238 458.237,374.738 460,381.5C 465.684,416.951 454.517,445.784 426.5,468C 379.006,502.418 332.006,501.751 285.5,466C 259.79,443.213 249.29,414.713 254,380.5C 256.265,372.475 261.431,367.808 269.5,366.5 Z"/></g></svg>
