<svg version="1.0" xmlns="http://www.w3.org/2000/svg" width="601.000000pt" height="256.000000pt" viewBox="0 0 601.000000 256.000000" preserveAspectRatio="xMidYMid meet"><g transform="translate(0.000000,256.000000) scale(0.100000,-0.100000)" fill="#000000" stroke="none"><path d="M4380 2206 c-36 -12 -81 -32 -100 -44 -47 -29 -65 -28 -89 7 -45 63 -132 62 -172 -3 -23 -38 -24 -58 -3 -103 17 -34 16 -35 -24 -121 -23 -48 -47 -109 -54 -136 l-13 -48 36 -32 c19 -17 149 -133 287 -258 139 -126 259 -228 268 -228 15 0 100 75 452 394 72 66 132 127 132 136 0 30 -26 104 -65 182 -38 76 -38 77 -21 111 21 45 20 65 -3 103 -40 65 -127 66 -172 3 -25 -36 -40 -36 -96 -3 -117 68 -245 82 -363 40z m222 -132 c49 -26 104 -88 139 -160 28 -57 34 -80 34 -135 0 -55 -4 -72 -28 -107 -15 -23 -46 -54 -69 -69 -40 -27 -47 -28 -163 -28 -116 0 -123 1 -163 28 -119 78 -131 216 -32 364 79 118 183 158 282 107z m-364 -26 c26 -26 8 -88 -24 -88 -23 0 -45 31 -38 54 13 44 38 58 62 34z m608 -13 c19 -29 11 -61 -17 -70 -27 -9 -49 11 -49 44 0 52 39 67 66 26z"/><path d="M4440 2009 c-12 -21 -2 -51 34 -98 18 -24 26 -48 26 -74 0 -85 -55 -124 -111 -78 -18 15 -24 29 -24 67 -1 27 -6 49 -13 52 -16 5 -15 -98 1 -119 30 -39 104 -52 143 -25 17 12 22 12 39 0 39 -29 137 -7 149 33 3 10 6 38 8 63 2 34 -1 45 -12 45 -10 0 -14 -14 -15 -49 0 -38 -6 -52 -24 -67 -41 -33 -82 -23 -100 24 -19 50 -13 92 19 132 64 81 51 113 -46 113 -52 0 -66 -4 -74 -19z"/><path d="M4195 2020 c-8 -14 3 -30 21 -30 8 0 14 9 14 20 0 21 -24 28 -35 10z"/><path d="M4800 2010 c0 -15 5 -20 18 -18 9 2 17 10 17 18 0 8 -8 16 -17 18 -13 2 -18 -3 -18 -18z"/><path d="M3771 1928 c-4 -13 -10 -30 -13 -38 -4 -11 -7 -10 -17 8 -6 12 -18 22 -26 22 -18 0 -20 -41 -4 -57 9 -9 8 -16 -5 -28 -23 -24 -20 -50 10 -82 32 -33 119 -216 141 -293 12 -42 16 -131 20 -372 l6 -318 632 0 632 0 6 318 c4 241 8 330 20 372 22 77 109 260 141 293 30 32 33 58 10 82 -13 12 -14 19 -5 28 16 16 14 57 -4 57 -8 0 -20 -10 -26 -22 -12 -22 -13 -22 -24 12 -20 58 -40 45 -40 -25 l0 -61 -92 -99 c-109 -119 -302 -346 -428 -505 -97 -122 -165 -190 -190 -190 -25 0 -93 68 -190 190 -126 159 -319 386 -428 505 l-92 99 0 60 c0 63 -18 87 -34 44z"/><path d="M445 1663 c4 -10 25 -65 47 -123 21 -58 45 -121 53 -140 8 -19 53 -141 101 -270 109 -298 108 -296 159 -325 71 -42 158 -26 199 37 12 19 316 820 316 833 0 3 -71 5 -159 5 l-159 0 -10 -27 c-6 -16 -32 -85 -58 -155 -25 -71 -49 -128 -53 -128 -4 0 -32 69 -63 153 l-55 152 -163 3 c-152 2 -162 1 -155 -15z"/><path d="M1642 1568 l3 -113 193 -3 192 -2 0 -54 c0 -40 -4 -55 -16 -60 -9 -3 -86 -6 -172 -6 -176 0 -203 -8 -242 -72 -18 -29 -20 -51 -20 -197 0 -157 1 -166 25 -206 42 -72 55 -75 364 -75 l271 0 45 43 45 44 2 79 c0 43 0 203 -1 354 -3 300 -5 310 -64 354 -27 20 -42 21 -328 24 l-300 3 3 -113z m388 -508 l0 -70 -75 0 -75 0 0 63 c0 35 3 67 7 70 3 4 37 7 75 7 l68 0 0 -70z"/><path d="M2480 1230 l0 -450 150 0 150 0 0 450 0 450 -150 0 -150 0 0 -450z"/><path d="M3000 1659 c-19 -11 -44 -33 -55 -47 -19 -26 -20 -45 -23 -429 l-3 -403 151 0 150 0 0 300 0 300 110 0 110 0 0 150 0 150 -202 0 c-186 0 -206 -2 -238 -21z"/></g></svg>
