<svg xmlns="http://www.w3.org/2000/svg" version="1.1" width="2560px" height="794px" style="shape-rendering:geometricPrecision; text-rendering:geometricPrecision; image-rendering:optimizeQuality; fill-rule:evenodd; clip-rule:evenodd" xmlns:xlink="http://www.w3.org/1999/xlink"><g><path style="opacity:0.989" fill="#0092d2" d="M 484.5,8.5 C 498.445,6.22341 508.612,11.2234 515,23.5C 518.726,37.3428 519.06,51.3428 516,65.5C 511.408,88.8677 505.408,111.868 498,134.5C 466.777,230.263 431.11,324.263 391,416.5C 380.709,440.411 368.375,463.078 354,484.5C 350.833,487.667 347.667,490.833 344.5,494C 338.511,496.334 332.844,495.668 327.5,492C 321.301,486.136 315.468,479.969 310,473.5C 277.976,430.126 248.309,385.126 221,338.5C 193.731,292.304 167.731,245.304 143,197.5C 132.655,176.798 126.155,154.965 123.5,132C 124.236,110.594 135.236,100.261 156.5,101C 163.327,102.413 169.327,105.413 174.5,110C 182.255,117.698 189.422,125.865 196,134.5C 223.315,176.112 247.315,219.778 268,265.5C 293.375,319.252 315.709,374.252 335,430.5C 355.102,327.426 381.768,226.092 415,126.5C 425.148,96.873 437.481,68.2063 452,40.5C 459.434,26.2311 470.268,15.5645 484.5,8.5 Z"/></g><g><path style="opacity:0.986" fill="#0092d2" d="M 1344.5,38.5 C 1358.23,36.9327 1364.06,42.9327 1362,56.5C 1333.18,169.457 1304.51,282.457 1276,395.5C 1272.94,407.332 1271.94,419.332 1273,431.5C 1273.35,434.539 1274.52,437.205 1276.5,439.5C 1288.49,432.017 1299.16,422.851 1308.5,412C 1314.17,408.667 1319.83,408.667 1325.5,412C 1331.83,415.653 1335.83,420.987 1337.5,428C 1336.87,432.43 1335.03,436.263 1332,439.5C 1320.18,453.324 1307.68,466.491 1294.5,479C 1283.64,488.62 1270.97,492.62 1256.5,491C 1245.11,487.943 1236.28,481.443 1230,471.5C 1223.04,459.619 1219.54,446.785 1219.5,433C 1220.4,419.374 1222.23,405.874 1225,392.5C 1247.46,284.528 1269.79,176.528 1292,68.5C 1293.06,65.4384 1294.89,62.9384 1297.5,61C 1313.5,53.9978 1329.17,46.4978 1344.5,38.5 Z"/></g><g><path style="opacity:0.986" fill="#0092d2" d="M 1496.5,38.5 C 1506.56,37.0182 1512.56,41.1848 1514.5,51C 1485.26,166.141 1456.09,281.307 1427,396.5C 1424.02,407.667 1423.02,419 1424,430.5C 1424.49,433.798 1425.65,436.798 1427.5,439.5C 1439.86,431.317 1451.19,421.817 1461.5,411C 1473.55,408.634 1482.39,413.134 1488,424.5C 1489.09,429.881 1487.76,434.548 1484,438.5C 1471.51,452.992 1458.34,466.825 1444.5,480C 1422.85,496.704 1402.68,495.204 1384,475.5C 1372.47,458.199 1368.47,439.199 1372,418.5C 1394.97,300.959 1418.97,183.626 1444,66.5C 1445.12,64.3762 1446.62,62.5429 1448.5,61C 1464.71,53.725 1480.71,46.225 1496.5,38.5 Z"/></g><g><path style="opacity:0.982" fill="#0092d2" d="M 1149.5,104.5 C 1174.13,106.298 1187.8,119.465 1190.5,144C 1187.95,168.052 1174.61,181.219 1150.5,183.5C 1126.36,181.197 1113.03,168.03 1110.5,144C 1113,120.333 1126,107.166 1149.5,104.5 Z"/></g><g><path style="opacity:0.979" fill="#0092d2" d="M 2107.5,105.5 C 2115.09,105.186 2122.59,105.519 2130,106.5C 2152.31,234.549 2174.81,362.549 2197.5,490.5C 2192,490.833 2186.5,491.167 2181,491.5C 2175.09,491.475 2169.42,490.808 2164,489.5C 2157.84,454.874 2152.01,420.208 2146.5,385.5C 2097.5,385.333 2048.5,385.5 1999.5,386C 1981.45,420.6 1963.78,455.433 1946.5,490.5C 1934.17,491.833 1921.83,491.833 1909.5,490.5C 1975.77,362.297 2041.77,233.963 2107.5,105.5 Z M 2108.5,163.5 C 2119.47,228.314 2130.14,293.314 2140.5,358.5C 2098.17,358.667 2055.83,358.5 2013.5,358C 2046.67,293.835 2078.33,229.002 2108.5,163.5 Z"/></g><g><path style="opacity:0.971" fill="#0092d2" d="M 2336.5,119.5 C 2353.38,119.259 2363.05,127.425 2365.5,144C 2363.12,161.523 2353.12,169.523 2335.5,168C 2320.94,164.053 2314.44,154.553 2316,139.5C 2318.78,128.549 2325.62,121.882 2336.5,119.5 Z"/></g><g><path style="opacity:0.974" fill="#0092d2" d="M 2559.5,214.5 C 2559.5,215.5 2559.5,216.5 2559.5,217.5C 2555.3,226.895 2550.8,236.228 2546,245.5C 2528.84,239.037 2512.34,240.537 2496.5,250C 2483.64,258.561 2473.14,269.394 2465,282.5C 2452.95,302.612 2443.61,323.945 2437,346.5C 2426.16,394.054 2415.82,441.721 2406,489.5C 2400.75,490.807 2395.25,491.474 2389.5,491.5C 2384.17,491.167 2378.83,490.833 2373.5,490.5C 2393.19,399.553 2412.69,308.553 2432,217.5C 2440.9,215.544 2450.07,214.878 2459.5,215.5C 2456.46,233.176 2453.63,250.843 2451,268.5C 2462.5,244.001 2480.33,225.834 2504.5,214C 2522.99,206.53 2541.32,206.697 2559.5,214.5 Z"/></g><g><path style="opacity:0.973" fill="#0092d2" d="M 2312.5,215.5 C 2322.83,215.5 2333.17,215.5 2343.5,215.5C 2324.66,306.878 2305.49,398.211 2286,489.5C 2280.75,490.807 2275.25,491.474 2269.5,491.5C 2264.17,491.167 2258.83,490.833 2253.5,490.5C 2273.3,398.832 2292.97,307.166 2312.5,215.5 Z"/></g><g><path style="opacity:0.986" fill="#0092d2" d="M 714.5,219.5 C 726.159,219.324 731.326,224.99 730,236.5C 716.333,289.167 702.667,341.833 689,394.5C 686.021,405.661 684.688,416.995 685,428.5C 685.251,432.77 686.751,436.436 689.5,439.5C 701.492,432.017 712.159,422.851 721.5,412C 725.555,409.66 729.889,408.993 734.5,410C 738.11,411.944 741.443,414.277 744.5,417C 749.087,421.228 750.587,426.394 749,432.5C 734.914,452.587 718.081,470.087 698.5,485C 677.472,496.368 659.305,492.868 644,474.5C 635.006,460.53 630.673,445.197 631,428.5C 613.897,453.123 592.064,472.289 565.5,486C 546.736,493.728 527.736,494.395 508.5,488C 490.986,480.148 479.486,466.982 474,448.5C 467.496,422.253 468.496,396.253 477,370.5C 491.62,323.723 517.786,284.89 555.5,254C 572.828,240.173 592.494,231.506 614.5,228C 633.554,225.682 651.221,229.515 667.5,239.5C 683.14,232.506 698.807,225.839 714.5,219.5 Z M 618.5,265.5 C 636.413,262.95 648.746,269.95 655.5,286.5C 646.834,333.484 627.668,375.484 598,412.5C 589.394,422.112 579.894,430.612 569.5,438C 561.164,443.672 552.164,445.339 542.5,443C 536.024,438.222 532.524,431.722 532,423.5C 531.116,397.361 536.116,372.361 547,348.5C 558.377,320.139 575.543,295.972 598.5,276C 604.818,271.676 611.484,268.176 618.5,265.5 Z"/></g><g><path style="opacity:0.986" fill="#0092d2" d="M 1764.5,219.5 C 1773.42,219.423 1778.76,223.756 1780.5,232.5C 1766.33,287.167 1752.17,341.833 1738,396.5C 1734.97,407.999 1733.97,419.666 1735,431.5C 1735.35,434.539 1736.52,437.205 1738.5,439.5C 1742.97,436.863 1747.3,434.03 1751.5,431C 1758.22,423.941 1765.22,417.274 1772.5,411C 1777.17,409 1781.83,409 1786.5,411C 1790.3,413.797 1793.8,416.964 1797,420.5C 1800.23,425.468 1800.23,430.468 1797,435.5C 1786.24,448.929 1774.74,461.763 1762.5,474C 1753.98,482.258 1743.98,487.925 1732.5,491C 1714.22,493.108 1700.38,486.274 1691,470.5C 1683.79,457.802 1680.13,444.135 1680,429.5C 1665.42,448.748 1648.25,465.248 1628.5,479C 1606.21,492.993 1582.55,495.993 1557.5,488C 1537.22,477.658 1525.05,461.158 1521,438.5C 1517.52,414.772 1519.52,391.439 1527,368.5C 1542.8,320.394 1570.63,280.894 1610.5,250C 1632.49,233.781 1657.16,226.448 1684.5,228C 1696.3,229.544 1707.3,233.377 1717.5,239.5C 1733.07,232.427 1748.74,225.76 1764.5,219.5 Z M 1675.5,264.5 C 1689.54,266.044 1699.54,273.21 1705.5,286C 1696.11,334.934 1675.61,378.434 1644,416.5C 1634.52,427.331 1623.35,435.831 1610.5,442C 1598.88,447.347 1590.04,444.514 1584,433.5C 1579.72,419.955 1579.38,406.288 1583,392.5C 1590.8,354.234 1607.14,320.234 1632,290.5C 1643.74,276.864 1658.24,268.198 1675.5,264.5 Z"/></g><g><path style="opacity:0.984" fill="#0092d2" d="M 1151.5,221.5 C 1160.65,221.485 1165.98,225.985 1167.5,235C 1153.67,286.498 1139.83,337.998 1126,389.5C 1122.32,402.949 1120.98,416.616 1122,430.5C 1122.12,433.932 1123.28,436.932 1125.5,439.5C 1137.49,432.017 1148.16,422.851 1157.5,412C 1163.17,408.667 1168.83,408.667 1174.5,412C 1177.05,414.853 1179.89,417.353 1183,419.5C 1185.34,423.555 1186.01,427.889 1185,432.5C 1172.32,450.518 1157.49,466.685 1140.5,481C 1110.22,499.97 1087.72,493.136 1073,460.5C 1070.3,451.869 1068.8,443.036 1068.5,434C 1069.46,421.782 1070.96,409.615 1073,397.5C 1082.21,347.14 1091.54,296.807 1101,246.5C 1102.25,243.829 1104.08,241.663 1106.5,240C 1121.64,233.905 1136.64,227.738 1151.5,221.5 Z"/></g><g><path style="opacity:0.984" fill="#0092d2" d="M 858.5,222.5 C 869.049,220.733 875.049,225.066 876.5,235.5C 871.336,254.824 866.502,274.157 862,293.5C 874.455,278.045 887.955,263.545 902.5,250C 918.614,235.695 937.447,227.861 959,226.5C 979.104,226.21 993.77,234.877 1003,252.5C 1007.57,264.541 1008.57,276.874 1006,289.5C 997.649,324.905 988.982,360.238 980,395.5C 976.431,408.361 975.431,421.361 977,434.5C 977.748,436.332 978.748,437.999 980,439.5C 992.048,431.125 1003.21,421.625 1013.5,411C 1020.14,408.412 1026.14,409.412 1031.5,414C 1041.46,420.753 1042.96,428.92 1036,438.5C 1023.51,452.992 1010.34,466.825 996.5,480C 985.75,488.916 973.417,492.583 959.5,491C 947.205,488.373 938.038,481.539 932,470.5C 924.178,455.387 921.512,439.387 924,422.5C 924.585,417.489 925.251,412.489 926,407.5C 933.001,368.496 940.001,329.496 947,290.5C 947.667,286.167 947.667,281.833 947,277.5C 945.991,276.342 944.658,275.675 943,275.5C 937.345,276.496 932.178,278.663 927.5,282C 891.178,308.982 862.011,342.148 840,381.5C 831.393,407.653 823.393,433.986 816,460.5C 812.614,469.61 807.948,477.943 802,485.5C 794.601,491.931 786.434,493.098 777.5,489C 772.859,482.442 770.859,475.109 771.5,467C 771.798,458.78 772.632,450.614 774,442.5C 785.892,377.48 797.892,312.48 810,247.5C 810.792,245.413 811.959,243.579 813.5,242C 828.59,235.449 843.59,228.949 858.5,222.5 Z"/></g><g><path style="opacity:0.978" fill="#fed100" d="M -0.5,484.5 C -0.5,482.5 -0.5,480.5 -0.5,478.5C 0.554468,474.569 2.55447,471.069 5.5,468C 10.5343,465.211 15.8677,463.211 21.5,462C 44.7855,459.002 68.1188,458.668 91.5,461C 150.195,464.587 208.195,472.92 265.5,486C 271.736,487.745 277.736,490.078 283.5,493C 286.362,494.786 287.028,497.119 285.5,500C 283.5,501 281.5,502 279.5,503C 255.78,508.039 231.78,510.705 207.5,511C 174.833,511.667 142.167,511.667 109.5,511C 82.2711,510.555 55.2711,507.888 28.5,503C 18.9789,501.277 10.4789,497.444 3,491.5C 1.78739,489.075 0.620727,486.741 -0.5,484.5 Z"/></g><g><path style="opacity:0.977" fill="#fed100" d="M 375.5,509.5 C 403.302,511.56 430.635,516.393 457.5,524C 499.513,534.837 540.846,547.837 581.5,563C 599.78,569.306 616.78,577.973 632.5,589C 642.735,598.41 643.068,608.077 633.5,618C 624.115,621.92 614.448,622.587 604.5,620C 574.661,613.246 545.661,603.913 517.5,592C 476.057,575.779 435.724,557.112 396.5,536C 387.16,530.994 378.66,524.828 371,517.5C 368.817,512.836 370.317,510.17 375.5,509.5 Z"/></g><g><path style="opacity:0.978" fill="#fed100" d="M 326.5,528.5 C 328.288,528.215 329.955,528.548 331.5,529.5C 332.677,531.863 333.343,534.363 333.5,537C 332.034,550.032 329.534,562.865 326,575.5C 308.035,639.065 284.369,700.398 255,759.5C 249.697,769.476 242.863,778.309 234.5,786C 223.466,792.195 214.633,790.029 208,779.5C 205.813,767.602 206.813,755.935 211,744.5C 236.813,675.541 269.479,610.208 309,548.5C 314.355,541.319 320.188,534.652 326.5,528.5 Z"/></g></svg>
